<svg xmlns="http://www.w3.org/2000/svg" xmlns:xlink="http://www.w3.org/1999/xlink" xmlns:inkscape="http://www.inkscape.org/namespaces/inkscape" version="1.1" width="250.14376" height="107.5139" viewBox="0 0 250.14376 107.5139">
<defs>
<clipPath id="clip_1">
<path transform="matrix(1,0,0,-1,0,107.5139)" d="M35.04375 33.9914H242.94374V84.7514H35.04375Z"/>
</clipPath>
<clipPath id="clip_2">
<path transform="matrix(1,0,0,-1,0,107.5139)" d="M35.04375 33.9914H242.94374V84.7514H35.04375Z"/>
</clipPath>
<clipPath id="clip_3">
<path transform="matrix(1,0,0,-1,0,107.5139)" d="M35.04375 33.9914H242.94374V84.7514H35.04375Z"/>
</clipPath>
<clipPath id="clip_4">
<path transform="matrix(1,0,0,-1,0,107.5139)" d="M35.04375 33.9914H242.94374V84.7514H35.04375Z"/>
</clipPath>
<clipPath id="clip_5">
<path transform="matrix(1,0,0,-1,0,107.5139)" d="M35.04375 33.9914H242.94374V84.7514H35.04375Z"/>
</clipPath>
<clipPath id="clip_6">
<path transform="matrix(1,0,0,-1,0,107.5139)" d="M35.04375 33.9914H242.94374V84.7514H35.04375Z"/>
</clipPath>
<clipPath id="clip_7">
<path transform="matrix(1,0,0,-1,0,107.5139)" d="M35.04375 33.9914H242.94374V84.7514H35.04375Z"/>
</clipPath>
<clipPath id="clip_8">
<path transform="matrix(1,0,0,-1,0,107.5139)" d="M35.04375 33.9914H242.94374V84.7514H35.04375Z"/>
</clipPath>
<clipPath id="clip_9">
<path transform="matrix(1,0,0,-1,0,107.5139)" d="M35.04375 33.9914H242.94374V84.7514H35.04375Z"/>
</clipPath>
<clipPath id="clip_10">
<path transform="matrix(1,0,0,-1,0,107.5139)" d="M35.04375 33.9914H242.94374V84.7514H35.04375Z"/>
</clipPath>
<clipPath id="clip_11">
<path transform="matrix(1,0,0,-1,0,107.5139)" d="M35.04375 33.9914H242.94374V84.7514H35.04375Z"/>
</clipPath>
<clipPath id="clip_12">
<path transform="matrix(1,0,0,-1,0,107.5139)" d="M35.04375 33.9914H242.94374V84.7514H35.04375Z"/>
</clipPath>
<clipPath id="clip_13">
<path transform="matrix(1,0,0,-1,0,107.5139)" d="M35.04375 33.9914H242.94374V84.7514H35.04375Z"/>
</clipPath>
<clipPath id="clip_14">
<path transform="matrix(1,0,0,-1,0,107.5139)" d="M35.04375 33.9914H242.94374V84.7514H35.04375Z"/>
</clipPath>
<clipPath id="clip_15">
<path transform="matrix(1,0,0,-1,0,107.5139)" d="M35.04375 33.9914H242.94374V84.7514H35.04375Z"/>
</clipPath>
<clipPath id="clip_16">
<path transform="matrix(1,0,0,-1,0,107.5139)" d="M35.04375 33.9914H242.94374V84.7514H35.04375Z"/>
</clipPath>
<clipPath id="clip_17">
<path transform="matrix(1,0,0,-1,0,107.5139)" d="M35.04375 33.9914H242.94374V84.7514H35.04375Z"/>
</clipPath>
<clipPath id="clip_18">
<path transform="matrix(1,0,0,-1,0,107.5139)" d="M35.04375 33.9914H242.94374V84.7514H35.04375Z"/>
</clipPath>
<clipPath id="clip_19">
<path transform="matrix(1,0,0,-1,0,107.5139)" d="M35.04375 33.9914H242.94374V84.7514H35.04375Z"/>
</clipPath>
<clipPath id="clip_20">
<path transform="matrix(1,0,0,-1,0,107.5139)" d="M35.04375 33.9914H242.94374V84.7514H35.04375Z"/>
</clipPath>
<clipPath id="clip_21">
<path transform="matrix(1,0,0,-1,0,107.5139)" d="M35.04375 33.9914H242.94374V84.7514H35.04375Z"/>
</clipPath>
<clipPath id="clip_22">
<path transform="matrix(1,0,0,-1,0,107.5139)" d="M35.04375 33.9914H242.94374V84.7514H35.04375Z"/>
</clipPath>
<clipPath id="clip_23">
<path transform="matrix(1,0,0,-1,0,107.5139)" d="M35.04375 33.9914H242.94374V84.7514H35.04375Z"/>
</clipPath>
<clipPath id="clip_24">
<path transform="matrix(1,0,0,-1,0,107.5139)" d="M35.04375 33.9914H242.94374V84.7514H35.04375Z"/>
</clipPath>
<clipPath id="clip_25">
<path transform="matrix(1,0,0,-1,0,107.5139)" d="M35.04375 33.9914H242.94374V84.7514H35.04375Z"/>
</clipPath>
<clipPath id="clip_26">
<path transform="matrix(1,0,0,-1,0,107.5139)" d="M35.04375 33.9914H242.94374V84.7514H35.04375Z"/>
</clipPath>
<clipPath id="clip_27">
<path transform="matrix(1,0,0,-1,0,107.5139)" d="M35.04375 33.9914H242.94374V84.7514H35.04375Z"/>
</clipPath>
<clipPath id="clip_28">
<path transform="matrix(1,0,0,-1,0,107.5139)" d="M35.04375 33.9914H242.94374V84.7514H35.04375Z"/>
</clipPath>
<clipPath id="clip_29">
<path transform="matrix(1,0,0,-1,0,107.5139)" d="M35.04375 33.9914H242.94374V84.7514H35.04375Z"/>
</clipPath>
<clipPath id="clip_30">
<path transform="matrix(1,0,0,-1,0,107.5139)" d="M35.04375 33.9914H242.94374V84.7514H35.04375Z"/>
</clipPath>
<clipPath id="clip_31">
<path transform="matrix(1,0,0,-1,0,107.5139)" d="M35.04375 33.9914H242.94374V84.7514H35.04375Z"/>
</clipPath>
<clipPath id="clip_32">
<path transform="matrix(1,0,0,-1,0,107.5139)" d="M35.04375 33.9914H242.94374V84.7514H35.04375Z"/>
</clipPath>
<clipPath id="clip_33">
<path transform="matrix(1,0,0,-1,0,107.5139)" d="M35.04375 33.9914H242.94374V84.7514H35.04375Z"/>
</clipPath>
<clipPath id="clip_34">
<path transform="matrix(1,0,0,-1,0,107.5139)" d="M35.04375 33.9914H242.94374V84.7514H35.04375Z"/>
</clipPath>
<clipPath id="clip_35">
<path transform="matrix(1,0,0,-1,0,107.5139)" d="M35.04375 33.9914H242.94374V84.7514H35.04375Z"/>
</clipPath>
<clipPath id="clip_36">
<path transform="matrix(1,0,0,-1,0,107.5139)" d="M35.04375 33.9914H242.94374V84.7514H35.04375Z"/>
</clipPath>
</defs>
<path transform="matrix(1,0,0,-1,0,107.5139)" d="M0 0H250.14376V107.5139H0Z" fill="#ffffff"/>
<path transform="matrix(1,0,0,-1,0,107.5139)" d="M35.04375 33.9914H242.94376V84.7514H35.04375Z" fill="#ffffff"/>
<g clip-path="url(#clip_1)">
<path transform="matrix(1,0,0,-1,0,107.5139)" stroke-width=".8" stroke-linecap="square" stroke-linejoin="round" fill="none" stroke="#6a0dad" stroke-opacity=".22" d="M39.11297 33.9914V84.7514"/>
</g>
<path transform="matrix(1,0,0,-1,0,107.5139)" d="M39.11297 33.9914V31.9914"/>
<path transform="matrix(1,0,0,-1,0,107.5139)" stroke-width=".8" stroke-linecap="butt" stroke-linejoin="round" fill="none" stroke="#000000" d="M39.11297 33.9914V31.9914"/>
<text xml:space="preserve" transform="matrix(1 0 -0 1 37.605157 82.819377)" font-size="4.8" font-family="DejaVuSans"><tspan y="0" x="0">0</tspan></text>
<g clip-path="url(#clip_2)">
<path transform="matrix(1,0,0,-1,0,107.5139)" stroke-width=".8" stroke-linecap="square" stroke-linejoin="round" fill="none" stroke="#6a0dad" stroke-opacity=".22" d="M76.10585 33.9914V84.7514"/>
</g>
<path transform="matrix(1,0,0,-1,0,107.5139)" d="M76.10585 33.9914V31.9914"/>
<path transform="matrix(1,0,0,-1,0,107.5139)" stroke-width=".8" stroke-linecap="butt" stroke-linejoin="round" fill="none" stroke="#000000" d="M76.10585 33.9914V31.9914"/>
<text xml:space="preserve" transform="matrix(1 0 -0 1 74.59804 82.819377)" font-size="4.8" font-family="DejaVuSans"><tspan y="0" x="0">5</tspan></text>
<g clip-path="url(#clip_3)">
<path transform="matrix(1,0,0,-1,0,107.5139)" stroke-width=".8" stroke-linecap="square" stroke-linejoin="round" fill="none" stroke="#6a0dad" stroke-opacity=".22" d="M113.09873 33.9914V84.7514"/>
</g>
<path transform="matrix(1,0,0,-1,0,107.5139)" d="M113.09873 33.9914V31.9914"/>
<path transform="matrix(1,0,0,-1,0,107.5139)" stroke-width=".8" stroke-linecap="butt" stroke-linejoin="round" fill="none" stroke="#000000" d="M113.09873 33.9914V31.9914"/>
<text xml:space="preserve" transform="matrix(1 0 -0 1 110.08311 82.819377)" font-size="4.8" font-family="DejaVuSans"><tspan y="0" x="0 3.0528005">10</tspan></text>
<g clip-path="url(#clip_4)">
<path transform="matrix(1,0,0,-1,0,107.5139)" stroke-width=".8" stroke-linecap="square" stroke-linejoin="round" fill="none" stroke="#6a0dad" stroke-opacity=".22" d="M150.09162 33.9914V84.7514"/>
</g>
<path transform="matrix(1,0,0,-1,0,107.5139)" d="M150.09162 33.9914V31.9914"/>
<path transform="matrix(1,0,0,-1,0,107.5139)" stroke-width=".8" stroke-linecap="butt" stroke-linejoin="round" fill="none" stroke="#000000" d="M150.09162 33.9914V31.9914"/>
<text xml:space="preserve" transform="matrix(1 0 -0 1 147.07599 82.819377)" font-size="4.8" font-family="DejaVuSans"><tspan y="0" x="0 3.0528005">15</tspan></text>
<g clip-path="url(#clip_5)">
<path transform="matrix(1,0,0,-1,0,107.5139)" stroke-width=".8" stroke-linecap="square" stroke-linejoin="round" fill="none" stroke="#6a0dad" stroke-opacity=".22" d="M187.0845 33.9914V84.7514"/>
</g>
<path transform="matrix(1,0,0,-1,0,107.5139)" d="M187.0845 33.9914V31.9914"/>
<path transform="matrix(1,0,0,-1,0,107.5139)" stroke-width=".8" stroke-linecap="butt" stroke-linejoin="round" fill="none" stroke="#000000" d="M187.0845 33.9914V31.9914"/>
<text xml:space="preserve" transform="matrix(1 0 -0 1 184.06888 82.819377)" font-size="4.8" font-family="DejaVuSans"><tspan y="0" x="0 3.0528005">20</tspan></text>
<g clip-path="url(#clip_6)">
<path transform="matrix(1,0,0,-1,0,107.5139)" stroke-width=".8" stroke-linecap="square" stroke-linejoin="round" fill="none" stroke="#6a0dad" stroke-opacity=".22" d="M224.07738 33.9914V84.7514"/>
</g>
<path transform="matrix(1,0,0,-1,0,107.5139)" d="M224.07738 33.9914V31.9914"/>
<path transform="matrix(1,0,0,-1,0,107.5139)" stroke-width=".8" stroke-linecap="butt" stroke-linejoin="round" fill="none" stroke="#000000" d="M224.07738 33.9914V31.9914"/>
<text xml:space="preserve" transform="matrix(1 0 -0 1 221.06175 82.819377)" font-size="4.8" font-family="DejaVuSans"><tspan y="0" x="0 3.0528005">25</tspan></text>
<text xml:space="preserve" transform="matrix(1 0 -0 1 132.025 90.663127)" font-size="5" font-family="DejaVuSans"><tspan y="0" x="0 2.7850004 5.8500006 8.81 11.885">Layer</tspan></text>
<path transform="matrix(1,0,0,-1,0,107.5139)" d="M35.04375 79.42979H33.04375"/>
<path transform="matrix(1,0,0,-1,0,107.5139)" stroke-width=".8" stroke-linecap="butt" stroke-linejoin="round" fill="none" stroke="#000000" d="M35.04375 79.42979H33.04375"/>
<text xml:space="preserve" transform="matrix(1 0 -0 1 17.98125 29.982552)" font-size="4.7" font-family="DejaVuSans"><tspan y="0" x="0 3.2242 6.1053 8.554">Base</tspan></text>
<path transform="matrix(1,0,0,-1,0,107.5139)" d="M35.04375 71.24269H33.04375"/>
<path transform="matrix(1,0,0,-1,0,107.5139)" stroke-width=".8" stroke-linecap="butt" stroke-linejoin="round" fill="none" stroke="#000000" d="M35.04375 71.24269H33.04375"/>
<text xml:space="preserve" transform="matrix(1 0 -0 1 20.79375 38.169649)" font-size="4.7" font-family="DejaVuSans"><tspan y="0" x="0 1.3865 4.3663 6.815">Inst</tspan></text>
<path transform="matrix(1,0,0,-1,0,107.5139)" d="M35.04375 63.055597H33.04375"/>
<path transform="matrix(1,0,0,-1,0,107.5139)" stroke-width=".8" stroke-linecap="butt" stroke-linejoin="round" fill="none" stroke="#000000" d="M35.04375 63.055597H33.04375"/>
<text xml:space="preserve" transform="matrix(1 0 -0 1 17.66875 46.356744)" font-size="4.7" font-family="DejaVuSans"><tspan y="0" x="0 4.0561 6.9371998 8.7796">Math</tspan></text>
<path transform="matrix(1,0,0,-1,0,107.5139)" d="M35.04375 54.868497H33.04375"/>
<path transform="matrix(1,0,0,-1,0,107.5139)" stroke-width=".8" stroke-linecap="butt" stroke-linejoin="round" fill="none" stroke="#000000" d="M35.04375 54.868497H33.04375"/>
<text xml:space="preserve" transform="matrix(1 0 -0 1 7.2 54.543844)" font-size="4.7" font-family="DejaVuSans"><tspan y="0" x="0 4.0561 6.9371998 8.7796 11.7594 13.4561 14.842601 17.822402 20.271101">Math-Inst</tspan></text>
<path transform="matrix(1,0,0,-1,0,107.5139)" d="M35.04375 46.6814H33.04375"/>
<path transform="matrix(1,0,0,-1,0,107.5139)" stroke-width=".8" stroke-linecap="butt" stroke-linejoin="round" fill="none" stroke="#000000" d="M35.04375 46.6814H33.04375"/>
<text xml:space="preserve" transform="matrix(1 0 -0 1 15.434375 62.730939)" font-size="4.7" font-family="DejaVuSans"><tspan y="0" x="0 3.2805999 6.1569998 9.1414999 12.032">Coder</tspan></text>
<path transform="matrix(1,0,0,-1,0,107.5139)" d="M35.04375 38.494306H33.04375"/>
<path transform="matrix(1,0,0,-1,0,107.5139)" stroke-width=".8" stroke-linecap="butt" stroke-linejoin="round" fill="none" stroke="#000000" d="M35.04375 38.494306H33.04375"/>
<text xml:space="preserve" transform="matrix(1 0 -0 1 14.840625 70.91803)" font-size="4.7" font-family="DejaVuSans"><tspan y="0" x="0 3.619 6.6035006 8.3002 11.5667">DS-R1</tspan></text>
<path transform="matrix(1,0,0,-1,0,107.5139)" stroke-width=".8" stroke-linecap="square" stroke-miterlimit="10" stroke-linejoin="miter" fill="none" stroke="#000000" d="M35.04375 33.9914V84.7514"/>
<path transform="matrix(1,0,0,-1,0,107.5139)" stroke-width=".8" stroke-linecap="square" stroke-miterlimit="10" stroke-linejoin="miter" fill="none" stroke="#000000" d="M242.94376 33.9914V84.7514"/>
<path transform="matrix(1,0,0,-1,0,107.5139)" stroke-width=".8" stroke-linecap="square" stroke-miterlimit="10" stroke-linejoin="miter" fill="none" stroke="#000000" d="M35.04375 33.9914H242.94376"/>
<path transform="matrix(1,0,0,-1,0,107.5139)" stroke-width=".8" stroke-linecap="square" stroke-miterlimit="10" stroke-linejoin="miter" fill="none" stroke="#000000" d="M35.04375 84.7514H242.94376"/>
<g clip-path="url(#clip_7)">
<g>
<path transform="matrix(1,0,0,-1,0,107.5139)" d="M179.68593 76.98029C180.33553 76.98029 180.95864 77.23839 181.41797 77.69774 181.87732 78.15708 182.1354 78.780178 182.1354 79.42979 182.1354 80.0794 181.87732 80.70249 181.41797 81.161838 180.95864 81.621189 180.33553 81.87928 179.68593 81.87928 179.03632 81.87928 178.41321 81.621189 177.95388 81.161838 177.49452 80.70249 177.23644 80.0794 177.23644 79.42979 177.23644 78.780178 177.49452 78.15708 177.95388 77.69774 178.41321 77.23839 179.03632 76.98029 179.68593 76.98029Z" fill="#c77df3" fill-opacity=".9"/>
<path transform="matrix(1,0,0,-1,0,107.5139)" stroke-width=".7" stroke-linecap="butt" stroke-linejoin="round" fill="none" stroke="#ffffff" stroke-opacity=".9" d="M179.68593 76.98029C180.33553 76.98029 180.95864 77.23839 181.41797 77.69774 181.87732 78.15708 182.1354 78.780178 182.1354 79.42979 182.1354 80.0794 181.87732 80.70249 181.41797 81.161838 180.95864 81.621189 180.33553 81.87928 179.68593 81.87928 179.03632 81.87928 178.41321 81.621189 177.95388 81.161838 177.49452 80.70249 177.23644 80.0794 177.23644 79.42979 177.23644 78.780178 177.49452 78.15708 177.95388 77.69774 178.41321 77.23839 179.03632 76.98029 179.68593 76.98029Z"/>
</g>
</g>
<g clip-path="url(#clip_8)">
<g>
<path transform="matrix(1,0,0,-1,0,107.5139)" d="M187.0845 76.98029C187.73412 76.98029 188.35721 77.23839 188.81655 77.69774 189.2759 78.15708 189.53398 78.780178 189.53398 79.42979 189.53398 80.0794 189.2759 80.70249 188.81655 81.161838 188.35721 81.621189 187.73412 81.87928 187.0845 81.87928 186.43489 81.87928 185.8118 81.621189 185.35245 81.161838 184.8931 80.70249 184.63501 80.0794 184.63501 79.42979 184.63501 78.780178 184.8931 78.15708 185.35245 77.69774 185.8118 77.23839 186.43489 76.98029 187.0845 76.98029Z" fill="#c77df3" fill-opacity=".9"/>
<path transform="matrix(1,0,0,-1,0,107.5139)" stroke-width=".7" stroke-linecap="butt" stroke-linejoin="round" fill="none" stroke="#ffffff" stroke-opacity=".9" d="M187.0845 76.98029C187.73412 76.98029 188.35721 77.23839 188.81655 77.69774 189.2759 78.15708 189.53398 78.780178 189.53398 79.42979 189.53398 80.0794 189.2759 80.70249 188.81655 81.161838 188.35721 81.621189 187.73412 81.87928 187.0845 81.87928 186.43489 81.87928 185.8118 81.621189 185.35245 81.161838 184.8931 80.70249 184.63501 80.0794 184.63501 79.42979 184.63501 78.780178 184.8931 78.15708 185.35245 77.69774 185.8118 77.23839 186.43489 76.98029 187.0845 76.98029Z"/>
</g>
</g>
<g clip-path="url(#clip_9)">
<g>
<path transform="matrix(1,0,0,-1,0,107.5139)" d="M113.09873 76.98029C113.748348 76.98029 114.37144 77.23839 114.83078 77.69774 115.29013 78.15708 115.548229 78.780178 115.548229 79.42979 115.548229 80.0794 115.29013 80.70249 114.83078 81.161838 114.37144 81.621189 113.748348 81.87928 113.09873 81.87928 112.44912 81.87928 111.82603 81.621189 111.366687 81.161838 110.90733 80.70249 110.64924 80.0794 110.64924 79.42979 110.64924 78.780178 110.90733 78.15708 111.366687 77.69774 111.82603 77.23839 112.44912 76.98029 113.09873 76.98029Z" fill="#c77df3" fill-opacity=".9"/>
<path transform="matrix(1,0,0,-1,0,107.5139)" stroke-width=".7" stroke-linecap="butt" stroke-linejoin="round" fill="none" stroke="#ffffff" stroke-opacity=".9" d="M113.09873 76.98029C113.748348 76.98029 114.37144 77.23839 114.83078 77.69774 115.29013 78.15708 115.548229 78.780178 115.548229 79.42979 115.548229 80.0794 115.29013 80.70249 114.83078 81.161838 114.37144 81.621189 113.748348 81.87928 113.09873 81.87928 112.44912 81.87928 111.82603 81.621189 111.366687 81.161838 110.90733 80.70249 110.64924 80.0794 110.64924 79.42979 110.64924 78.780178 110.90733 78.15708 111.366687 77.69774 111.82603 77.23839 112.44912 76.98029 113.09873 76.98029Z"/>
</g>
</g>
<g clip-path="url(#clip_10)">
<g>
<path transform="matrix(1,0,0,-1,0,107.5139)" d="M231.47595 76.98029C232.12557 76.98029 232.74866 77.23839 233.20801 77.69774 233.66736 78.15708 233.92545 78.780178 233.92545 79.42979 233.92545 80.0794 233.66736 80.70249 233.20801 81.161838 232.74866 81.621189 232.12557 81.87928 231.47595 81.87928 230.82634 81.87928 230.20325 81.621189 229.74391 81.161838 229.28456 80.70249 229.02648 80.0794 229.02648 79.42979 229.02648 78.780178 229.28456 78.15708 229.74391 77.69774 230.20325 77.23839 230.82634 76.98029 231.47595 76.98029Z" fill="#c77df3" fill-opacity=".9"/>
<path transform="matrix(1,0,0,-1,0,107.5139)" stroke-width=".7" stroke-linecap="butt" stroke-linejoin="round" fill="none" stroke="#ffffff" stroke-opacity=".9" d="M231.47595 76.98029C232.12557 76.98029 232.74866 77.23839 233.20801 77.69774 233.66736 78.15708 233.92545 78.780178 233.92545 79.42979 233.92545 80.0794 233.66736 80.70249 233.20801 81.161838 232.74866 81.621189 232.12557 81.87928 231.47595 81.87928 230.82634 81.87928 230.20325 81.621189 229.74391 81.161838 229.28456 80.70249 229.02648 80.0794 229.02648 79.42979 229.02648 78.780178 229.28456 78.15708 229.74391 77.69774 230.20325 77.23839 230.82634 76.98029 231.47595 76.98029Z"/>
</g>
</g>
<g clip-path="url(#clip_11)">
<g>
<path transform="matrix(1,0,0,-1,0,107.5139)" d="M105.70016 76.98029C106.34977 76.98029 106.97286 77.23839 107.432209 77.69774 107.891559 78.15708 108.14964 78.780178 108.14964 79.42979 108.14964 80.0794 107.891559 80.70249 107.432209 81.161838 106.97286 81.621189 106.34977 81.87928 105.70016 81.87928 105.050548 81.87928 104.42745 81.621189 103.9681 81.161838 103.50876 80.70249 103.25066 80.0794 103.25066 79.42979 103.25066 78.780178 103.50876 78.15708 103.9681 77.69774 104.42745 77.23839 105.050548 76.98029 105.70016 76.98029Z" fill="#c77df3" fill-opacity=".9"/>
<path transform="matrix(1,0,0,-1,0,107.5139)" stroke-width=".7" stroke-linecap="butt" stroke-linejoin="round" fill="none" stroke="#ffffff" stroke-opacity=".9" d="M105.70016 76.98029C106.34977 76.98029 106.97286 77.23839 107.432209 77.69774 107.891559 78.15708 108.14964 78.780178 108.14964 79.42979 108.14964 80.0794 107.891559 80.70249 107.432209 81.161838 106.97286 81.621189 106.34977 81.87928 105.70016 81.87928 105.050548 81.87928 104.42745 81.621189 103.9681 81.161838 103.50876 80.70249 103.25066 80.0794 103.25066 79.42979 103.25066 78.780178 103.50876 78.15708 103.9681 77.69774 104.42745 77.23839 105.050548 76.98029 105.70016 76.98029Z"/>
</g>
</g>
<g clip-path="url(#clip_12)">
<g>
<path transform="matrix(1,0,0,-1,0,107.5139)" d="M142.69304 68.7932C143.34265 68.7932 143.96575 69.05129 144.4251 69.51064 144.88443 69.969989 145.14253 70.59308 145.14253 71.24269 145.14253 71.8923 144.88443 72.515399 144.4251 72.97474 143.96575 73.43409 143.34265 73.69218 142.69304 73.69218 142.04343 73.69218 141.42034 73.43409 140.96099 72.97474 140.50165 72.515399 140.24355 71.8923 140.24355 71.24269 140.24355 70.59308 140.50165 69.969989 140.96099 69.51064 141.42034 69.05129 142.04343 68.7932 142.69304 68.7932Z" fill="#c77df3" fill-opacity=".9"/>
<path transform="matrix(1,0,0,-1,0,107.5139)" stroke-width=".7" stroke-linecap="butt" stroke-linejoin="round" fill="none" stroke="#ffffff" stroke-opacity=".9" d="M142.69304 68.7932C143.34265 68.7932 143.96575 69.05129 144.4251 69.51064 144.88443 69.969989 145.14253 70.59308 145.14253 71.24269 145.14253 71.8923 144.88443 72.515399 144.4251 72.97474 143.96575 73.43409 143.34265 73.69218 142.69304 73.69218 142.04343 73.69218 141.42034 73.43409 140.96099 72.97474 140.50165 72.515399 140.24355 71.8923 140.24355 71.24269 140.24355 70.59308 140.50165 69.969989 140.96099 69.51064 141.42034 69.05129 142.04343 68.7932 142.69304 68.7932Z"/>
</g>
</g>
<g clip-path="url(#clip_13)">
<g>
<path transform="matrix(1,0,0,-1,0,107.5139)" d="M209.28023 68.7932C209.92984 68.7932 210.55294 69.05129 211.01229 69.51064 211.47162 69.969989 211.72972 70.59308 211.72972 71.24269 211.72972 71.8923 211.47162 72.515399 211.01229 72.97474 210.55294 73.43409 209.92984 73.69218 209.28023 73.69218 208.63062 73.69218 208.00753 73.43409 207.54817 72.97474 207.08884 72.515399 206.83074 71.8923 206.83074 71.24269 206.83074 70.59308 207.08884 69.969989 207.54817 69.51064 208.00753 69.05129 208.63062 68.7932 209.28023 68.7932Z" fill="#c77df3" fill-opacity=".9"/>
<path transform="matrix(1,0,0,-1,0,107.5139)" stroke-width=".7" stroke-linecap="butt" stroke-linejoin="round" fill="none" stroke="#ffffff" stroke-opacity=".9" d="M209.28023 68.7932C209.92984 68.7932 210.55294 69.05129 211.01229 69.51064 211.47162 69.969989 211.72972 70.59308 211.72972 71.24269 211.72972 71.8923 211.47162 72.515399 211.01229 72.97474 210.55294 73.43409 209.92984 73.69218 209.28023 73.69218 208.63062 73.69218 208.00753 73.43409 207.54817 72.97474 207.08884 72.515399 206.83074 71.8923 206.83074 71.24269 206.83074 70.59308 207.08884 69.969989 207.54817 69.51064 208.00753 69.05129 208.63062 68.7932 209.28023 68.7932Z"/>
</g>
</g>
<g clip-path="url(#clip_14)">
<g>
<path transform="matrix(1,0,0,-1,0,107.5139)" d="M120.49731 68.7932C121.14692 68.7932 121.77001 69.05129 122.22936 69.51064 122.688709 69.969989 122.9468 70.59308 122.9468 71.24269 122.9468 71.8923 122.688709 72.515399 122.22936 72.97474 121.77001 73.43409 121.14692 73.69218 120.49731 73.69218 119.847698 73.69218 119.2246 73.43409 118.76526 72.97474 118.305919 72.515399 118.04782 71.8923 118.04782 71.24269 118.04782 70.59308 118.305919 69.969989 118.76526 69.51064 119.2246 69.05129 119.847698 68.7932 120.49731 68.7932Z" fill="#c77df3" fill-opacity=".9"/>
<path transform="matrix(1,0,0,-1,0,107.5139)" stroke-width=".7" stroke-linecap="butt" stroke-linejoin="round" fill="none" stroke="#ffffff" stroke-opacity=".9" d="M120.49731 68.7932C121.14692 68.7932 121.77001 69.05129 122.22936 69.51064 122.688709 69.969989 122.9468 70.59308 122.9468 71.24269 122.9468 71.8923 122.688709 72.515399 122.22936 72.97474 121.77001 73.43409 121.14692 73.69218 120.49731 73.69218 119.847698 73.69218 119.2246 73.43409 118.76526 72.97474 118.305919 72.515399 118.04782 71.8923 118.04782 71.24269 118.04782 70.59308 118.305919 69.969989 118.76526 69.51064 119.2246 69.05129 119.847698 68.7932 120.49731 68.7932Z"/>
</g>
</g>
<g clip-path="url(#clip_15)">
<g>
<path transform="matrix(1,0,0,-1,0,107.5139)" d="M172.28734 68.7932C172.93695 68.7932 173.56005 69.05129 174.0194 69.51064 174.47875 69.969989 174.73683 70.59308 174.73683 71.24269 174.73683 71.8923 174.47875 72.515399 174.0194 72.97474 173.56005 73.43409 172.93695 73.69218 172.28734 73.69218 171.63773 73.69218 171.01464 73.43409 170.5553 72.97474 170.09595 72.515399 169.83786 71.8923 169.83786 71.24269 169.83786 70.59308 170.09595 69.969989 170.5553 69.51064 171.01464 69.05129 171.63773 68.7932 172.28734 68.7932Z" fill="#c77df3" fill-opacity=".9"/>
<path transform="matrix(1,0,0,-1,0,107.5139)" stroke-width=".7" stroke-linecap="butt" stroke-linejoin="round" fill="none" stroke="#ffffff" stroke-opacity=".9" d="M172.28734 68.7932C172.93695 68.7932 173.56005 69.05129 174.0194 69.51064 174.47875 69.969989 174.73683 70.59308 174.73683 71.24269 174.73683 71.8923 174.47875 72.515399 174.0194 72.97474 173.56005 73.43409 172.93695 73.69218 172.28734 73.69218 171.63773 73.69218 171.01464 73.43409 170.5553 72.97474 170.09595 72.515399 169.83786 71.8923 169.83786 71.24269 169.83786 70.59308 170.09595 69.969989 170.5553 69.51064 171.01464 69.05129 171.63773 68.7932 172.28734 68.7932Z"/>
</g>
</g>
<g clip-path="url(#clip_16)">
<g>
<path transform="matrix(1,0,0,-1,0,107.5139)" d="M68.707279 68.7932C69.35689 68.7932 69.97998 69.05129 70.43932 69.51064 70.89867 69.969989 71.15676 70.59308 71.15676 71.24269 71.15676 71.8923 70.89867 72.515399 70.43932 72.97474 69.97998 73.43409 69.35689 73.69218 68.707279 73.69218 68.05766 73.69218 67.43457 73.43409 66.97522 72.97474 66.51588 72.515399 66.25778 71.8923 66.25778 71.24269 66.25778 70.59308 66.51588 69.969989 66.97522 69.51064 67.43457 69.05129 68.05766 68.7932 68.707279 68.7932Z" fill="#c77df3" fill-opacity=".9"/>
<path transform="matrix(1,0,0,-1,0,107.5139)" stroke-width=".7" stroke-linecap="butt" stroke-linejoin="round" fill="none" stroke="#ffffff" stroke-opacity=".9" d="M68.707279 68.7932C69.35689 68.7932 69.97998 69.05129 70.43932 69.51064 70.89867 69.969989 71.15676 70.59308 71.15676 71.24269 71.15676 71.8923 70.89867 72.515399 70.43932 72.97474 69.97998 73.43409 69.35689 73.69218 68.707279 73.69218 68.05766 73.69218 67.43457 73.43409 66.97522 72.97474 66.51588 72.515399 66.25778 71.8923 66.25778 71.24269 66.25778 70.59308 66.51588 69.969989 66.97522 69.51064 67.43457 69.05129 68.05766 68.7932 68.707279 68.7932Z"/>
</g>
</g>
<g clip-path="url(#clip_17)">
<g>
<path transform="matrix(1,0,0,-1,0,107.5139)" d="M83.504428 60.606107C84.15404 60.606107 84.77713 60.864198 85.23648 61.323545 85.69582 61.782888 85.95392 62.40598 85.95392 63.055597 85.95392 63.705209 85.69582 64.3283 85.23648 64.78764 84.77713 65.24699 84.15404 65.50508 83.504428 65.50508 82.85481 65.50508 82.23172 65.24699 81.77238 64.78764 81.31303 64.3283 81.05494 63.705209 81.05494 63.055597 81.05494 62.40598 81.31303 61.782888 81.77238 61.323545 82.23172 60.864198 82.85481 60.606107 83.504428 60.606107Z" fill="#c77df3" fill-opacity=".9"/>
<path transform="matrix(1,0,0,-1,0,107.5139)" stroke-width=".7" stroke-linecap="butt" stroke-linejoin="round" fill="none" stroke="#ffffff" stroke-opacity=".9" d="M83.504428 60.606107C84.15404 60.606107 84.77713 60.864198 85.23648 61.323545 85.69582 61.782888 85.95392 62.40598 85.95392 63.055597 85.95392 63.705209 85.69582 64.3283 85.23648 64.78764 84.77713 65.24699 84.15404 65.50508 83.504428 65.50508 82.85481 65.50508 82.23172 65.24699 81.77238 64.78764 81.31303 64.3283 81.05494 63.705209 81.05494 63.055597 81.05494 62.40598 81.31303 61.782888 81.77238 61.323545 82.23172 60.864198 82.85481 60.606107 83.504428 60.606107Z"/>
</g>
</g>
<g clip-path="url(#clip_18)">
<g>
<path transform="matrix(1,0,0,-1,0,107.5139)" d="M238.87453 60.606107C239.52414 60.606107 240.14723 60.864198 240.60659 61.323545 241.06594 61.782888 241.32402 62.40598 241.32402 63.055597 241.32402 63.705209 241.06594 64.3283 240.60659 64.78764 240.14723 65.24699 239.52414 65.50508 238.87453 65.50508 238.22492 65.50508 237.60182 65.24699 237.14249 64.78764 236.68314 64.3283 236.42505 63.705209 236.42505 63.055597 236.42505 62.40598 236.68314 61.782888 237.14249 61.323545 237.60182 60.864198 238.22492 60.606107 238.87453 60.606107Z" fill="#c77df3" fill-opacity=".9"/>
<path transform="matrix(1,0,0,-1,0,107.5139)" stroke-width=".7" stroke-linecap="butt" stroke-linejoin="round" fill="none" stroke="#ffffff" stroke-opacity=".9" d="M238.87453 60.606107C239.52414 60.606107 240.14723 60.864198 240.60659 61.323545 241.06594 61.782888 241.32402 62.40598 241.32402 63.055597 241.32402 63.705209 241.06594 64.3283 240.60659 64.78764 240.14723 65.24699 239.52414 65.50508 238.87453 65.50508 238.22492 65.50508 237.60182 65.24699 237.14249 64.78764 236.68314 64.3283 236.42505 63.705209 236.42505 63.055597 236.42505 62.40598 236.68314 61.782888 237.14249 61.323545 237.60182 60.864198 238.22492 60.606107 238.87453 60.606107Z"/>
</g>
</g>
<g clip-path="url(#clip_19)">
<g>
<path transform="matrix(1,0,0,-1,0,107.5139)" d="M224.07738 60.606107C224.72699 60.606107 225.35009 60.864198 225.80944 61.323545 226.26879 61.782888 226.52687 62.40598 226.52687 63.055597 226.52687 63.705209 226.26879 64.3283 225.80944 64.78764 225.35009 65.24699 224.72699 65.50508 224.07738 65.50508 223.42777 65.50508 222.80467 65.24699 222.34532 64.78764 221.88599 64.3283 221.62789 63.705209 221.62789 63.055597 221.62789 62.40598 221.88599 61.782888 222.34532 61.323545 222.80467 60.864198 223.42777 60.606107 224.07738 60.606107Z" fill="#c77df3" fill-opacity=".9"/>
<path transform="matrix(1,0,0,-1,0,107.5139)" stroke-width=".7" stroke-linecap="butt" stroke-linejoin="round" fill="none" stroke="#ffffff" stroke-opacity=".9" d="M224.07738 60.606107C224.72699 60.606107 225.35009 60.864198 225.80944 61.323545 226.26879 61.782888 226.52687 62.40598 226.52687 63.055597 226.52687 63.705209 226.26879 64.3283 225.80944 64.78764 225.35009 65.24699 224.72699 65.50508 224.07738 65.50508 223.42777 65.50508 222.80467 65.24699 222.34532 64.78764 221.88599 64.3283 221.62789 63.705209 221.62789 63.055597 221.62789 62.40598 221.88599 61.782888 222.34532 61.323545 222.80467 60.864198 223.42777 60.606107 224.07738 60.606107Z"/>
</g>
</g>
<g clip-path="url(#clip_20)">
<g>
<path transform="matrix(1,0,0,-1,0,107.5139)" d="M179.68593 66.1378 178.99393 64.00805H176.75457L178.56624 62.691789 177.87425 60.562036 179.68593 61.878297 181.4976 60.562036 180.8056 62.691789 182.61728 64.00805H180.37792Z" fill="#6a0dad" fill-opacity=".9"/>
<path transform="matrix(1,0,0,-1,0,107.5139)" stroke-width=".7" stroke-linecap="butt" stroke-linejoin="round" fill="none" stroke="#ffffff" stroke-opacity=".9" d="M179.68593 66.1378 178.99393 64.00805H176.75457L178.56624 62.691789 177.87425 60.562036 179.68593 61.878297 181.4976 60.562036 180.8056 62.691789 182.61728 64.00805H180.37792Z"/>
</g>
</g>
<g clip-path="url(#clip_21)">
<g>
<path transform="matrix(1,0,0,-1,0,107.5139)" d="M53.91012 66.1378 53.21812 64.00805H50.978769L52.790445 62.691789 52.098447 60.562036 53.91012 61.878297 55.721796 60.562036 55.029798 62.691789 56.841474 64.00805H54.60212Z" fill="#6a0dad" fill-opacity=".9"/>
<path transform="matrix(1,0,0,-1,0,107.5139)" stroke-width=".7" stroke-linecap="butt" stroke-linejoin="round" fill="none" stroke="#ffffff" stroke-opacity=".9" d="M53.91012 66.1378 53.21812 64.00805H50.978769L52.790445 62.691789 52.098447 60.562036 53.91012 61.878297 55.721796 60.562036 55.029798 62.691789 56.841474 64.00805H54.60212Z"/>
</g>
</g>
<g clip-path="url(#clip_22)">
<g>
<path transform="matrix(1,0,0,-1,0,107.5139)" d="M142.69304 57.950704 142.00104 55.82095H139.76169L141.57337 54.504693 140.88137 52.37494 142.69304 53.691198 144.50472 52.37494 143.81272 54.504693 145.62439 55.82095H143.38504Z" fill="#6a0dad" fill-opacity=".9"/>
<path transform="matrix(1,0,0,-1,0,107.5139)" stroke-width=".7" stroke-linecap="butt" stroke-linejoin="round" fill="none" stroke="#ffffff" stroke-opacity=".9" d="M142.69304 57.950704 142.00104 55.82095H139.76169L141.57337 54.504693 140.88137 52.37494 142.69304 53.691198 144.50472 52.37494 143.81272 54.504693 145.62439 55.82095H143.38504Z"/>
</g>
</g>
<g clip-path="url(#clip_23)">
<g>
<path transform="matrix(1,0,0,-1,0,107.5139)" d="M83.504428 57.950704 82.81243 55.82095H80.573078L82.38475 54.504693 81.69275 52.37494 83.504428 53.691198 85.3161 52.37494 84.6241 54.504693 86.435779 55.82095H84.19643Z" fill="#6a0dad" fill-opacity=".9"/>
<path transform="matrix(1,0,0,-1,0,107.5139)" stroke-width=".7" stroke-linecap="butt" stroke-linejoin="round" fill="none" stroke="#ffffff" stroke-opacity=".9" d="M83.504428 57.950704 82.81243 55.82095H80.573078L82.38475 54.504693 81.69275 52.37494 83.504428 53.691198 85.3161 52.37494 84.6241 54.504693 86.435779 55.82095H84.19643Z"/>
</g>
</g>
<g clip-path="url(#clip_24)">
<g>
<path transform="matrix(1,0,0,-1,0,107.5139)" d="M238.87453 52.419008C239.52414 52.419008 240.14723 52.6771 240.60659 53.136449 241.06594 53.59579 241.32402 54.218885 241.32402 54.868497 241.32402 55.51811 241.06594 56.1412 240.60659 56.600549 240.14723 57.059896 239.52414 57.317987 238.87453 57.317987 238.22492 57.317987 237.60182 57.059896 237.14249 56.600549 236.68314 56.1412 236.42505 55.51811 236.42505 54.868497 236.42505 54.218885 236.68314 53.59579 237.14249 53.136449 237.60182 52.6771 238.22492 52.419008 238.87453 52.419008Z" fill="#c77df3" fill-opacity=".9"/>
<path transform="matrix(1,0,0,-1,0,107.5139)" stroke-width=".7" stroke-linecap="butt" stroke-linejoin="round" fill="none" stroke="#ffffff" stroke-opacity=".9" d="M238.87453 52.419008C239.52414 52.419008 240.14723 52.6771 240.60659 53.136449 241.06594 53.59579 241.32402 54.218885 241.32402 54.868497 241.32402 55.51811 241.06594 56.1412 240.60659 56.600549 240.14723 57.059896 239.52414 57.317987 238.87453 57.317987 238.22492 57.317987 237.60182 57.059896 237.14249 56.600549 236.68314 56.1412 236.42505 55.51811 236.42505 54.868497 236.42505 54.218885 236.68314 53.59579 237.14249 53.136449 237.60182 52.6771 238.22492 52.419008 238.87453 52.419008Z"/>
</g>
</g>
<g clip-path="url(#clip_25)">
<g>
<path transform="matrix(1,0,0,-1,0,107.5139)" d="M164.88877 52.419008C165.53838 52.419008 166.16147 52.6771 166.62082 53.136449 167.08017 53.59579 167.33826 54.218885 167.33826 54.868497 167.33826 55.51811 167.08017 56.1412 166.62082 56.600549 166.16147 57.059896 165.53838 57.317987 164.88877 57.317987 164.23915 57.317987 163.61606 57.059896 163.15673 56.600549 162.69738 56.1412 162.43929 55.51811 162.43929 54.868497 162.43929 54.218885 162.69738 53.59579 163.15673 53.136449 163.61606 52.6771 164.23915 52.419008 164.88877 52.419008Z" fill="#c77df3" fill-opacity=".9"/>
<path transform="matrix(1,0,0,-1,0,107.5139)" stroke-width=".7" stroke-linecap="butt" stroke-linejoin="round" fill="none" stroke="#ffffff" stroke-opacity=".9" d="M164.88877 52.419008C165.53838 52.419008 166.16147 52.6771 166.62082 53.136449 167.08017 53.59579 167.33826 54.218885 167.33826 54.868497 167.33826 55.51811 167.08017 56.1412 166.62082 56.600549 166.16147 57.059896 165.53838 57.317987 164.88877 57.317987 164.23915 57.317987 163.61606 57.059896 163.15673 56.600549 162.69738 56.1412 162.43929 55.51811 162.43929 54.868497 162.43929 54.218885 162.69738 53.59579 163.15673 53.136449 163.61606 52.6771 164.23915 52.419008 164.88877 52.419008Z"/>
</g>
</g>
<g clip-path="url(#clip_26)">
<g>
<path transform="matrix(1,0,0,-1,0,107.5139)" d="M231.47595 52.419008C232.12557 52.419008 232.74866 52.6771 233.20801 53.136449 233.66736 53.59579 233.92545 54.218885 233.92545 54.868497 233.92545 55.51811 233.66736 56.1412 233.20801 56.600549 232.74866 57.059896 232.12557 57.317987 231.47595 57.317987 230.82634 57.317987 230.20325 57.059896 229.74391 56.600549 229.28456 56.1412 229.02648 55.51811 229.02648 54.868497 229.02648 54.218885 229.28456 53.59579 229.74391 53.136449 230.20325 52.6771 230.82634 52.419008 231.47595 52.419008Z" fill="#c77df3" fill-opacity=".9"/>
<path transform="matrix(1,0,0,-1,0,107.5139)" stroke-width=".7" stroke-linecap="butt" stroke-linejoin="round" fill="none" stroke="#ffffff" stroke-opacity=".9" d="M231.47595 52.419008C232.12557 52.419008 232.74866 52.6771 233.20801 53.136449 233.66736 53.59579 233.92545 54.218885 233.92545 54.868497 233.92545 55.51811 233.66736 56.1412 233.20801 56.600549 232.74866 57.059896 232.12557 57.317987 231.47595 57.317987 230.82634 57.317987 230.20325 57.059896 229.74391 56.600549 229.28456 56.1412 229.02648 55.51811 229.02648 54.868497 229.02648 54.218885 229.28456 53.59579 229.74391 53.136449 230.20325 52.6771 230.82634 52.419008 231.47595 52.419008Z"/>
</g>
</g>
<g clip-path="url(#clip_27)">
<g>
<path transform="matrix(1,0,0,-1,0,107.5139)" d="M164.88877 44.23191C165.53838 44.23191 166.16147 44.490007 166.62082 44.94935 167.08017 45.408697 167.33826 46.031789 167.33826 46.6814 167.33826 47.331014 167.08017 47.954107 166.62082 48.413454 166.16147 48.872797 165.53838 49.13089 164.88877 49.13089 164.23915 49.13089 163.61606 48.872797 163.15673 48.413454 162.69738 47.954107 162.43929 47.331014 162.43929 46.6814 162.43929 46.031789 162.69738 45.408697 163.15673 44.94935 163.61606 44.490007 164.23915 44.23191 164.88877 44.23191Z" fill="#c77df3" fill-opacity=".9"/>
<path transform="matrix(1,0,0,-1,0,107.5139)" stroke-width=".7" stroke-linecap="butt" stroke-linejoin="round" fill="none" stroke="#ffffff" stroke-opacity=".9" d="M164.88877 44.23191C165.53838 44.23191 166.16147 44.490007 166.62082 44.94935 167.08017 45.408697 167.33826 46.031789 167.33826 46.6814 167.33826 47.331014 167.08017 47.954107 166.62082 48.413454 166.16147 48.872797 165.53838 49.13089 164.88877 49.13089 164.23915 49.13089 163.61606 48.872797 163.15673 48.413454 162.69738 47.954107 162.43929 47.331014 162.43929 46.6814 162.43929 46.031789 162.69738 45.408697 163.15673 44.94935 163.61606 44.490007 164.23915 44.23191 164.88877 44.23191Z"/>
</g>
</g>
<g clip-path="url(#clip_28)">
<g>
<path transform="matrix(1,0,0,-1,0,107.5139)" d="M194.48308 44.23191C195.13269 44.23191 195.75579 44.490007 196.21512 44.94935 196.67447 45.408697 196.93257 46.031789 196.93257 46.6814 196.93257 47.331014 196.67447 47.954107 196.21512 48.413454 195.75579 48.872797 195.13269 49.13089 194.48308 49.13089 193.83347 49.13089 193.21038 48.872797 192.75102 48.413454 192.29167 47.954107 192.03359 47.331014 192.03359 46.6814 192.03359 46.031789 192.29167 45.408697 192.75102 44.94935 193.21038 44.490007 193.83347 44.23191 194.48308 44.23191Z" fill="#c77df3" fill-opacity=".9"/>
<path transform="matrix(1,0,0,-1,0,107.5139)" stroke-width=".7" stroke-linecap="butt" stroke-linejoin="round" fill="none" stroke="#ffffff" stroke-opacity=".9" d="M194.48308 44.23191C195.13269 44.23191 195.75579 44.490007 196.21512 44.94935 196.67447 45.408697 196.93257 46.031789 196.93257 46.6814 196.93257 47.331014 196.67447 47.954107 196.21512 48.413454 195.75579 48.872797 195.13269 49.13089 194.48308 49.13089 193.83347 49.13089 193.21038 48.872797 192.75102 48.413454 192.29167 47.954107 192.03359 47.331014 192.03359 46.6814 192.03359 46.031789 192.29167 45.408697 192.75102 44.94935 193.21038 44.490007 193.83347 44.23191 194.48308 44.23191Z"/>
</g>
</g>
<g clip-path="url(#clip_29)">
<g>
<path transform="matrix(1,0,0,-1,0,107.5139)" d="M142.69304 49.763608 142.00104 47.633855H139.76169L141.57337 46.317598 140.88137 44.187845 142.69304 45.5041 144.50472 44.187845 143.81272 46.317598 145.62439 47.633855H143.38504Z" fill="#6a0dad" fill-opacity=".9"/>
<path transform="matrix(1,0,0,-1,0,107.5139)" stroke-width=".7" stroke-linecap="butt" stroke-linejoin="round" fill="none" stroke="#ffffff" stroke-opacity=".9" d="M142.69304 49.763608 142.00104 47.633855H139.76169L141.57337 46.317598 140.88137 44.187845 142.69304 45.5041 144.50472 44.187845 143.81272 46.317598 145.62439 47.633855H143.38504Z"/>
</g>
</g>
<g clip-path="url(#clip_30)">
<g>
<path transform="matrix(1,0,0,-1,0,107.5139)" d="M201.88166 44.23191C202.53127 44.23191 203.15436 44.490007 203.61371 44.94935 204.07305 45.408697 204.33115 46.031789 204.33115 46.6814 204.33115 47.331014 204.07305 47.954107 203.61371 48.413454 203.15436 48.872797 202.53127 49.13089 201.88166 49.13089 201.23204 49.13089 200.60895 48.872797 200.1496 48.413454 199.69025 47.954107 199.43216 47.331014 199.43216 46.6814 199.43216 46.031789 199.69025 45.408697 200.1496 44.94935 200.60895 44.490007 201.23204 44.23191 201.88166 44.23191Z" fill="#c77df3" fill-opacity=".9"/>
<path transform="matrix(1,0,0,-1,0,107.5139)" stroke-width=".7" stroke-linecap="butt" stroke-linejoin="round" fill="none" stroke="#ffffff" stroke-opacity=".9" d="M201.88166 44.23191C202.53127 44.23191 203.15436 44.490007 203.61371 44.94935 204.07305 45.408697 204.33115 46.031789 204.33115 46.6814 204.33115 47.331014 204.07305 47.954107 203.61371 48.413454 203.15436 48.872797 202.53127 49.13089 201.88166 49.13089 201.23204 49.13089 200.60895 48.872797 200.1496 48.413454 199.69025 47.954107 199.43216 47.331014 199.43216 46.6814 199.43216 46.031789 199.69025 45.408697 200.1496 44.94935 200.60895 44.490007 201.23204 44.23191 201.88166 44.23191Z"/>
</g>
</g>
<g clip-path="url(#clip_31)">
<g>
<path transform="matrix(1,0,0,-1,0,107.5139)" d="M209.28023 49.763608 208.58823 47.633855H206.34888L208.16056 46.317598 207.46855 44.187845 209.28023 45.5041 211.0919 44.187845 210.3999 46.317598 212.21158 47.633855H209.97223Z" fill="#6a0dad" fill-opacity=".9"/>
<path transform="matrix(1,0,0,-1,0,107.5139)" stroke-width=".7" stroke-linecap="butt" stroke-linejoin="round" fill="none" stroke="#ffffff" stroke-opacity=".9" d="M209.28023 49.763608 208.58823 47.633855H206.34888L208.16056 46.317598 207.46855 44.187845 209.28023 45.5041 211.0919 44.187845 210.3999 46.317598 212.21158 47.633855H209.97223Z"/>
</g>
</g>
<g clip-path="url(#clip_32)">
<g>
<path transform="matrix(1,0,0,-1,0,107.5139)" d="M142.69304 36.04481C143.34265 36.04481 143.96575 36.302907 144.4251 36.762254 144.88443 37.2216 145.14253 37.844694 145.14253 38.494306 145.14253 39.143915 144.88443 39.76701 144.4251 40.226354 143.96575 40.6857 143.34265 40.943796 142.69304 40.943796 142.04343 40.943796 141.42034 40.6857 140.96099 40.226354 140.50165 39.76701 140.24355 39.143915 140.24355 38.494306 140.24355 37.844694 140.50165 37.2216 140.96099 36.762254 141.42034 36.302907 142.04343 36.04481 142.69304 36.04481Z" fill="#c77df3" fill-opacity=".9"/>
<path transform="matrix(1,0,0,-1,0,107.5139)" stroke-width=".7" stroke-linecap="butt" stroke-linejoin="round" fill="none" stroke="#ffffff" stroke-opacity=".9" d="M142.69304 36.04481C143.34265 36.04481 143.96575 36.302907 144.4251 36.762254 144.88443 37.2216 145.14253 37.844694 145.14253 38.494306 145.14253 39.143915 144.88443 39.76701 144.4251 40.226354 143.96575 40.6857 143.34265 40.943796 142.69304 40.943796 142.04343 40.943796 141.42034 40.6857 140.96099 40.226354 140.50165 39.76701 140.24355 39.143915 140.24355 38.494306 140.24355 37.844694 140.50165 37.2216 140.96099 36.762254 141.42034 36.302907 142.04343 36.04481 142.69304 36.04481Z"/>
</g>
</g>
<g clip-path="url(#clip_33)">
<g>
<path transform="matrix(1,0,0,-1,0,107.5139)" d="M127.89588 36.04481C128.5455 36.04481 129.1686 36.302907 129.62793 36.762254 130.08728 37.2216 130.34537 37.844694 130.34537 38.494306 130.34537 39.143915 130.08728 39.76701 129.62793 40.226354 129.1686 40.6857 128.5455 40.943796 127.89588 40.943796 127.24627 40.943796 126.62318 40.6857 126.16383 40.226354 125.70449 39.76701 125.446399 39.143915 125.446399 38.494306 125.446399 37.844694 125.70449 37.2216 126.16383 36.762254 126.62318 36.302907 127.24627 36.04481 127.89588 36.04481Z" fill="#c77df3" fill-opacity=".9"/>
<path transform="matrix(1,0,0,-1,0,107.5139)" stroke-width=".7" stroke-linecap="butt" stroke-linejoin="round" fill="none" stroke="#ffffff" stroke-opacity=".9" d="M127.89588 36.04481C128.5455 36.04481 129.1686 36.302907 129.62793 36.762254 130.08728 37.2216 130.34537 37.844694 130.34537 38.494306 130.34537 39.143915 130.08728 39.76701 129.62793 40.226354 129.1686 40.6857 128.5455 40.943796 127.89588 40.943796 127.24627 40.943796 126.62318 40.6857 126.16383 40.226354 125.70449 39.76701 125.446399 39.143915 125.446399 38.494306 125.446399 37.844694 125.70449 37.2216 126.16383 36.762254 126.62318 36.302907 127.24627 36.04481 127.89588 36.04481Z"/>
</g>
</g>
<g clip-path="url(#clip_34)">
<g>
<path transform="matrix(1,0,0,-1,0,107.5139)" d="M209.28023 36.04481C209.92984 36.04481 210.55294 36.302907 211.01229 36.762254 211.47162 37.2216 211.72972 37.844694 211.72972 38.494306 211.72972 39.143915 211.47162 39.76701 211.01229 40.226354 210.55294 40.6857 209.92984 40.943796 209.28023 40.943796 208.63062 40.943796 208.00753 40.6857 207.54817 40.226354 207.08884 39.76701 206.83074 39.143915 206.83074 38.494306 206.83074 37.844694 207.08884 37.2216 207.54817 36.762254 208.00753 36.302907 208.63062 36.04481 209.28023 36.04481Z" fill="#c77df3" fill-opacity=".9"/>
<path transform="matrix(1,0,0,-1,0,107.5139)" stroke-width=".7" stroke-linecap="butt" stroke-linejoin="round" fill="none" stroke="#ffffff" stroke-opacity=".9" d="M209.28023 36.04481C209.92984 36.04481 210.55294 36.302907 211.01229 36.762254 211.47162 37.2216 211.72972 37.844694 211.72972 38.494306 211.72972 39.143915 211.47162 39.76701 211.01229 40.226354 210.55294 40.6857 209.92984 40.943796 209.28023 40.943796 208.63062 40.943796 208.00753 40.6857 207.54817 40.226354 207.08884 39.76701 206.83074 39.143915 206.83074 38.494306 206.83074 37.844694 207.08884 37.2216 207.54817 36.762254 208.00753 36.302907 208.63062 36.04481 209.28023 36.04481Z"/>
</g>
</g>
<g clip-path="url(#clip_35)">
<g>
<path transform="matrix(1,0,0,-1,0,107.5139)" d="M83.504428 36.04481C84.15404 36.04481 84.77713 36.302907 85.23648 36.762254 85.69582 37.2216 85.95392 37.844694 85.95392 38.494306 85.95392 39.143915 85.69582 39.76701 85.23648 40.226354 84.77713 40.6857 84.15404 40.943796 83.504428 40.943796 82.85481 40.943796 82.23172 40.6857 81.77238 40.226354 81.31303 39.76701 81.05494 39.143915 81.05494 38.494306 81.05494 37.844694 81.31303 37.2216 81.77238 36.762254 82.23172 36.302907 82.85481 36.04481 83.504428 36.04481Z" fill="#c77df3" fill-opacity=".9"/>
<path transform="matrix(1,0,0,-1,0,107.5139)" stroke-width=".7" stroke-linecap="butt" stroke-linejoin="round" fill="none" stroke="#ffffff" stroke-opacity=".9" d="M83.504428 36.04481C84.15404 36.04481 84.77713 36.302907 85.23648 36.762254 85.69582 37.2216 85.95392 37.844694 85.95392 38.494306 85.95392 39.143915 85.69582 39.76701 85.23648 40.226354 84.77713 40.6857 84.15404 40.943796 83.504428 40.943796 82.85481 40.943796 82.23172 40.6857 81.77238 40.226354 81.31303 39.76701 81.05494 39.143915 81.05494 38.494306 81.05494 37.844694 81.31303 37.2216 81.77238 36.762254 82.23172 36.302907 82.85481 36.04481 83.504428 36.04481Z"/>
</g>
</g>
<g clip-path="url(#clip_36)">
<g>
<path transform="matrix(1,0,0,-1,0,107.5139)" d="M164.88877 36.04481C165.53838 36.04481 166.16147 36.302907 166.62082 36.762254 167.08017 37.2216 167.33826 37.844694 167.33826 38.494306 167.33826 39.143915 167.08017 39.76701 166.62082 40.226354 166.16147 40.6857 165.53838 40.943796 164.88877 40.943796 164.23915 40.943796 163.61606 40.6857 163.15673 40.226354 162.69738 39.76701 162.43929 39.143915 162.43929 38.494306 162.43929 37.844694 162.69738 37.2216 163.15673 36.762254 163.61606 36.302907 164.23915 36.04481 164.88877 36.04481Z" fill="#c77df3" fill-opacity=".9"/>
<path transform="matrix(1,0,0,-1,0,107.5139)" stroke-width=".7" stroke-linecap="butt" stroke-linejoin="round" fill="none" stroke="#ffffff" stroke-opacity=".9" d="M164.88877 36.04481C165.53838 36.04481 166.16147 36.302907 166.62082 36.762254 167.08017 37.2216 167.33826 37.844694 167.33826 38.494306 167.33826 39.143915 167.08017 39.76701 166.62082 40.226354 166.16147 40.6857 165.53838 40.943796 164.88877 40.943796 164.23915 40.943796 163.61606 40.6857 163.15673 40.226354 162.69738 39.76701 162.43929 39.143915 162.43929 38.494306 162.43929 37.844694 162.69738 37.2216 163.15673 36.762254 163.61606 36.302907 164.23915 36.04481 164.88877 36.04481Z"/>
</g>
</g>
<text xml:space="preserve" transform="matrix(1 0 -0 1 99.220317 11.762497)" font-size="6.4" font-family="DejaVuSans"><tspan y="0" x="0 4.9280006 9.2672 13.849601 17.0048 21.344002 25.152003 29.491204 34.048006 37.107206 41.427206 44.486406 46.681608 50.85441 55.193609 57.420808 62.777608 67.116809 71.436809 76.0192">Representative Heads</tspan></text>
<path transform="matrix(1,0,0,-1,0,107.5139)" d="M103.32015 76.53673H108.080158V79.70298H103.32015Z" fill="#ffffff" fill-opacity=".68"/>
<text xml:space="preserve" transform="matrix(1 0 -0 1 103.45016 30.222176)" font-size="3.25" font-family="DejaVuSans"><tspan y="0" x="0 2.444">H0</tspan></text>
<path transform="matrix(1,0,0,-1,0,107.5139)" d="M110.718738 79.1566H115.47873V82.322849H110.718738Z" fill="#ffffff" fill-opacity=".68"/>
<text xml:space="preserve" transform="matrix(1 0 -0 1 110.84873 27.602303)" font-size="3.25" font-family="DejaVuSans"><tspan y="0" x="0 2.444">H2</tspan></text>
<path transform="matrix(1,0,0,-1,0,107.5139)" d="M177.30593 76.53673H182.06592V79.70298H177.30593Z" fill="#ffffff" fill-opacity=".68"/>
<text xml:space="preserve" transform="matrix(1 0 -0 1 177.43592 30.222176)" font-size="3.25" font-family="DejaVuSans"><tspan y="0" x="0 2.444">H5</tspan></text>
<path transform="matrix(1,0,0,-1,0,107.5139)" d="M184.7045 79.1566H189.4645V82.322849H184.7045Z" fill="#ffffff" fill-opacity=".68"/>
<text xml:space="preserve" transform="matrix(1 0 -0 1 184.8345 27.602303)" font-size="3.25" font-family="DejaVuSans"><tspan y="0" x="0 2.444">H3</tspan></text>
<path transform="matrix(1,0,0,-1,0,107.5139)" d="M229.09597 76.53673H233.85596V79.70298H229.09597Z" fill="#ffffff" fill-opacity=".68"/>
<text xml:space="preserve" transform="matrix(1 0 -0 1 229.22595 30.222176)" font-size="3.25" font-family="DejaVuSans"><tspan y="0" x="0 2.444">H2</tspan></text>
<path transform="matrix(1,0,0,-1,0,107.5139)" d="M66.32727 68.34963H71.08727V71.51588H66.32727Z" fill="#ffffff" fill-opacity=".68"/>
<text xml:space="preserve" transform="matrix(1 0 -0 1 66.457279 38.40927)" font-size="3.25" font-family="DejaVuSans"><tspan y="0" x="0 2.444">H0</tspan></text>
<path transform="matrix(1,0,0,-1,0,107.5139)" d="M118.11731 68.34963H122.87731V71.51588H118.11731Z" fill="#ffffff" fill-opacity=".68"/>
<text xml:space="preserve" transform="matrix(1 0 -0 1 118.24731 38.40927)" font-size="3.25" font-family="DejaVuSans"><tspan y="0" x="0 2.444">H1</tspan></text>
<path transform="matrix(1,0,0,-1,0,107.5139)" d="M140.31304 68.34963H145.07305V71.51588H140.31304Z" fill="#ffffff" fill-opacity=".68"/>
<text xml:space="preserve" transform="matrix(1 0 -0 1 140.44304 38.40927)" font-size="3.25" font-family="DejaVuSans"><tspan y="0" x="0 2.444">H3</tspan></text>
<path transform="matrix(1,0,0,-1,0,107.5139)" d="M169.90735 68.34963H174.66735V71.51588H169.90735Z" fill="#ffffff" fill-opacity=".68"/>
<text xml:space="preserve" transform="matrix(1 0 -0 1 170.03734 38.40927)" font-size="3.25" font-family="DejaVuSans"><tspan y="0" x="0 2.444">H1</tspan></text>
<path transform="matrix(1,0,0,-1,0,107.5139)" d="M206.90023 68.34963H211.66024V71.51588H206.90023Z" fill="#ffffff" fill-opacity=".68"/>
<text xml:space="preserve" transform="matrix(1 0 -0 1 207.03023 38.40927)" font-size="3.25" font-family="DejaVuSans"><tspan y="0" x="0 2.444">H8</tspan></text>
<path transform="matrix(1,0,0,-1,0,107.5139)" d="M51.53012 60.162534H56.29012V63.32878H51.53012Z" fill="#ffffff" fill-opacity=".68"/>
<text xml:space="preserve" transform="matrix(1 0 -0 1 51.660123 46.596368)" font-size="3.25" font-family="DejaVuSans"><tspan y="0" x="0 2.444">H4</tspan></text>
<path transform="matrix(1,0,0,-1,0,107.5139)" d="M81.12443 60.162534H85.88442V63.32878H81.12443Z" fill="#ffffff" fill-opacity=".68"/>
<text xml:space="preserve" transform="matrix(1 0 -0 1 81.254428 46.596368)" font-size="3.25" font-family="DejaVuSans"><tspan y="0" x="0 2.444">H2</tspan></text>
<path transform="matrix(1,0,0,-1,0,107.5139)" d="M177.30593 60.162534H182.06592V63.32878H177.30593Z" fill="#ffffff" fill-opacity=".68"/>
<text xml:space="preserve" transform="matrix(1 0 -0 1 177.43592 46.596368)" font-size="3.25" font-family="DejaVuSans"><tspan y="0" x="0 2.444">H3</tspan></text>
<path transform="matrix(1,0,0,-1,0,107.5139)" d="M220.66613 60.162534H227.48863V63.32878H220.66613Z" fill="#ffffff" fill-opacity=".68"/>
<text xml:space="preserve" transform="matrix(1 0 -0 1 220.79613 46.596368)" font-size="3.25" font-family="DejaVuSans"><tspan y="0" x="0 2.444 4.511">H11</tspan></text>
<path transform="matrix(1,0,0,-1,0,107.5139)" d="M236.49454 60.162534H241.25453V63.32878H236.49454Z" fill="#ffffff" fill-opacity=".68"/>
<text xml:space="preserve" transform="matrix(1 0 -0 1 236.62453 46.596368)" font-size="3.25" font-family="DejaVuSans"><tspan y="0" x="0 2.444">H1</tspan></text>
<path transform="matrix(1,0,0,-1,0,107.5139)" d="M81.12443 51.975439H85.88442V55.141687H81.12443Z" fill="#ffffff" fill-opacity=".68"/>
<text xml:space="preserve" transform="matrix(1 0 -0 1 81.254428 54.783468)" font-size="3.25" font-family="DejaVuSans"><tspan y="0" x="0 2.444">H7</tspan></text>
<path transform="matrix(1,0,0,-1,0,107.5139)" d="M140.31304 51.975439H145.07305V55.141687H140.31304Z" fill="#ffffff" fill-opacity=".68"/>
<text xml:space="preserve" transform="matrix(1 0 -0 1 140.44304 54.783468)" font-size="3.25" font-family="DejaVuSans"><tspan y="0" x="0 2.444">H4</tspan></text>
<path transform="matrix(1,0,0,-1,0,107.5139)" d="M162.50878 51.975439H167.26877V55.141687H162.50878Z" fill="#ffffff" fill-opacity=".68"/>
<text xml:space="preserve" transform="matrix(1 0 -0 1 162.63877 54.783468)" font-size="3.25" font-family="DejaVuSans"><tspan y="0" x="0 2.444">H5</tspan></text>
<path transform="matrix(1,0,0,-1,0,107.5139)" d="M229.09597 51.975439H233.85596V55.141687H229.09597Z" fill="#ffffff" fill-opacity=".68"/>
<text xml:space="preserve" transform="matrix(1 0 -0 1 229.22595 54.783468)" font-size="3.25" font-family="DejaVuSans"><tspan y="0" x="0 2.444">H1</tspan></text>
<path transform="matrix(1,0,0,-1,0,107.5139)" d="M235.46329 54.595308H242.28578V57.76156H235.46329Z" fill="#ffffff" fill-opacity=".68"/>
<text xml:space="preserve" transform="matrix(1 0 -0 1 235.59328 52.163595)" font-size="3.25" font-family="DejaVuSans"><tspan y="0" x="0 2.444 4.511">H11</tspan></text>
<path transform="matrix(1,0,0,-1,0,107.5139)" d="M140.31304 43.78834H145.07305V46.95459H140.31304Z" fill="#ffffff" fill-opacity=".68"/>
<text xml:space="preserve" transform="matrix(1 0 -0 1 140.44304 62.970563)" font-size="3.25" font-family="DejaVuSans"><tspan y="0" x="0 2.444">H3</tspan></text>
<path transform="matrix(1,0,0,-1,0,107.5139)" d="M162.50878 43.78834H167.26877V46.95459H162.50878Z" fill="#ffffff" fill-opacity=".68"/>
<text xml:space="preserve" transform="matrix(1 0 -0 1 162.63877 62.970563)" font-size="3.25" font-family="DejaVuSans"><tspan y="0" x="0 2.444">H5</tspan></text>
<path transform="matrix(1,0,0,-1,0,107.5139)" d="M192.10308 43.78834H196.86307V46.95459H192.10308Z" fill="#ffffff" fill-opacity=".68"/>
<text xml:space="preserve" transform="matrix(1 0 -0 1 192.23308 62.970563)" font-size="3.25" font-family="DejaVuSans"><tspan y="0" x="0 2.444">H1</tspan></text>
<path transform="matrix(1,0,0,-1,0,107.5139)" d="M199.50165 46.40821H204.26165V49.57446H199.50165Z" fill="#ffffff" fill-opacity=".68"/>
<text xml:space="preserve" transform="matrix(1 0 -0 1 199.63166 60.35069)" font-size="3.25" font-family="DejaVuSans"><tspan y="0" x="0 2.444">H7</tspan></text>
<path transform="matrix(1,0,0,-1,0,107.5139)" d="M206.90023 42.72402H211.66024V45.890268H206.90023Z" fill="#ffffff" fill-opacity=".68"/>
<text xml:space="preserve" transform="matrix(1 0 -0 1 207.03023 64.03488)" font-size="3.25" font-family="DejaVuSans"><tspan y="0" x="0 2.444">H1</tspan></text>
<path transform="matrix(1,0,0,-1,0,107.5139)" d="M81.12443 35.601243H85.88442V38.767496H81.12443Z" fill="#ffffff" fill-opacity=".68"/>
<text xml:space="preserve" transform="matrix(1 0 -0 1 81.254428 71.15765)" font-size="3.25" font-family="DejaVuSans"><tspan y="0" x="0 2.444">H2</tspan></text>
<path transform="matrix(1,0,0,-1,0,107.5139)" d="M125.515888 35.601243H130.27588V38.767496H125.515888Z" fill="#ffffff" fill-opacity=".68"/>
<text xml:space="preserve" transform="matrix(1 0 -0 1 125.64588 71.15765)" font-size="3.25" font-family="DejaVuSans"><tspan y="0" x="0 2.444">H1</tspan></text>
<path transform="matrix(1,0,0,-1,0,107.5139)" d="M140.31304 35.601243H145.07305V38.767496H140.31304Z" fill="#ffffff" fill-opacity=".68"/>
<text xml:space="preserve" transform="matrix(1 0 -0 1 140.44304 71.15765)" font-size="3.25" font-family="DejaVuSans"><tspan y="0" x="0 2.444">H3</tspan></text>
<path transform="matrix(1,0,0,-1,0,107.5139)" d="M161.47753 35.601243H168.30002V38.767496H161.47753Z" fill="#ffffff" fill-opacity=".68"/>
<text xml:space="preserve" transform="matrix(1 0 -0 1 161.60752 71.15765)" font-size="3.25" font-family="DejaVuSans"><tspan y="0" x="0 2.444 4.511">H11</tspan></text>
<path transform="matrix(1,0,0,-1,0,107.5139)" d="M206.90023 35.601243H211.66024V38.767496H206.90023Z" fill="#ffffff" fill-opacity=".68"/>
<text xml:space="preserve" transform="matrix(1 0 -0 1 207.03023 71.15765)" font-size="3.25" font-family="DejaVuSans"><tspan y="0" x="0 2.444">H8</tspan></text>
<path transform="matrix(1,0,0,-1,0,107.5139)" d="M114.218 9.153125C114.695369 9.153125 115.153247 9.342784 115.49079 9.680333 115.82834 10.017881 116.018 10.475759 116.018 10.953125 116.018 11.430491 115.82834 11.888369 115.49079 12.225917 115.153247 12.563466 114.695369 12.753125 114.218 12.753125 113.74063 12.753125 113.28275 12.563466 112.945209 12.225917 112.60766 11.888369 112.418 11.430491 112.418 10.953125 112.418 10.475759 112.60766 10.017881 112.945209 9.680333 113.28275 9.342784 113.74063 9.153125 114.218 9.153125Z" fill="#c77df3"/>
<path transform="matrix(1,0,0,-1,0,107.5139)" stroke-width="1" stroke-linecap="butt" stroke-linejoin="round" fill="none" stroke="#ffffff" d="M114.218 9.153125C114.695369 9.153125 115.153247 9.342784 115.49079 9.680333 115.82834 10.017881 116.018 10.475759 116.018 10.953125 116.018 11.430491 115.82834 11.888369 115.49079 12.225917 115.153247 12.563466 114.695369 12.753125 114.218 12.753125 113.74063 12.753125 113.28275 12.563466 112.945209 12.225917 112.60766 11.888369 112.418 11.430491 112.418 10.953125 112.418 10.475759 112.60766 10.017881 112.945209 9.680333 113.28275 9.342784 113.74063 9.153125 114.218 9.153125Z"/>
<text xml:space="preserve" transform="matrix(1 0 -0 1 118.82 97.92577)" font-size="3.9" font-family="DejaVuSans"><tspan y="0" x="0 2.5386253 4.937125 7.4136259">Rep.</tspan></text>
<path transform="matrix(1,0,0,-1,0,107.5139)" d="M133.89563 13.553125 133.31189 11.756569H131.42288L132.95113 10.646237 132.36739 8.849681 133.89563 9.960013 135.42388 8.849681 134.84014 10.646237 136.36838 11.756569H134.47936Z" fill="#6a0dad"/>
<path transform="matrix(1,0,0,-1,0,107.5139)" stroke-width="1" stroke-linecap="butt" stroke-linejoin="bevel" fill="none" stroke="#ffffff" d="M133.89563 13.553125 133.31189 11.756569H131.42288L132.95113 10.646237 132.36739 8.849681 133.89563 9.960013 135.42388 8.849681 134.84014 10.646237 136.36838 11.756569H134.47936Z"/>
<text xml:space="preserve" transform="matrix(1 0 -0 1 138.49762 97.92577)" font-size="3.9" font-family="DejaVuSans"><tspan y="0" x="0 2.5386253 4.937125 7.4136259 8.653826 9.894026 13.162226 14.402426 15.931226 18.318026 20.794526 22.034726 24.511225 25.595425 26.968226 28.059777">Rep. + top diff.</tspan></text>
</svg>
