<svg xmlns="http://www.w3.org/2000/svg" xmlns:xlink="http://www.w3.org/1999/xlink" xmlns:inkscape="http://www.inkscape.org/namespaces/inkscape" version="1.1" width="1232.3995" height="353.9995" viewBox="0 0 1232.3995 353.9995">
<defs>
<clipPath id="clip_1">
<path transform="matrix(1,0,0,-1,0,353.9995)" d="M40.590627 42.560529H376.2174V331.6745H40.590627Z"/>
</clipPath>
<clipPath id="clip_2">
<path transform="matrix(1,0,0,-1,0,353.9995)" d="M40.590627 42.560529H376.2174V331.6745H40.590627Z"/>
</clipPath>
<clipPath id="clip_3">
<path transform="matrix(1,0,0,-1,0,353.9995)" d="M40.590627 42.560529H376.2174V331.6745H40.590627Z"/>
</clipPath>
<clipPath id="clip_4">
<path transform="matrix(1,0,0,-1,0,353.9995)" d="M417.76805 42.560529H753.3948V331.6745H417.76805Z"/>
</clipPath>
<clipPath id="clip_5">
<path transform="matrix(1,0,0,-1,433.0238,287.7842)" d="M-8-8H8V8H-8Z"/>
</clipPath>
<clipPath id="clip_6">
<path transform="matrix(1,0,0,-1,433.17997,287.7842)" d="M-8-8H8V8H-8Z"/>
</clipPath>
<clipPath id="clip_7">
<path transform="matrix(1,0,0,-1,448.01414,287.7842)" d="M-8-8H8V8H-8Z"/>
</clipPath>
<clipPath id="clip_8">
<path transform="matrix(1,0,0,-1,448.63874,272.01435)" d="M-8-8H8V8H-8Z"/>
</clipPath>
<clipPath id="clip_9">
<path transform="matrix(1,0,0,-1,478.1509,250.98787)" d="M-8-8H8V8H-8Z"/>
</clipPath>
<clipPath id="clip_10">
<path transform="matrix(1,0,0,-1,478.7755,287.78419)" d="M-8-8H8V8H-8Z"/>
</clipPath>
<clipPath id="clip_11">
<path transform="matrix(1,0,0,-1,480.49317,287.78419)" d="M-8-8H8V8H-8Z"/>
</clipPath>
<clipPath id="clip_12">
<path transform="matrix(1,0,0,-1,480.49317,293.0408)" d="M-8-8H8V8H-8Z"/>
</clipPath>
<clipPath id="clip_13">
<path transform="matrix(1,0,0,-1,518.12509,235.218)" d="M-8-8H8V8H-8Z"/>
</clipPath>
<clipPath id="clip_14">
<path transform="matrix(1,0,0,-1,537.956,277.27095)" d="M-8-8H8V8H-8Z"/>
</clipPath>
<clipPath id="clip_15">
<path transform="matrix(1,0,0,-1,538.2683,235.21799)" d="M-8-8H8V8H-8Z"/>
</clipPath>
<clipPath id="clip_16">
<path transform="matrix(1,0,0,-1,558.5677,229.96137)" d="M-8-8H8V8H-8Z"/>
</clipPath>
<clipPath id="clip_17">
<path transform="matrix(1,0,0,-1,581.3655,272.0143)" d="M-8-8H8V8H-8Z"/>
</clipPath>
<clipPath id="clip_18">
<path transform="matrix(1,0,0,-1,621.02737,203.67829)" d="M-8-8H8V8H-8Z"/>
</clipPath>
<clipPath id="clip_19">
<path transform="matrix(1,0,0,-1,657.87857,198.42166)" d="M-8-8H8V8H-8Z"/>
</clipPath>
<clipPath id="clip_20">
<path transform="matrix(1,0,0,-1,699.10189,277.27095)" d="M-8-8H8V8H-8Z"/>
</clipPath>
<clipPath id="clip_21">
<path transform="matrix(1,0,0,-1,737.82687,298.2974)" d="M-8-8H8V8H-8Z"/>
</clipPath>
<clipPath id="clip_22">
<path transform="matrix(1,0,0,-1,737.82687,245.73122)" d="M-8-8H8V8H-8Z"/>
</clipPath>
<clipPath id="clip_23">
<path transform="matrix(1,0,0,-1,737.82687,282.52754)" d="M-8-8H8V8H-8Z"/>
</clipPath>
<clipPath id="clip_24">
<path transform="matrix(1,0,0,-1,737.82687,293.04078)" d="M-8-8H8V8H-8Z"/>
</clipPath>
<clipPath id="clip_25">
<path transform="matrix(1,0,0,-1,433.0239,266.7577)" d="M-8-8H8V8H-8Z"/>
</clipPath>
<clipPath id="clip_26">
<path transform="matrix(1,0,0,-1,433.49235,266.7577)" d="M-8-8H8V8H-8Z"/>
</clipPath>
<clipPath id="clip_27">
<path transform="matrix(1,0,0,-1,433.6485,266.7577)" d="M-8-8H8V8H-8Z"/>
</clipPath>
<clipPath id="clip_28">
<path transform="matrix(1,0,0,-1,448.01423,261.50108)" d="M-8-8H8V8H-8Z"/>
</clipPath>
<clipPath id="clip_29">
<path transform="matrix(1,0,0,-1,448.01423,266.7577)" d="M-8-8H8V8H-8Z"/>
</clipPath>
<clipPath id="clip_30">
<path transform="matrix(1,0,0,-1,448.79496,266.7577)" d="M-8-8H8V8H-8Z"/>
</clipPath>
<clipPath id="clip_31">
<path transform="matrix(1,0,0,-1,477.9948,266.7577)" d="M-8-8H8V8H-8Z"/>
</clipPath>
<clipPath id="clip_32">
<path transform="matrix(1,0,0,-1,478.15098,261.50108)" d="M-8-8H8V8H-8Z"/>
</clipPath>
<clipPath id="clip_33">
<path transform="matrix(1,0,0,-1,478.46327,261.50108)" d="M-8-8H8V8H-8Z"/>
</clipPath>
<clipPath id="clip_34">
<path transform="matrix(1,0,0,-1,537.95608,256.24446)" d="M-8-8H8V8H-8Z"/>
</clipPath>
<clipPath id="clip_35">
<path transform="matrix(1,0,0,-1,537.95608,266.7577)" d="M-8-8H8V8H-8Z"/>
</clipPath>
<clipPath id="clip_36">
<path transform="matrix(1,0,0,-1,538.2684,261.50108)" d="M-8-8H8V8H-8Z"/>
</clipPath>
<clipPath id="clip_37">
<path transform="matrix(1,0,0,-1,635.39309,266.7577)" d="M-8-8H8V8H-8Z"/>
</clipPath>
<clipPath id="clip_38">
<path transform="matrix(1,0,0,-1,657.87857,250.98784)" d="M-8-8H8V8H-8Z"/>
</clipPath>
<clipPath id="clip_39">
<path transform="matrix(1,0,0,-1,657.87857,261.50108)" d="M-8-8H8V8H-8Z"/>
</clipPath>
<clipPath id="clip_40">
<path transform="matrix(1,0,0,-1,0,353.9995)" d="M417.76805 42.560529H753.3948V331.6745H417.76805Z"/>
</clipPath>
<clipPath id="clip_41">
<path transform="matrix(1,0,0,-1,517.9689,293.04084)" d="M-8-8H8V8H-8Z"/>
</clipPath>
<clipPath id="clip_42">
<path transform="matrix(1,0,0,-1,558.5676,293.04084)" d="M-8-8H8V8H-8Z"/>
</clipPath>
<clipPath id="clip_43">
<path transform="matrix(1,0,0,-1,621.0272,298.29747)" d="M-8-8H8V8H-8Z"/>
</clipPath>
<clipPath id="clip_44">
<path transform="matrix(1,0,0,-1,699.10177,298.29747)" d="M-8-8H8V8H-8Z"/>
</clipPath>
<clipPath id="clip_45">
<path transform="matrix(1,0,0,-1,737.8267,293.04084)" d="M-8-8H8V8H-8Z"/>
</clipPath>
<clipPath id="clip_46">
<path transform="matrix(1,0,0,-1,737.8267,287.7842)" d="M-8-8H8V8H-8Z"/>
</clipPath>
<clipPath id="clip_47">
<path transform="matrix(1,0,0,-1,737.8267,298.29747)" d="M-8-8H8V8H-8Z"/>
</clipPath>
<clipPath id="clip_48">
<path transform="matrix(1,0,0,-1,737.8267,293.04084)" d="M-8-8H8V8H-8Z"/>
</clipPath>
<clipPath id="clip_49">
<path transform="matrix(1,0,0,-1,737.98287,298.29747)" d="M-8-8H8V8H-8Z"/>
</clipPath>
<clipPath id="clip_50">
<path transform="matrix(1,0,0,-1,0,353.9995)" d="M417.76805 42.560529H753.3948V331.6745H417.76805Z"/>
</clipPath>
<clipPath id="clip_51">
<path transform="matrix(1,0,0,-1,443.01734,256.2445)" d="M-8-8H8V8H-8Z"/>
</clipPath>
<clipPath id="clip_52">
<path transform="matrix(1,0,0,-1,458.00764,235.21804)" d="M-8-8H8V8H-8Z"/>
</clipPath>
<clipPath id="clip_53">
<path transform="matrix(1,0,0,-1,480.4931,240.47466)" d="M-8-8H8V8H-8Z"/>
</clipPath>
<clipPath id="clip_54">
<path transform="matrix(1,0,0,-1,518.4373,235.21804)" d="M-8-8H8V8H-8Z"/>
</clipPath>
<clipPath id="clip_55">
<path transform="matrix(1,0,0,-1,558.5676,224.7048)" d="M-8-8H8V8H-8Z"/>
</clipPath>
<clipPath id="clip_56">
<path transform="matrix(1,0,0,-1,621.0272,88.03273)" d="M-8-8H8V8H-8Z"/>
</clipPath>
<clipPath id="clip_57">
<path transform="matrix(1,0,0,-1,699.2579,51.236406)" d="M-8-8H8V8H-8Z"/>
</clipPath>
<clipPath id="clip_58">
<path transform="matrix(1,0,0,-1,737.82669,277.271)" d="M-8-8H8V8H-8Z"/>
</clipPath>
<clipPath id="clip_59">
<path transform="matrix(1,0,0,-1,737.82669,266.75776)" d="M-8-8H8V8H-8Z"/>
</clipPath>
<clipPath id="clip_60">
<path transform="matrix(1,0,0,-1,737.82669,35.466554)" d="M-8-8H8V8H-8Z"/>
</clipPath>
<clipPath id="clip_61">
<path transform="matrix(1,0,0,-1,737.82669,261.50114)" d="M-8-8H8V8H-8Z"/>
</clipPath>
<clipPath id="clip_62">
<path transform="matrix(1,0,0,-1,737.82669,82.77612)" d="M-8-8H8V8H-8Z"/>
</clipPath>
<clipPath id="clip_63">
<path transform="matrix(1,0,0,-1,737.9828,287.78425)" d="M-8-8H8V8H-8Z"/>
</clipPath>
<clipPath id="clip_64">
<path transform="matrix(1,0,0,-1,738.1389,240.47467)" d="M-8-8H8V8H-8Z"/>
</clipPath>
<clipPath id="clip_65">
<path transform="matrix(1,0,0,-1,0,353.9995)" d="M417.76805 42.560529H753.3948V331.6745H417.76805Z"/>
</clipPath>
<clipPath id="clip_66">
<path transform="matrix(1,0,0,-1,433.0238,266.75773)" d="M-8.908204-8.908204H8.908204V8.908204H-8.908204Z"/>
</clipPath>
<clipPath id="clip_67">
<path transform="matrix(1,0,0,-1,699.25796,51.23639)" d="M-8.908204-8.908204H8.908204V8.908204H-8.908204Z"/>
</clipPath>
<clipPath id="clip_68">
<path transform="matrix(1,0,0,-1,737.9829,298.29743)" d="M-8.908204-8.908204H8.908204V8.908204H-8.908204Z"/>
</clipPath>
<clipPath id="clip_69">
<path transform="matrix(1,0,0,-1,0,353.9995)" d="M852.9946 42.560529H1188.6213V331.6745H852.9946Z"/>
</clipPath>
<clipPath id="clip_70">
<path transform="matrix(1,0,0,-1,0,353.9995)" d="M852.9946 42.560529H1188.6213V331.6745H852.9946Z"/>
</clipPath>
<clipPath id="clip_71">
<path transform="matrix(1,0,0,-1,0,353.9995)" d="M852.9946 42.560529H1188.6213V331.6745H852.9946Z"/>
</clipPath>
<clipPath id="clip_72">
<path transform="matrix(1,0,0,-1,0,353.9995)" d="M852.9946 42.560529H1188.6213V331.6745H852.9946Z"/>
</clipPath>
<clipPath id="clip_73">
<path transform="matrix(1,0,0,-1,0,353.9995)" d="M852.9946 42.560529H1188.6213V331.6745H852.9946Z"/>
</clipPath>
<clipPath id="clip_74">
<path transform="matrix(1,0,0,-1,0,353.9995)" d="M852.9946 42.560529H1188.6213V331.6745H852.9946Z"/>
</clipPath>
</defs>
<path transform="matrix(1,0,0,-1,0,353.9995)" d="M0 0H1232.3995V353.9995H0Z" fill="#ffffff"/>
<path transform="matrix(1,0,0,-1,0,353.9995)" d="M40.590627 42.560529H376.2174V331.67454H40.590627Z" fill="#ffffff"/>
<g clip-path="url(#clip_1)">
<path transform="matrix(1,0,0,-1,0,353.9995)" d="M55.84639 42.560529H143.02217V317.9072H55.84639Z" fill="#2b8cbe"/>
</g>
<g clip-path="url(#clip_2)">
<path transform="matrix(1,0,0,-1,0,353.9995)" d="M164.81612 42.560529H251.99192V152.69919H164.81612Z" fill="#f0a202"/>
</g>
<g clip-path="url(#clip_3)">
<path transform="matrix(1,0,0,-1,0,353.9995)" d="M273.78587 42.560529H360.96165V113.36395H273.78587Z" fill="#6a994e"/>
</g>
<path transform="matrix(1,0,0,-1,0,353.9995)" d="M99.43428 42.560529V39.060529"/>
<path transform="matrix(1,0,0,-1,0,353.9995)" stroke-width=".8" stroke-linecap="butt" stroke-linejoin="round" fill="none" stroke="#000000" d="M99.43428 42.560529V39.060529"/>
<text xml:space="preserve" transform="matrix(1 0 -0 1 88.52803 326.03276)" font-size="10" font-family="DejaVuSans"><tspan y="0" x="0 6.34 9.120001 15.470001">high</tspan></text>
<path transform="matrix(1,0,0,-1,0,353.9995)" d="M208.40402 42.560529V39.060529"/>
<path transform="matrix(1,0,0,-1,0,353.9995)" stroke-width=".8" stroke-linecap="butt" stroke-linejoin="round" fill="none" stroke="#000000" d="M208.40402 42.560529V39.060529"/>
<text xml:space="preserve" transform="matrix(1 0 -0 1 187.84152 326.03276)" font-size="10" font-family="DejaVuSans"><tspan y="0" x="0 9.740001 15.890001 22.240002 25.020003 31.360003">medium</tspan></text>
<path transform="matrix(1,0,0,-1,0,353.9995)" d="M317.37376 42.560529V39.060529"/>
<path transform="matrix(1,0,0,-1,0,353.9995)" stroke-width=".8" stroke-linecap="butt" stroke-linejoin="round" fill="none" stroke="#000000" d="M317.37376 42.560529V39.060529"/>
<text xml:space="preserve" transform="matrix(1 0 -0 1 308.82688 326.03276)" font-size="10" font-family="DejaVuSans"><tspan y="0" x="0 2.7800003 8.900001">low</tspan></text>
<text xml:space="preserve" transform="matrix(1 0 -0 1 177.96652 339.70463)" font-size="10" font-family="DejaVuSans"><tspan y="0" x="0 6.512501 12.6625 15.442501 21.572503 25.492503 31.642502 37.9925 44.3325 50.482503 55.6925">Relatedness</tspan></text>
<path transform="matrix(1,0,0,-1,0,353.9995)" d="M40.590627 42.560529H37.090627"/>
<path transform="matrix(1,0,0,-1,0,353.9995)" stroke-width=".8" stroke-linecap="butt" stroke-linejoin="round" fill="none" stroke="#000000" d="M40.590627 42.560529H37.090627"/>
<text xml:space="preserve" transform="matrix(1 0 -0 1 27.23125 315.23588)" font-size="10" font-family="DejaVuSans"><tspan y="0" x="0">0</tspan></text>
<path transform="matrix(1,0,0,-1,0,353.9995)" d="M40.590627 81.89577H37.090627"/>
<path transform="matrix(1,0,0,-1,0,353.9995)" stroke-width=".8" stroke-linecap="butt" stroke-linejoin="round" fill="none" stroke="#000000" d="M40.590627 81.89577H37.090627"/>
<text xml:space="preserve" transform="matrix(1 0 -0 1 27.23125 275.90065)" font-size="10" font-family="DejaVuSans"><tspan y="0" x="0">5</tspan></text>
<path transform="matrix(1,0,0,-1,0,353.9995)" d="M40.590627 121.231H37.090627"/>
<path transform="matrix(1,0,0,-1,0,353.9995)" stroke-width=".8" stroke-linecap="butt" stroke-linejoin="round" fill="none" stroke="#000000" d="M40.590627 121.231H37.090627"/>
<text xml:space="preserve" transform="matrix(1 0 -0 1 20.871876 236.56539)" font-size="10" font-family="DejaVuSans"><tspan y="0" x="0 6.3600008">10</tspan></text>
<path transform="matrix(1,0,0,-1,0,353.9995)" d="M40.590627 160.56624H37.090627"/>
<path transform="matrix(1,0,0,-1,0,353.9995)" stroke-width=".8" stroke-linecap="butt" stroke-linejoin="round" fill="none" stroke="#000000" d="M40.590627 160.56624H37.090627"/>
<text xml:space="preserve" transform="matrix(1 0 -0 1 20.871876 197.23015)" font-size="10" font-family="DejaVuSans"><tspan y="0" x="0 6.3600008">15</tspan></text>
<path transform="matrix(1,0,0,-1,0,353.9995)" d="M40.590627 199.90148H37.090627"/>
<path transform="matrix(1,0,0,-1,0,353.9995)" stroke-width=".8" stroke-linecap="butt" stroke-linejoin="round" fill="none" stroke="#000000" d="M40.590627 199.90148H37.090627"/>
<text xml:space="preserve" transform="matrix(1 0 -0 1 20.871876 157.89492)" font-size="10" font-family="DejaVuSans"><tspan y="0" x="0 6.3600008">20</tspan></text>
<path transform="matrix(1,0,0,-1,0,353.9995)" d="M40.590627 239.23671H37.090627"/>
<path transform="matrix(1,0,0,-1,0,353.9995)" stroke-width=".8" stroke-linecap="butt" stroke-linejoin="round" fill="none" stroke="#000000" d="M40.590627 239.23671H37.090627"/>
<text xml:space="preserve" transform="matrix(1 0 -0 1 20.871876 118.55968)" font-size="10" font-family="DejaVuSans"><tspan y="0" x="0 6.3600008">25</tspan></text>
<path transform="matrix(1,0,0,-1,0,353.9995)" d="M40.590627 278.57197H37.090627"/>
<path transform="matrix(1,0,0,-1,0,353.9995)" stroke-width=".8" stroke-linecap="butt" stroke-linejoin="round" fill="none" stroke="#000000" d="M40.590627 278.57197H37.090627"/>
<text xml:space="preserve" transform="matrix(1 0 -0 1 20.871876 79.22443)" font-size="10" font-family="DejaVuSans"><tspan y="0" x="0 6.3600008">30</tspan></text>
<path transform="matrix(1,0,0,-1,0,353.9995)" d="M40.590627 317.9072H37.090627"/>
<path transform="matrix(1,0,0,-1,0,353.9995)" stroke-width=".8" stroke-linecap="butt" stroke-linejoin="round" fill="none" stroke="#000000" d="M40.590627 317.9072H37.090627"/>
<text xml:space="preserve" transform="matrix(1 0 -0 1 20.871876 39.88919)" font-size="10" font-family="DejaVuSans"><tspan y="0" x="0 6.3600008">35</tspan></text>
<text xml:space="preserve" transform="matrix(0 -1 1 0 14.79375 181.74137)" font-size="10" font-family="DejaVuSans"><tspan y="0" x="0 6.98 13.1 19.44 25.78">Count</tspan></text>
<path transform="matrix(1,0,0,-1,0,353.9995)" stroke-width=".8" stroke-linecap="square" stroke-miterlimit="10" stroke-linejoin="miter" fill="none" stroke="#000000" d="M40.590627 42.560529V331.67454"/>
<path transform="matrix(1,0,0,-1,0,353.9995)" stroke-width=".8" stroke-linecap="square" stroke-miterlimit="10" stroke-linejoin="miter" fill="none" stroke="#000000" d="M376.2174 42.560529V331.67454"/>
<path transform="matrix(1,0,0,-1,0,353.9995)" stroke-width=".8" stroke-linecap="square" stroke-miterlimit="10" stroke-linejoin="miter" fill="none" stroke="#000000" d="M40.590627 42.560529H376.2174"/>
<path transform="matrix(1,0,0,-1,0,353.9995)" stroke-width=".8" stroke-linecap="square" stroke-miterlimit="10" stroke-linejoin="miter" fill="none" stroke="#000000" d="M40.590627 331.67454H376.2174"/>
<text xml:space="preserve" transform="matrix(1 0 -0 1 103.2712 16.324982)" font-size="12" font-family="DejaVuSans"><tspan y="0" x="0 7.80875 15.18875 19.89275 24.824749 28.16075 35.54075 42.64475 50.02475 57.644754 61.460756 69.836757 77.180759 84.78876 89.49276 96.66963 103.773639 108.47764 114.72964 118.54564 126.16564 133.26964 137.08563 144.89438 152.27439 155.61038 162.96639 167.67038 175.05039 182.67038 190.27838 197.65839 203.91039">Retrieved Contexts by Relatedness</tspan></text>
<path transform="matrix(1,0,0,-1,0,353.9995)" d="M417.76805 42.560529H753.39486V331.67454H417.76805Z" fill="#ffffff"/>
<g clip-path="url(#clip_4)">
<g clip-path="url(#clip_5)">
<g>
<path transform="matrix(1,0,0,-1,433.0238,287.7842)" d="M0-3C.795609-3 1.55874-2.683901 2.12132-2.12132 2.683901-1.55874 3-.795609 3 0 3 .795609 2.683901 1.55874 2.12132 2.12132 1.55874 2.683901 .795609 3 0 3-.795609 3-1.55874 2.683901-2.12132 2.12132-2.683901 1.55874-3 .795609-3 0-3-.795609-2.683901-1.55874-2.12132-2.12132-1.55874-2.683901-.795609-3 0-3Z" fill="#2b8cbe" fill-opacity=".55"/>
<path transform="matrix(1,0,0,-1,433.0238,287.7842)" stroke-width="1" stroke-linecap="butt" stroke-linejoin="round" fill="none" stroke="#2b8cbe" stroke-opacity=".55" d="M0-3C.795609-3 1.55874-2.683901 2.12132-2.12132 2.683901-1.55874 3-.795609 3 0 3 .795609 2.683901 1.55874 2.12132 2.12132 1.55874 2.683901 .795609 3 0 3-.795609 3-1.55874 2.683901-2.12132 2.12132-2.683901 1.55874-3 .795609-3 0-3-.795609-2.683901-1.55874-2.12132-2.12132-1.55874-2.683901-.795609-3 0-3Z"/>
</g>
</g>
<g clip-path="url(#clip_6)">
<g>
<path transform="matrix(1,0,0,-1,433.17997,287.7842)" d="M0-3C.795609-3 1.55874-2.683901 2.12132-2.12132 2.683901-1.55874 3-.795609 3 0 3 .795609 2.683901 1.55874 2.12132 2.12132 1.55874 2.683901 .795609 3 0 3-.795609 3-1.55874 2.683901-2.12132 2.12132-2.683901 1.55874-3 .795609-3 0-3-.795609-2.683901-1.55874-2.12132-2.12132-1.55874-2.683901-.795609-3 0-3Z" fill="#2b8cbe" fill-opacity=".55"/>
<path transform="matrix(1,0,0,-1,433.17997,287.7842)" stroke-width="1" stroke-linecap="butt" stroke-linejoin="round" fill="none" stroke="#2b8cbe" stroke-opacity=".55" d="M0-3C.795609-3 1.55874-2.683901 2.12132-2.12132 2.683901-1.55874 3-.795609 3 0 3 .795609 2.683901 1.55874 2.12132 2.12132 1.55874 2.683901 .795609 3 0 3-.795609 3-1.55874 2.683901-2.12132 2.12132-2.683901 1.55874-3 .795609-3 0-3-.795609-2.683901-1.55874-2.12132-2.12132-1.55874-2.683901-.795609-3 0-3Z"/>
</g>
</g>
<g clip-path="url(#clip_7)">
<g>
<path transform="matrix(1,0,0,-1,448.01414,287.7842)" d="M0-3C.795609-3 1.55874-2.683901 2.12132-2.12132 2.683901-1.55874 3-.795609 3 0 3 .795609 2.683901 1.55874 2.12132 2.12132 1.55874 2.683901 .795609 3 0 3-.795609 3-1.55874 2.683901-2.12132 2.12132-2.683901 1.55874-3 .795609-3 0-3-.795609-2.683901-1.55874-2.12132-2.12132-1.55874-2.683901-.795609-3 0-3Z" fill="#2b8cbe" fill-opacity=".55"/>
<path transform="matrix(1,0,0,-1,448.01414,287.7842)" stroke-width="1" stroke-linecap="butt" stroke-linejoin="round" fill="none" stroke="#2b8cbe" stroke-opacity=".55" d="M0-3C.795609-3 1.55874-2.683901 2.12132-2.12132 2.683901-1.55874 3-.795609 3 0 3 .795609 2.683901 1.55874 2.12132 2.12132 1.55874 2.683901 .795609 3 0 3-.795609 3-1.55874 2.683901-2.12132 2.12132-2.683901 1.55874-3 .795609-3 0-3-.795609-2.683901-1.55874-2.12132-2.12132-1.55874-2.683901-.795609-3 0-3Z"/>
</g>
</g>
<g clip-path="url(#clip_8)">
<g>
<path transform="matrix(1,0,0,-1,448.63874,272.01435)" d="M0-3C.795609-3 1.55874-2.683901 2.12132-2.12132 2.683901-1.55874 3-.795609 3 0 3 .795609 2.683901 1.55874 2.12132 2.12132 1.55874 2.683901 .795609 3 0 3-.795609 3-1.55874 2.683901-2.12132 2.12132-2.683901 1.55874-3 .795609-3 0-3-.795609-2.683901-1.55874-2.12132-2.12132-1.55874-2.683901-.795609-3 0-3Z" fill="#2b8cbe" fill-opacity=".55"/>
<path transform="matrix(1,0,0,-1,448.63874,272.01435)" stroke-width="1" stroke-linecap="butt" stroke-linejoin="round" fill="none" stroke="#2b8cbe" stroke-opacity=".55" d="M0-3C.795609-3 1.55874-2.683901 2.12132-2.12132 2.683901-1.55874 3-.795609 3 0 3 .795609 2.683901 1.55874 2.12132 2.12132 1.55874 2.683901 .795609 3 0 3-.795609 3-1.55874 2.683901-2.12132 2.12132-2.683901 1.55874-3 .795609-3 0-3-.795609-2.683901-1.55874-2.12132-2.12132-1.55874-2.683901-.795609-3 0-3Z"/>
</g>
</g>
<g clip-path="url(#clip_9)">
<g>
<path transform="matrix(1,0,0,-1,478.1509,250.98787)" d="M0-3C.795609-3 1.55874-2.683901 2.12132-2.12132 2.683901-1.55874 3-.795609 3 0 3 .795609 2.683901 1.55874 2.12132 2.12132 1.55874 2.683901 .795609 3 0 3-.795609 3-1.55874 2.683901-2.12132 2.12132-2.683901 1.55874-3 .795609-3 0-3-.795609-2.683901-1.55874-2.12132-2.12132-1.55874-2.683901-.795609-3 0-3Z" fill="#2b8cbe" fill-opacity=".55"/>
<path transform="matrix(1,0,0,-1,478.1509,250.98787)" stroke-width="1" stroke-linecap="butt" stroke-linejoin="round" fill="none" stroke="#2b8cbe" stroke-opacity=".55" d="M0-3C.795609-3 1.55874-2.683901 2.12132-2.12132 2.683901-1.55874 3-.795609 3 0 3 .795609 2.683901 1.55874 2.12132 2.12132 1.55874 2.683901 .795609 3 0 3-.795609 3-1.55874 2.683901-2.12132 2.12132-2.683901 1.55874-3 .795609-3 0-3-.795609-2.683901-1.55874-2.12132-2.12132-1.55874-2.683901-.795609-3 0-3Z"/>
</g>
</g>
<g clip-path="url(#clip_10)">
<g>
<path transform="matrix(1,0,0,-1,478.7755,287.78419)" d="M0-3C.795609-3 1.55874-2.683901 2.12132-2.12132 2.683901-1.55874 3-.795609 3 0 3 .795609 2.683901 1.55874 2.12132 2.12132 1.55874 2.683901 .795609 3 0 3-.795609 3-1.55874 2.683901-2.12132 2.12132-2.683901 1.55874-3 .795609-3 0-3-.795609-2.683901-1.55874-2.12132-2.12132-1.55874-2.683901-.795609-3 0-3Z" fill="#2b8cbe" fill-opacity=".55"/>
<path transform="matrix(1,0,0,-1,478.7755,287.78419)" stroke-width="1" stroke-linecap="butt" stroke-linejoin="round" fill="none" stroke="#2b8cbe" stroke-opacity=".55" d="M0-3C.795609-3 1.55874-2.683901 2.12132-2.12132 2.683901-1.55874 3-.795609 3 0 3 .795609 2.683901 1.55874 2.12132 2.12132 1.55874 2.683901 .795609 3 0 3-.795609 3-1.55874 2.683901-2.12132 2.12132-2.683901 1.55874-3 .795609-3 0-3-.795609-2.683901-1.55874-2.12132-2.12132-1.55874-2.683901-.795609-3 0-3Z"/>
</g>
</g>
<g clip-path="url(#clip_11)">
<g>
<path transform="matrix(1,0,0,-1,480.49317,287.78419)" d="M0-3C.795609-3 1.55874-2.683901 2.12132-2.12132 2.683901-1.55874 3-.795609 3 0 3 .795609 2.683901 1.55874 2.12132 2.12132 1.55874 2.683901 .795609 3 0 3-.795609 3-1.55874 2.683901-2.12132 2.12132-2.683901 1.55874-3 .795609-3 0-3-.795609-2.683901-1.55874-2.12132-2.12132-1.55874-2.683901-.795609-3 0-3Z" fill="#2b8cbe" fill-opacity=".55"/>
<path transform="matrix(1,0,0,-1,480.49317,287.78419)" stroke-width="1" stroke-linecap="butt" stroke-linejoin="round" fill="none" stroke="#2b8cbe" stroke-opacity=".55" d="M0-3C.795609-3 1.55874-2.683901 2.12132-2.12132 2.683901-1.55874 3-.795609 3 0 3 .795609 2.683901 1.55874 2.12132 2.12132 1.55874 2.683901 .795609 3 0 3-.795609 3-1.55874 2.683901-2.12132 2.12132-2.683901 1.55874-3 .795609-3 0-3-.795609-2.683901-1.55874-2.12132-2.12132-1.55874-2.683901-.795609-3 0-3Z"/>
</g>
</g>
<g clip-path="url(#clip_12)">
<g>
<path transform="matrix(1,0,0,-1,480.49317,293.0408)" d="M0-3C.795609-3 1.55874-2.683901 2.12132-2.12132 2.683901-1.55874 3-.795609 3 0 3 .795609 2.683901 1.55874 2.12132 2.12132 1.55874 2.683901 .795609 3 0 3-.795609 3-1.55874 2.683901-2.12132 2.12132-2.683901 1.55874-3 .795609-3 0-3-.795609-2.683901-1.55874-2.12132-2.12132-1.55874-2.683901-.795609-3 0-3Z" fill="#2b8cbe" fill-opacity=".55"/>
<path transform="matrix(1,0,0,-1,480.49317,293.0408)" stroke-width="1" stroke-linecap="butt" stroke-linejoin="round" fill="none" stroke="#2b8cbe" stroke-opacity=".55" d="M0-3C.795609-3 1.55874-2.683901 2.12132-2.12132 2.683901-1.55874 3-.795609 3 0 3 .795609 2.683901 1.55874 2.12132 2.12132 1.55874 2.683901 .795609 3 0 3-.795609 3-1.55874 2.683901-2.12132 2.12132-2.683901 1.55874-3 .795609-3 0-3-.795609-2.683901-1.55874-2.12132-2.12132-1.55874-2.683901-.795609-3 0-3Z"/>
</g>
</g>
<g clip-path="url(#clip_13)">
<g>
<path transform="matrix(1,0,0,-1,518.12509,235.218)" d="M0-3C.795609-3 1.55874-2.683901 2.12132-2.12132 2.683901-1.55874 3-.795609 3 0 3 .795609 2.683901 1.55874 2.12132 2.12132 1.55874 2.683901 .795609 3 0 3-.795609 3-1.55874 2.683901-2.12132 2.12132-2.683901 1.55874-3 .795609-3 0-3-.795609-2.683901-1.55874-2.12132-2.12132-1.55874-2.683901-.795609-3 0-3Z" fill="#2b8cbe" fill-opacity=".55"/>
<path transform="matrix(1,0,0,-1,518.12509,235.218)" stroke-width="1" stroke-linecap="butt" stroke-linejoin="round" fill="none" stroke="#2b8cbe" stroke-opacity=".55" d="M0-3C.795609-3 1.55874-2.683901 2.12132-2.12132 2.683901-1.55874 3-.795609 3 0 3 .795609 2.683901 1.55874 2.12132 2.12132 1.55874 2.683901 .795609 3 0 3-.795609 3-1.55874 2.683901-2.12132 2.12132-2.683901 1.55874-3 .795609-3 0-3-.795609-2.683901-1.55874-2.12132-2.12132-1.55874-2.683901-.795609-3 0-3Z"/>
</g>
</g>
<g clip-path="url(#clip_14)">
<g>
<path transform="matrix(1,0,0,-1,537.956,277.27095)" d="M0-3C.795609-3 1.55874-2.683901 2.12132-2.12132 2.683901-1.55874 3-.795609 3 0 3 .795609 2.683901 1.55874 2.12132 2.12132 1.55874 2.683901 .795609 3 0 3-.795609 3-1.55874 2.683901-2.12132 2.12132-2.683901 1.55874-3 .795609-3 0-3-.795609-2.683901-1.55874-2.12132-2.12132-1.55874-2.683901-.795609-3 0-3Z" fill="#2b8cbe" fill-opacity=".55"/>
<path transform="matrix(1,0,0,-1,537.956,277.27095)" stroke-width="1" stroke-linecap="butt" stroke-linejoin="round" fill="none" stroke="#2b8cbe" stroke-opacity=".55" d="M0-3C.795609-3 1.55874-2.683901 2.12132-2.12132 2.683901-1.55874 3-.795609 3 0 3 .795609 2.683901 1.55874 2.12132 2.12132 1.55874 2.683901 .795609 3 0 3-.795609 3-1.55874 2.683901-2.12132 2.12132-2.683901 1.55874-3 .795609-3 0-3-.795609-2.683901-1.55874-2.12132-2.12132-1.55874-2.683901-.795609-3 0-3Z"/>
</g>
</g>
<g clip-path="url(#clip_15)">
<g>
<path transform="matrix(1,0,0,-1,538.2683,235.21799)" d="M0-3C.795609-3 1.55874-2.683901 2.12132-2.12132 2.683901-1.55874 3-.795609 3 0 3 .795609 2.683901 1.55874 2.12132 2.12132 1.55874 2.683901 .795609 3 0 3-.795609 3-1.55874 2.683901-2.12132 2.12132-2.683901 1.55874-3 .795609-3 0-3-.795609-2.683901-1.55874-2.12132-2.12132-1.55874-2.683901-.795609-3 0-3Z" fill="#2b8cbe" fill-opacity=".55"/>
<path transform="matrix(1,0,0,-1,538.2683,235.21799)" stroke-width="1" stroke-linecap="butt" stroke-linejoin="round" fill="none" stroke="#2b8cbe" stroke-opacity=".55" d="M0-3C.795609-3 1.55874-2.683901 2.12132-2.12132 2.683901-1.55874 3-.795609 3 0 3 .795609 2.683901 1.55874 2.12132 2.12132 1.55874 2.683901 .795609 3 0 3-.795609 3-1.55874 2.683901-2.12132 2.12132-2.683901 1.55874-3 .795609-3 0-3-.795609-2.683901-1.55874-2.12132-2.12132-1.55874-2.683901-.795609-3 0-3Z"/>
</g>
</g>
<g clip-path="url(#clip_16)">
<g>
<path transform="matrix(1,0,0,-1,558.5677,229.96137)" d="M0-3C.795609-3 1.55874-2.683901 2.12132-2.12132 2.683901-1.55874 3-.795609 3 0 3 .795609 2.683901 1.55874 2.12132 2.12132 1.55874 2.683901 .795609 3 0 3-.795609 3-1.55874 2.683901-2.12132 2.12132-2.683901 1.55874-3 .795609-3 0-3-.795609-2.683901-1.55874-2.12132-2.12132-1.55874-2.683901-.795609-3 0-3Z" fill="#2b8cbe" fill-opacity=".55"/>
<path transform="matrix(1,0,0,-1,558.5677,229.96137)" stroke-width="1" stroke-linecap="butt" stroke-linejoin="round" fill="none" stroke="#2b8cbe" stroke-opacity=".55" d="M0-3C.795609-3 1.55874-2.683901 2.12132-2.12132 2.683901-1.55874 3-.795609 3 0 3 .795609 2.683901 1.55874 2.12132 2.12132 1.55874 2.683901 .795609 3 0 3-.795609 3-1.55874 2.683901-2.12132 2.12132-2.683901 1.55874-3 .795609-3 0-3-.795609-2.683901-1.55874-2.12132-2.12132-1.55874-2.683901-.795609-3 0-3Z"/>
</g>
</g>
<g clip-path="url(#clip_17)">
<g>
<path transform="matrix(1,0,0,-1,581.3655,272.0143)" d="M0-3C.795609-3 1.55874-2.683901 2.12132-2.12132 2.683901-1.55874 3-.795609 3 0 3 .795609 2.683901 1.55874 2.12132 2.12132 1.55874 2.683901 .795609 3 0 3-.795609 3-1.55874 2.683901-2.12132 2.12132-2.683901 1.55874-3 .795609-3 0-3-.795609-2.683901-1.55874-2.12132-2.12132-1.55874-2.683901-.795609-3 0-3Z" fill="#2b8cbe" fill-opacity=".55"/>
<path transform="matrix(1,0,0,-1,581.3655,272.0143)" stroke-width="1" stroke-linecap="butt" stroke-linejoin="round" fill="none" stroke="#2b8cbe" stroke-opacity=".55" d="M0-3C.795609-3 1.55874-2.683901 2.12132-2.12132 2.683901-1.55874 3-.795609 3 0 3 .795609 2.683901 1.55874 2.12132 2.12132 1.55874 2.683901 .795609 3 0 3-.795609 3-1.55874 2.683901-2.12132 2.12132-2.683901 1.55874-3 .795609-3 0-3-.795609-2.683901-1.55874-2.12132-2.12132-1.55874-2.683901-.795609-3 0-3Z"/>
</g>
</g>
<g clip-path="url(#clip_18)">
<g>
<path transform="matrix(1,0,0,-1,621.02737,203.67829)" d="M0-3C.795609-3 1.55874-2.683901 2.12132-2.12132 2.683901-1.55874 3-.795609 3 0 3 .795609 2.683901 1.55874 2.12132 2.12132 1.55874 2.683901 .795609 3 0 3-.795609 3-1.55874 2.683901-2.12132 2.12132-2.683901 1.55874-3 .795609-3 0-3-.795609-2.683901-1.55874-2.12132-2.12132-1.55874-2.683901-.795609-3 0-3Z" fill="#2b8cbe" fill-opacity=".55"/>
<path transform="matrix(1,0,0,-1,621.02737,203.67829)" stroke-width="1" stroke-linecap="butt" stroke-linejoin="round" fill="none" stroke="#2b8cbe" stroke-opacity=".55" d="M0-3C.795609-3 1.55874-2.683901 2.12132-2.12132 2.683901-1.55874 3-.795609 3 0 3 .795609 2.683901 1.55874 2.12132 2.12132 1.55874 2.683901 .795609 3 0 3-.795609 3-1.55874 2.683901-2.12132 2.12132-2.683901 1.55874-3 .795609-3 0-3-.795609-2.683901-1.55874-2.12132-2.12132-1.55874-2.683901-.795609-3 0-3Z"/>
</g>
</g>
<g clip-path="url(#clip_19)">
<g>
<path transform="matrix(1,0,0,-1,657.87857,198.42166)" d="M0-3C.795609-3 1.55874-2.683901 2.12132-2.12132 2.683901-1.55874 3-.795609 3 0 3 .795609 2.683901 1.55874 2.12132 2.12132 1.55874 2.683901 .795609 3 0 3-.795609 3-1.55874 2.683901-2.12132 2.12132-2.683901 1.55874-3 .795609-3 0-3-.795609-2.683901-1.55874-2.12132-2.12132-1.55874-2.683901-.795609-3 0-3Z" fill="#2b8cbe" fill-opacity=".55"/>
<path transform="matrix(1,0,0,-1,657.87857,198.42166)" stroke-width="1" stroke-linecap="butt" stroke-linejoin="round" fill="none" stroke="#2b8cbe" stroke-opacity=".55" d="M0-3C.795609-3 1.55874-2.683901 2.12132-2.12132 2.683901-1.55874 3-.795609 3 0 3 .795609 2.683901 1.55874 2.12132 2.12132 1.55874 2.683901 .795609 3 0 3-.795609 3-1.55874 2.683901-2.12132 2.12132-2.683901 1.55874-3 .795609-3 0-3-.795609-2.683901-1.55874-2.12132-2.12132-1.55874-2.683901-.795609-3 0-3Z"/>
</g>
</g>
<g clip-path="url(#clip_20)">
<g>
<path transform="matrix(1,0,0,-1,699.10189,277.27095)" d="M0-3C.795609-3 1.55874-2.683901 2.12132-2.12132 2.683901-1.55874 3-.795609 3 0 3 .795609 2.683901 1.55874 2.12132 2.12132 1.55874 2.683901 .795609 3 0 3-.795609 3-1.55874 2.683901-2.12132 2.12132-2.683901 1.55874-3 .795609-3 0-3-.795609-2.683901-1.55874-2.12132-2.12132-1.55874-2.683901-.795609-3 0-3Z" fill="#2b8cbe" fill-opacity=".55"/>
<path transform="matrix(1,0,0,-1,699.10189,277.27095)" stroke-width="1" stroke-linecap="butt" stroke-linejoin="round" fill="none" stroke="#2b8cbe" stroke-opacity=".55" d="M0-3C.795609-3 1.55874-2.683901 2.12132-2.12132 2.683901-1.55874 3-.795609 3 0 3 .795609 2.683901 1.55874 2.12132 2.12132 1.55874 2.683901 .795609 3 0 3-.795609 3-1.55874 2.683901-2.12132 2.12132-2.683901 1.55874-3 .795609-3 0-3-.795609-2.683901-1.55874-2.12132-2.12132-1.55874-2.683901-.795609-3 0-3Z"/>
</g>
</g>
<g clip-path="url(#clip_21)">
<g>
<path transform="matrix(1,0,0,-1,737.82687,298.2974)" d="M0-3C.795609-3 1.55874-2.683901 2.12132-2.12132 2.683901-1.55874 3-.795609 3 0 3 .795609 2.683901 1.55874 2.12132 2.12132 1.55874 2.683901 .795609 3 0 3-.795609 3-1.55874 2.683901-2.12132 2.12132-2.683901 1.55874-3 .795609-3 0-3-.795609-2.683901-1.55874-2.12132-2.12132-1.55874-2.683901-.795609-3 0-3Z" fill="#2b8cbe" fill-opacity=".55"/>
<path transform="matrix(1,0,0,-1,737.82687,298.2974)" stroke-width="1" stroke-linecap="butt" stroke-linejoin="round" fill="none" stroke="#2b8cbe" stroke-opacity=".55" d="M0-3C.795609-3 1.55874-2.683901 2.12132-2.12132 2.683901-1.55874 3-.795609 3 0 3 .795609 2.683901 1.55874 2.12132 2.12132 1.55874 2.683901 .795609 3 0 3-.795609 3-1.55874 2.683901-2.12132 2.12132-2.683901 1.55874-3 .795609-3 0-3-.795609-2.683901-1.55874-2.12132-2.12132-1.55874-2.683901-.795609-3 0-3Z"/>
</g>
</g>
<g clip-path="url(#clip_22)">
<g>
<path transform="matrix(1,0,0,-1,737.82687,245.73122)" d="M0-3C.795609-3 1.55874-2.683901 2.12132-2.12132 2.683901-1.55874 3-.795609 3 0 3 .795609 2.683901 1.55874 2.12132 2.12132 1.55874 2.683901 .795609 3 0 3-.795609 3-1.55874 2.683901-2.12132 2.12132-2.683901 1.55874-3 .795609-3 0-3-.795609-2.683901-1.55874-2.12132-2.12132-1.55874-2.683901-.795609-3 0-3Z" fill="#2b8cbe" fill-opacity=".55"/>
<path transform="matrix(1,0,0,-1,737.82687,245.73122)" stroke-width="1" stroke-linecap="butt" stroke-linejoin="round" fill="none" stroke="#2b8cbe" stroke-opacity=".55" d="M0-3C.795609-3 1.55874-2.683901 2.12132-2.12132 2.683901-1.55874 3-.795609 3 0 3 .795609 2.683901 1.55874 2.12132 2.12132 1.55874 2.683901 .795609 3 0 3-.795609 3-1.55874 2.683901-2.12132 2.12132-2.683901 1.55874-3 .795609-3 0-3-.795609-2.683901-1.55874-2.12132-2.12132-1.55874-2.683901-.795609-3 0-3Z"/>
</g>
</g>
<g clip-path="url(#clip_23)">
<g>
<path transform="matrix(1,0,0,-1,737.82687,282.52754)" d="M0-3C.795609-3 1.55874-2.683901 2.12132-2.12132 2.683901-1.55874 3-.795609 3 0 3 .795609 2.683901 1.55874 2.12132 2.12132 1.55874 2.683901 .795609 3 0 3-.795609 3-1.55874 2.683901-2.12132 2.12132-2.683901 1.55874-3 .795609-3 0-3-.795609-2.683901-1.55874-2.12132-2.12132-1.55874-2.683901-.795609-3 0-3Z" fill="#2b8cbe" fill-opacity=".55"/>
<path transform="matrix(1,0,0,-1,737.82687,282.52754)" stroke-width="1" stroke-linecap="butt" stroke-linejoin="round" fill="none" stroke="#2b8cbe" stroke-opacity=".55" d="M0-3C.795609-3 1.55874-2.683901 2.12132-2.12132 2.683901-1.55874 3-.795609 3 0 3 .795609 2.683901 1.55874 2.12132 2.12132 1.55874 2.683901 .795609 3 0 3-.795609 3-1.55874 2.683901-2.12132 2.12132-2.683901 1.55874-3 .795609-3 0-3-.795609-2.683901-1.55874-2.12132-2.12132-1.55874-2.683901-.795609-3 0-3Z"/>
</g>
</g>
<g clip-path="url(#clip_24)">
<g>
<path transform="matrix(1,0,0,-1,737.82687,293.04078)" d="M0-3C.795609-3 1.55874-2.683901 2.12132-2.12132 2.683901-1.55874 3-.795609 3 0 3 .795609 2.683901 1.55874 2.12132 2.12132 1.55874 2.683901 .795609 3 0 3-.795609 3-1.55874 2.683901-2.12132 2.12132-2.683901 1.55874-3 .795609-3 0-3-.795609-2.683901-1.55874-2.12132-2.12132-1.55874-2.683901-.795609-3 0-3Z" fill="#2b8cbe" fill-opacity=".55"/>
<path transform="matrix(1,0,0,-1,737.82687,293.04078)" stroke-width="1" stroke-linecap="butt" stroke-linejoin="round" fill="none" stroke="#2b8cbe" stroke-opacity=".55" d="M0-3C.795609-3 1.55874-2.683901 2.12132-2.12132 2.683901-1.55874 3-.795609 3 0 3 .795609 2.683901 1.55874 2.12132 2.12132 1.55874 2.683901 .795609 3 0 3-.795609 3-1.55874 2.683901-2.12132 2.12132-2.683901 1.55874-3 .795609-3 0-3-.795609-2.683901-1.55874-2.12132-2.12132-1.55874-2.683901-.795609-3 0-3Z"/>
</g>
</g>
<g clip-path="url(#clip_25)">
<g>
<path transform="matrix(1,0,0,-1,433.0239,266.7577)" d="M0-3C.795609-3 1.55874-2.683901 2.12132-2.12132 2.683901-1.55874 3-.795609 3 0 3 .795609 2.683901 1.55874 2.12132 2.12132 1.55874 2.683901 .795609 3 0 3-.795609 3-1.55874 2.683901-2.12132 2.12132-2.683901 1.55874-3 .795609-3 0-3-.795609-2.683901-1.55874-2.12132-2.12132-1.55874-2.683901-.795609-3 0-3Z" fill="#2b8cbe" fill-opacity=".55"/>
<path transform="matrix(1,0,0,-1,433.0239,266.7577)" stroke-width="1" stroke-linecap="butt" stroke-linejoin="round" fill="none" stroke="#2b8cbe" stroke-opacity=".55" d="M0-3C.795609-3 1.55874-2.683901 2.12132-2.12132 2.683901-1.55874 3-.795609 3 0 3 .795609 2.683901 1.55874 2.12132 2.12132 1.55874 2.683901 .795609 3 0 3-.795609 3-1.55874 2.683901-2.12132 2.12132-2.683901 1.55874-3 .795609-3 0-3-.795609-2.683901-1.55874-2.12132-2.12132-1.55874-2.683901-.795609-3 0-3Z"/>
</g>
</g>
<g clip-path="url(#clip_26)">
<g>
<path transform="matrix(1,0,0,-1,433.49235,266.7577)" d="M0-3C.795609-3 1.55874-2.683901 2.12132-2.12132 2.683901-1.55874 3-.795609 3 0 3 .795609 2.683901 1.55874 2.12132 2.12132 1.55874 2.683901 .795609 3 0 3-.795609 3-1.55874 2.683901-2.12132 2.12132-2.683901 1.55874-3 .795609-3 0-3-.795609-2.683901-1.55874-2.12132-2.12132-1.55874-2.683901-.795609-3 0-3Z" fill="#2b8cbe" fill-opacity=".55"/>
<path transform="matrix(1,0,0,-1,433.49235,266.7577)" stroke-width="1" stroke-linecap="butt" stroke-linejoin="round" fill="none" stroke="#2b8cbe" stroke-opacity=".55" d="M0-3C.795609-3 1.55874-2.683901 2.12132-2.12132 2.683901-1.55874 3-.795609 3 0 3 .795609 2.683901 1.55874 2.12132 2.12132 1.55874 2.683901 .795609 3 0 3-.795609 3-1.55874 2.683901-2.12132 2.12132-2.683901 1.55874-3 .795609-3 0-3-.795609-2.683901-1.55874-2.12132-2.12132-1.55874-2.683901-.795609-3 0-3Z"/>
</g>
</g>
<g clip-path="url(#clip_27)">
<g>
<path transform="matrix(1,0,0,-1,433.6485,266.7577)" d="M0-3C.795609-3 1.55874-2.683901 2.12132-2.12132 2.683901-1.55874 3-.795609 3 0 3 .795609 2.683901 1.55874 2.12132 2.12132 1.55874 2.683901 .795609 3 0 3-.795609 3-1.55874 2.683901-2.12132 2.12132-2.683901 1.55874-3 .795609-3 0-3-.795609-2.683901-1.55874-2.12132-2.12132-1.55874-2.683901-.795609-3 0-3Z" fill="#2b8cbe" fill-opacity=".55"/>
<path transform="matrix(1,0,0,-1,433.6485,266.7577)" stroke-width="1" stroke-linecap="butt" stroke-linejoin="round" fill="none" stroke="#2b8cbe" stroke-opacity=".55" d="M0-3C.795609-3 1.55874-2.683901 2.12132-2.12132 2.683901-1.55874 3-.795609 3 0 3 .795609 2.683901 1.55874 2.12132 2.12132 1.55874 2.683901 .795609 3 0 3-.795609 3-1.55874 2.683901-2.12132 2.12132-2.683901 1.55874-3 .795609-3 0-3-.795609-2.683901-1.55874-2.12132-2.12132-1.55874-2.683901-.795609-3 0-3Z"/>
</g>
</g>
<g clip-path="url(#clip_28)">
<g>
<path transform="matrix(1,0,0,-1,448.01423,261.50108)" d="M0-3C.795609-3 1.55874-2.683901 2.12132-2.12132 2.683901-1.55874 3-.795609 3 0 3 .795609 2.683901 1.55874 2.12132 2.12132 1.55874 2.683901 .795609 3 0 3-.795609 3-1.55874 2.683901-2.12132 2.12132-2.683901 1.55874-3 .795609-3 0-3-.795609-2.683901-1.55874-2.12132-2.12132-1.55874-2.683901-.795609-3 0-3Z" fill="#2b8cbe" fill-opacity=".55"/>
<path transform="matrix(1,0,0,-1,448.01423,261.50108)" stroke-width="1" stroke-linecap="butt" stroke-linejoin="round" fill="none" stroke="#2b8cbe" stroke-opacity=".55" d="M0-3C.795609-3 1.55874-2.683901 2.12132-2.12132 2.683901-1.55874 3-.795609 3 0 3 .795609 2.683901 1.55874 2.12132 2.12132 1.55874 2.683901 .795609 3 0 3-.795609 3-1.55874 2.683901-2.12132 2.12132-2.683901 1.55874-3 .795609-3 0-3-.795609-2.683901-1.55874-2.12132-2.12132-1.55874-2.683901-.795609-3 0-3Z"/>
</g>
</g>
<g clip-path="url(#clip_29)">
<g>
<path transform="matrix(1,0,0,-1,448.01423,266.7577)" d="M0-3C.795609-3 1.55874-2.683901 2.12132-2.12132 2.683901-1.55874 3-.795609 3 0 3 .795609 2.683901 1.55874 2.12132 2.12132 1.55874 2.683901 .795609 3 0 3-.795609 3-1.55874 2.683901-2.12132 2.12132-2.683901 1.55874-3 .795609-3 0-3-.795609-2.683901-1.55874-2.12132-2.12132-1.55874-2.683901-.795609-3 0-3Z" fill="#2b8cbe" fill-opacity=".55"/>
<path transform="matrix(1,0,0,-1,448.01423,266.7577)" stroke-width="1" stroke-linecap="butt" stroke-linejoin="round" fill="none" stroke="#2b8cbe" stroke-opacity=".55" d="M0-3C.795609-3 1.55874-2.683901 2.12132-2.12132 2.683901-1.55874 3-.795609 3 0 3 .795609 2.683901 1.55874 2.12132 2.12132 1.55874 2.683901 .795609 3 0 3-.795609 3-1.55874 2.683901-2.12132 2.12132-2.683901 1.55874-3 .795609-3 0-3-.795609-2.683901-1.55874-2.12132-2.12132-1.55874-2.683901-.795609-3 0-3Z"/>
</g>
</g>
<g clip-path="url(#clip_30)">
<g>
<path transform="matrix(1,0,0,-1,448.79496,266.7577)" d="M0-3C.795609-3 1.55874-2.683901 2.12132-2.12132 2.683901-1.55874 3-.795609 3 0 3 .795609 2.683901 1.55874 2.12132 2.12132 1.55874 2.683901 .795609 3 0 3-.795609 3-1.55874 2.683901-2.12132 2.12132-2.683901 1.55874-3 .795609-3 0-3-.795609-2.683901-1.55874-2.12132-2.12132-1.55874-2.683901-.795609-3 0-3Z" fill="#2b8cbe" fill-opacity=".55"/>
<path transform="matrix(1,0,0,-1,448.79496,266.7577)" stroke-width="1" stroke-linecap="butt" stroke-linejoin="round" fill="none" stroke="#2b8cbe" stroke-opacity=".55" d="M0-3C.795609-3 1.55874-2.683901 2.12132-2.12132 2.683901-1.55874 3-.795609 3 0 3 .795609 2.683901 1.55874 2.12132 2.12132 1.55874 2.683901 .795609 3 0 3-.795609 3-1.55874 2.683901-2.12132 2.12132-2.683901 1.55874-3 .795609-3 0-3-.795609-2.683901-1.55874-2.12132-2.12132-1.55874-2.683901-.795609-3 0-3Z"/>
</g>
</g>
<g clip-path="url(#clip_31)">
<g>
<path transform="matrix(1,0,0,-1,477.9948,266.7577)" d="M0-3C.795609-3 1.55874-2.683901 2.12132-2.12132 2.683901-1.55874 3-.795609 3 0 3 .795609 2.683901 1.55874 2.12132 2.12132 1.55874 2.683901 .795609 3 0 3-.795609 3-1.55874 2.683901-2.12132 2.12132-2.683901 1.55874-3 .795609-3 0-3-.795609-2.683901-1.55874-2.12132-2.12132-1.55874-2.683901-.795609-3 0-3Z" fill="#2b8cbe" fill-opacity=".55"/>
<path transform="matrix(1,0,0,-1,477.9948,266.7577)" stroke-width="1" stroke-linecap="butt" stroke-linejoin="round" fill="none" stroke="#2b8cbe" stroke-opacity=".55" d="M0-3C.795609-3 1.55874-2.683901 2.12132-2.12132 2.683901-1.55874 3-.795609 3 0 3 .795609 2.683901 1.55874 2.12132 2.12132 1.55874 2.683901 .795609 3 0 3-.795609 3-1.55874 2.683901-2.12132 2.12132-2.683901 1.55874-3 .795609-3 0-3-.795609-2.683901-1.55874-2.12132-2.12132-1.55874-2.683901-.795609-3 0-3Z"/>
</g>
</g>
<g clip-path="url(#clip_32)">
<g>
<path transform="matrix(1,0,0,-1,478.15098,261.50108)" d="M0-3C.795609-3 1.55874-2.683901 2.12132-2.12132 2.683901-1.55874 3-.795609 3 0 3 .795609 2.683901 1.55874 2.12132 2.12132 1.55874 2.683901 .795609 3 0 3-.795609 3-1.55874 2.683901-2.12132 2.12132-2.683901 1.55874-3 .795609-3 0-3-.795609-2.683901-1.55874-2.12132-2.12132-1.55874-2.683901-.795609-3 0-3Z" fill="#2b8cbe" fill-opacity=".55"/>
<path transform="matrix(1,0,0,-1,478.15098,261.50108)" stroke-width="1" stroke-linecap="butt" stroke-linejoin="round" fill="none" stroke="#2b8cbe" stroke-opacity=".55" d="M0-3C.795609-3 1.55874-2.683901 2.12132-2.12132 2.683901-1.55874 3-.795609 3 0 3 .795609 2.683901 1.55874 2.12132 2.12132 1.55874 2.683901 .795609 3 0 3-.795609 3-1.55874 2.683901-2.12132 2.12132-2.683901 1.55874-3 .795609-3 0-3-.795609-2.683901-1.55874-2.12132-2.12132-1.55874-2.683901-.795609-3 0-3Z"/>
</g>
</g>
<g clip-path="url(#clip_33)">
<g>
<path transform="matrix(1,0,0,-1,478.46327,261.50108)" d="M0-3C.795609-3 1.55874-2.683901 2.12132-2.12132 2.683901-1.55874 3-.795609 3 0 3 .795609 2.683901 1.55874 2.12132 2.12132 1.55874 2.683901 .795609 3 0 3-.795609 3-1.55874 2.683901-2.12132 2.12132-2.683901 1.55874-3 .795609-3 0-3-.795609-2.683901-1.55874-2.12132-2.12132-1.55874-2.683901-.795609-3 0-3Z" fill="#2b8cbe" fill-opacity=".55"/>
<path transform="matrix(1,0,0,-1,478.46327,261.50108)" stroke-width="1" stroke-linecap="butt" stroke-linejoin="round" fill="none" stroke="#2b8cbe" stroke-opacity=".55" d="M0-3C.795609-3 1.55874-2.683901 2.12132-2.12132 2.683901-1.55874 3-.795609 3 0 3 .795609 2.683901 1.55874 2.12132 2.12132 1.55874 2.683901 .795609 3 0 3-.795609 3-1.55874 2.683901-2.12132 2.12132-2.683901 1.55874-3 .795609-3 0-3-.795609-2.683901-1.55874-2.12132-2.12132-1.55874-2.683901-.795609-3 0-3Z"/>
</g>
</g>
<g clip-path="url(#clip_34)">
<g>
<path transform="matrix(1,0,0,-1,537.95608,256.24446)" d="M0-3C.795609-3 1.55874-2.683901 2.12132-2.12132 2.683901-1.55874 3-.795609 3 0 3 .795609 2.683901 1.55874 2.12132 2.12132 1.55874 2.683901 .795609 3 0 3-.795609 3-1.55874 2.683901-2.12132 2.12132-2.683901 1.55874-3 .795609-3 0-3-.795609-2.683901-1.55874-2.12132-2.12132-1.55874-2.683901-.795609-3 0-3Z" fill="#2b8cbe" fill-opacity=".55"/>
<path transform="matrix(1,0,0,-1,537.95608,256.24446)" stroke-width="1" stroke-linecap="butt" stroke-linejoin="round" fill="none" stroke="#2b8cbe" stroke-opacity=".55" d="M0-3C.795609-3 1.55874-2.683901 2.12132-2.12132 2.683901-1.55874 3-.795609 3 0 3 .795609 2.683901 1.55874 2.12132 2.12132 1.55874 2.683901 .795609 3 0 3-.795609 3-1.55874 2.683901-2.12132 2.12132-2.683901 1.55874-3 .795609-3 0-3-.795609-2.683901-1.55874-2.12132-2.12132-1.55874-2.683901-.795609-3 0-3Z"/>
</g>
</g>
<g clip-path="url(#clip_35)">
<g>
<path transform="matrix(1,0,0,-1,537.95608,266.7577)" d="M0-3C.795609-3 1.55874-2.683901 2.12132-2.12132 2.683901-1.55874 3-.795609 3 0 3 .795609 2.683901 1.55874 2.12132 2.12132 1.55874 2.683901 .795609 3 0 3-.795609 3-1.55874 2.683901-2.12132 2.12132-2.683901 1.55874-3 .795609-3 0-3-.795609-2.683901-1.55874-2.12132-2.12132-1.55874-2.683901-.795609-3 0-3Z" fill="#2b8cbe" fill-opacity=".55"/>
<path transform="matrix(1,0,0,-1,537.95608,266.7577)" stroke-width="1" stroke-linecap="butt" stroke-linejoin="round" fill="none" stroke="#2b8cbe" stroke-opacity=".55" d="M0-3C.795609-3 1.55874-2.683901 2.12132-2.12132 2.683901-1.55874 3-.795609 3 0 3 .795609 2.683901 1.55874 2.12132 2.12132 1.55874 2.683901 .795609 3 0 3-.795609 3-1.55874 2.683901-2.12132 2.12132-2.683901 1.55874-3 .795609-3 0-3-.795609-2.683901-1.55874-2.12132-2.12132-1.55874-2.683901-.795609-3 0-3Z"/>
</g>
</g>
<g clip-path="url(#clip_36)">
<g>
<path transform="matrix(1,0,0,-1,538.2684,261.50108)" d="M0-3C.795609-3 1.55874-2.683901 2.12132-2.12132 2.683901-1.55874 3-.795609 3 0 3 .795609 2.683901 1.55874 2.12132 2.12132 1.55874 2.683901 .795609 3 0 3-.795609 3-1.55874 2.683901-2.12132 2.12132-2.683901 1.55874-3 .795609-3 0-3-.795609-2.683901-1.55874-2.12132-2.12132-1.55874-2.683901-.795609-3 0-3Z" fill="#2b8cbe" fill-opacity=".55"/>
<path transform="matrix(1,0,0,-1,538.2684,261.50108)" stroke-width="1" stroke-linecap="butt" stroke-linejoin="round" fill="none" stroke="#2b8cbe" stroke-opacity=".55" d="M0-3C.795609-3 1.55874-2.683901 2.12132-2.12132 2.683901-1.55874 3-.795609 3 0 3 .795609 2.683901 1.55874 2.12132 2.12132 1.55874 2.683901 .795609 3 0 3-.795609 3-1.55874 2.683901-2.12132 2.12132-2.683901 1.55874-3 .795609-3 0-3-.795609-2.683901-1.55874-2.12132-2.12132-1.55874-2.683901-.795609-3 0-3Z"/>
</g>
</g>
<g clip-path="url(#clip_37)">
<g>
<path transform="matrix(1,0,0,-1,635.39309,266.7577)" d="M0-3C.795609-3 1.55874-2.683901 2.12132-2.12132 2.683901-1.55874 3-.795609 3 0 3 .795609 2.683901 1.55874 2.12132 2.12132 1.55874 2.683901 .795609 3 0 3-.795609 3-1.55874 2.683901-2.12132 2.12132-2.683901 1.55874-3 .795609-3 0-3-.795609-2.683901-1.55874-2.12132-2.12132-1.55874-2.683901-.795609-3 0-3Z" fill="#2b8cbe" fill-opacity=".55"/>
<path transform="matrix(1,0,0,-1,635.39309,266.7577)" stroke-width="1" stroke-linecap="butt" stroke-linejoin="round" fill="none" stroke="#2b8cbe" stroke-opacity=".55" d="M0-3C.795609-3 1.55874-2.683901 2.12132-2.12132 2.683901-1.55874 3-.795609 3 0 3 .795609 2.683901 1.55874 2.12132 2.12132 1.55874 2.683901 .795609 3 0 3-.795609 3-1.55874 2.683901-2.12132 2.12132-2.683901 1.55874-3 .795609-3 0-3-.795609-2.683901-1.55874-2.12132-2.12132-1.55874-2.683901-.795609-3 0-3Z"/>
</g>
</g>
<g clip-path="url(#clip_38)">
<g>
<path transform="matrix(1,0,0,-1,657.87857,250.98784)" d="M0-3C.795609-3 1.55874-2.683901 2.12132-2.12132 2.683901-1.55874 3-.795609 3 0 3 .795609 2.683901 1.55874 2.12132 2.12132 1.55874 2.683901 .795609 3 0 3-.795609 3-1.55874 2.683901-2.12132 2.12132-2.683901 1.55874-3 .795609-3 0-3-.795609-2.683901-1.55874-2.12132-2.12132-1.55874-2.683901-.795609-3 0-3Z" fill="#2b8cbe" fill-opacity=".55"/>
<path transform="matrix(1,0,0,-1,657.87857,250.98784)" stroke-width="1" stroke-linecap="butt" stroke-linejoin="round" fill="none" stroke="#2b8cbe" stroke-opacity=".55" d="M0-3C.795609-3 1.55874-2.683901 2.12132-2.12132 2.683901-1.55874 3-.795609 3 0 3 .795609 2.683901 1.55874 2.12132 2.12132 1.55874 2.683901 .795609 3 0 3-.795609 3-1.55874 2.683901-2.12132 2.12132-2.683901 1.55874-3 .795609-3 0-3-.795609-2.683901-1.55874-2.12132-2.12132-1.55874-2.683901-.795609-3 0-3Z"/>
</g>
</g>
<g clip-path="url(#clip_39)">
<g>
<path transform="matrix(1,0,0,-1,657.87857,261.50108)" d="M0-3C.795609-3 1.55874-2.683901 2.12132-2.12132 2.683901-1.55874 3-.795609 3 0 3 .795609 2.683901 1.55874 2.12132 2.12132 1.55874 2.683901 .795609 3 0 3-.795609 3-1.55874 2.683901-2.12132 2.12132-2.683901 1.55874-3 .795609-3 0-3-.795609-2.683901-1.55874-2.12132-2.12132-1.55874-2.683901-.795609-3 0-3Z" fill="#2b8cbe" fill-opacity=".55"/>
<path transform="matrix(1,0,0,-1,657.87857,261.50108)" stroke-width="1" stroke-linecap="butt" stroke-linejoin="round" fill="none" stroke="#2b8cbe" stroke-opacity=".55" d="M0-3C.795609-3 1.55874-2.683901 2.12132-2.12132 2.683901-1.55874 3-.795609 3 0 3 .795609 2.683901 1.55874 2.12132 2.12132 1.55874 2.683901 .795609 3 0 3-.795609 3-1.55874 2.683901-2.12132 2.12132-2.683901 1.55874-3 .795609-3 0-3-.795609-2.683901-1.55874-2.12132-2.12132-1.55874-2.683901-.795609-3 0-3Z"/>
</g>
</g>
</g>
<g clip-path="url(#clip_40)">
<g clip-path="url(#clip_41)">
<g>
<path transform="matrix(1,0,0,-1,517.9689,293.04084)" d="M0-3C.795609-3 1.55874-2.683901 2.12132-2.12132 2.683901-1.55874 3-.795609 3 0 3 .795609 2.683901 1.55874 2.12132 2.12132 1.55874 2.683901 .795609 3 0 3-.795609 3-1.55874 2.683901-2.12132 2.12132-2.683901 1.55874-3 .795609-3 0-3-.795609-2.683901-1.55874-2.12132-2.12132-1.55874-2.683901-.795609-3 0-3Z" fill="#6a994e" fill-opacity=".55"/>
<path transform="matrix(1,0,0,-1,517.9689,293.04084)" stroke-width="1" stroke-linecap="butt" stroke-linejoin="round" fill="none" stroke="#6a994e" stroke-opacity=".55" d="M0-3C.795609-3 1.55874-2.683901 2.12132-2.12132 2.683901-1.55874 3-.795609 3 0 3 .795609 2.683901 1.55874 2.12132 2.12132 1.55874 2.683901 .795609 3 0 3-.795609 3-1.55874 2.683901-2.12132 2.12132-2.683901 1.55874-3 .795609-3 0-3-.795609-2.683901-1.55874-2.12132-2.12132-1.55874-2.683901-.795609-3 0-3Z"/>
</g>
</g>
<g clip-path="url(#clip_42)">
<g>
<path transform="matrix(1,0,0,-1,558.5676,293.04084)" d="M0-3C.795609-3 1.55874-2.683901 2.12132-2.12132 2.683901-1.55874 3-.795609 3 0 3 .795609 2.683901 1.55874 2.12132 2.12132 1.55874 2.683901 .795609 3 0 3-.795609 3-1.55874 2.683901-2.12132 2.12132-2.683901 1.55874-3 .795609-3 0-3-.795609-2.683901-1.55874-2.12132-2.12132-1.55874-2.683901-.795609-3 0-3Z" fill="#6a994e" fill-opacity=".55"/>
<path transform="matrix(1,0,0,-1,558.5676,293.04084)" stroke-width="1" stroke-linecap="butt" stroke-linejoin="round" fill="none" stroke="#6a994e" stroke-opacity=".55" d="M0-3C.795609-3 1.55874-2.683901 2.12132-2.12132 2.683901-1.55874 3-.795609 3 0 3 .795609 2.683901 1.55874 2.12132 2.12132 1.55874 2.683901 .795609 3 0 3-.795609 3-1.55874 2.683901-2.12132 2.12132-2.683901 1.55874-3 .795609-3 0-3-.795609-2.683901-1.55874-2.12132-2.12132-1.55874-2.683901-.795609-3 0-3Z"/>
</g>
</g>
<g clip-path="url(#clip_43)">
<g>
<path transform="matrix(1,0,0,-1,621.0272,298.29747)" d="M0-3C.795609-3 1.55874-2.683901 2.12132-2.12132 2.683901-1.55874 3-.795609 3 0 3 .795609 2.683901 1.55874 2.12132 2.12132 1.55874 2.683901 .795609 3 0 3-.795609 3-1.55874 2.683901-2.12132 2.12132-2.683901 1.55874-3 .795609-3 0-3-.795609-2.683901-1.55874-2.12132-2.12132-1.55874-2.683901-.795609-3 0-3Z" fill="#6a994e" fill-opacity=".55"/>
<path transform="matrix(1,0,0,-1,621.0272,298.29747)" stroke-width="1" stroke-linecap="butt" stroke-linejoin="round" fill="none" stroke="#6a994e" stroke-opacity=".55" d="M0-3C.795609-3 1.55874-2.683901 2.12132-2.12132 2.683901-1.55874 3-.795609 3 0 3 .795609 2.683901 1.55874 2.12132 2.12132 1.55874 2.683901 .795609 3 0 3-.795609 3-1.55874 2.683901-2.12132 2.12132-2.683901 1.55874-3 .795609-3 0-3-.795609-2.683901-1.55874-2.12132-2.12132-1.55874-2.683901-.795609-3 0-3Z"/>
</g>
</g>
<g clip-path="url(#clip_44)">
<g>
<path transform="matrix(1,0,0,-1,699.10177,298.29747)" d="M0-3C.795609-3 1.55874-2.683901 2.12132-2.12132 2.683901-1.55874 3-.795609 3 0 3 .795609 2.683901 1.55874 2.12132 2.12132 1.55874 2.683901 .795609 3 0 3-.795609 3-1.55874 2.683901-2.12132 2.12132-2.683901 1.55874-3 .795609-3 0-3-.795609-2.683901-1.55874-2.12132-2.12132-1.55874-2.683901-.795609-3 0-3Z" fill="#6a994e" fill-opacity=".55"/>
<path transform="matrix(1,0,0,-1,699.10177,298.29747)" stroke-width="1" stroke-linecap="butt" stroke-linejoin="round" fill="none" stroke="#6a994e" stroke-opacity=".55" d="M0-3C.795609-3 1.55874-2.683901 2.12132-2.12132 2.683901-1.55874 3-.795609 3 0 3 .795609 2.683901 1.55874 2.12132 2.12132 1.55874 2.683901 .795609 3 0 3-.795609 3-1.55874 2.683901-2.12132 2.12132-2.683901 1.55874-3 .795609-3 0-3-.795609-2.683901-1.55874-2.12132-2.12132-1.55874-2.683901-.795609-3 0-3Z"/>
</g>
</g>
<g clip-path="url(#clip_45)">
<g>
<path transform="matrix(1,0,0,-1,737.8267,293.04084)" d="M0-3C.795609-3 1.55874-2.683901 2.12132-2.12132 2.683901-1.55874 3-.795609 3 0 3 .795609 2.683901 1.55874 2.12132 2.12132 1.55874 2.683901 .795609 3 0 3-.795609 3-1.55874 2.683901-2.12132 2.12132-2.683901 1.55874-3 .795609-3 0-3-.795609-2.683901-1.55874-2.12132-2.12132-1.55874-2.683901-.795609-3 0-3Z" fill="#6a994e" fill-opacity=".55"/>
<path transform="matrix(1,0,0,-1,737.8267,293.04084)" stroke-width="1" stroke-linecap="butt" stroke-linejoin="round" fill="none" stroke="#6a994e" stroke-opacity=".55" d="M0-3C.795609-3 1.55874-2.683901 2.12132-2.12132 2.683901-1.55874 3-.795609 3 0 3 .795609 2.683901 1.55874 2.12132 2.12132 1.55874 2.683901 .795609 3 0 3-.795609 3-1.55874 2.683901-2.12132 2.12132-2.683901 1.55874-3 .795609-3 0-3-.795609-2.683901-1.55874-2.12132-2.12132-1.55874-2.683901-.795609-3 0-3Z"/>
</g>
</g>
<g clip-path="url(#clip_46)">
<g>
<path transform="matrix(1,0,0,-1,737.8267,287.7842)" d="M0-3C.795609-3 1.55874-2.683901 2.12132-2.12132 2.683901-1.55874 3-.795609 3 0 3 .795609 2.683901 1.55874 2.12132 2.12132 1.55874 2.683901 .795609 3 0 3-.795609 3-1.55874 2.683901-2.12132 2.12132-2.683901 1.55874-3 .795609-3 0-3-.795609-2.683901-1.55874-2.12132-2.12132-1.55874-2.683901-.795609-3 0-3Z" fill="#6a994e" fill-opacity=".55"/>
<path transform="matrix(1,0,0,-1,737.8267,287.7842)" stroke-width="1" stroke-linecap="butt" stroke-linejoin="round" fill="none" stroke="#6a994e" stroke-opacity=".55" d="M0-3C.795609-3 1.55874-2.683901 2.12132-2.12132 2.683901-1.55874 3-.795609 3 0 3 .795609 2.683901 1.55874 2.12132 2.12132 1.55874 2.683901 .795609 3 0 3-.795609 3-1.55874 2.683901-2.12132 2.12132-2.683901 1.55874-3 .795609-3 0-3-.795609-2.683901-1.55874-2.12132-2.12132-1.55874-2.683901-.795609-3 0-3Z"/>
</g>
</g>
<g clip-path="url(#clip_47)">
<g>
<path transform="matrix(1,0,0,-1,737.8267,298.29747)" d="M0-3C.795609-3 1.55874-2.683901 2.12132-2.12132 2.683901-1.55874 3-.795609 3 0 3 .795609 2.683901 1.55874 2.12132 2.12132 1.55874 2.683901 .795609 3 0 3-.795609 3-1.55874 2.683901-2.12132 2.12132-2.683901 1.55874-3 .795609-3 0-3-.795609-2.683901-1.55874-2.12132-2.12132-1.55874-2.683901-.795609-3 0-3Z" fill="#6a994e" fill-opacity=".55"/>
<path transform="matrix(1,0,0,-1,737.8267,298.29747)" stroke-width="1" stroke-linecap="butt" stroke-linejoin="round" fill="none" stroke="#6a994e" stroke-opacity=".55" d="M0-3C.795609-3 1.55874-2.683901 2.12132-2.12132 2.683901-1.55874 3-.795609 3 0 3 .795609 2.683901 1.55874 2.12132 2.12132 1.55874 2.683901 .795609 3 0 3-.795609 3-1.55874 2.683901-2.12132 2.12132-2.683901 1.55874-3 .795609-3 0-3-.795609-2.683901-1.55874-2.12132-2.12132-1.55874-2.683901-.795609-3 0-3Z"/>
</g>
</g>
<g clip-path="url(#clip_48)">
<g>
<path transform="matrix(1,0,0,-1,737.8267,293.04084)" d="M0-3C.795609-3 1.55874-2.683901 2.12132-2.12132 2.683901-1.55874 3-.795609 3 0 3 .795609 2.683901 1.55874 2.12132 2.12132 1.55874 2.683901 .795609 3 0 3-.795609 3-1.55874 2.683901-2.12132 2.12132-2.683901 1.55874-3 .795609-3 0-3-.795609-2.683901-1.55874-2.12132-2.12132-1.55874-2.683901-.795609-3 0-3Z" fill="#6a994e" fill-opacity=".55"/>
<path transform="matrix(1,0,0,-1,737.8267,293.04084)" stroke-width="1" stroke-linecap="butt" stroke-linejoin="round" fill="none" stroke="#6a994e" stroke-opacity=".55" d="M0-3C.795609-3 1.55874-2.683901 2.12132-2.12132 2.683901-1.55874 3-.795609 3 0 3 .795609 2.683901 1.55874 2.12132 2.12132 1.55874 2.683901 .795609 3 0 3-.795609 3-1.55874 2.683901-2.12132 2.12132-2.683901 1.55874-3 .795609-3 0-3-.795609-2.683901-1.55874-2.12132-2.12132-1.55874-2.683901-.795609-3 0-3Z"/>
</g>
</g>
<g clip-path="url(#clip_49)">
<g>
<path transform="matrix(1,0,0,-1,737.98287,298.29747)" d="M0-3C.795609-3 1.55874-2.683901 2.12132-2.12132 2.683901-1.55874 3-.795609 3 0 3 .795609 2.683901 1.55874 2.12132 2.12132 1.55874 2.683901 .795609 3 0 3-.795609 3-1.55874 2.683901-2.12132 2.12132-2.683901 1.55874-3 .795609-3 0-3-.795609-2.683901-1.55874-2.12132-2.12132-1.55874-2.683901-.795609-3 0-3Z" fill="#6a994e" fill-opacity=".55"/>
<path transform="matrix(1,0,0,-1,737.98287,298.29747)" stroke-width="1" stroke-linecap="butt" stroke-linejoin="round" fill="none" stroke="#6a994e" stroke-opacity=".55" d="M0-3C.795609-3 1.55874-2.683901 2.12132-2.12132 2.683901-1.55874 3-.795609 3 0 3 .795609 2.683901 1.55874 2.12132 2.12132 1.55874 2.683901 .795609 3 0 3-.795609 3-1.55874 2.683901-2.12132 2.12132-2.683901 1.55874-3 .795609-3 0-3-.795609-2.683901-1.55874-2.12132-2.12132-1.55874-2.683901-.795609-3 0-3Z"/>
</g>
</g>
</g>
<g clip-path="url(#clip_50)">
<g clip-path="url(#clip_51)">
<g>
<path transform="matrix(1,0,0,-1,443.01734,256.2445)" d="M0-3C.795609-3 1.55874-2.683901 2.12132-2.12132 2.683901-1.55874 3-.795609 3 0 3 .795609 2.683901 1.55874 2.12132 2.12132 1.55874 2.683901 .795609 3 0 3-.795609 3-1.55874 2.683901-2.12132 2.12132-2.683901 1.55874-3 .795609-3 0-3-.795609-2.683901-1.55874-2.12132-2.12132-1.55874-2.683901-.795609-3 0-3Z" fill="#f0a202" fill-opacity=".55"/>
<path transform="matrix(1,0,0,-1,443.01734,256.2445)" stroke-width="1" stroke-linecap="butt" stroke-linejoin="round" fill="none" stroke="#f0a202" stroke-opacity=".55" d="M0-3C.795609-3 1.55874-2.683901 2.12132-2.12132 2.683901-1.55874 3-.795609 3 0 3 .795609 2.683901 1.55874 2.12132 2.12132 1.55874 2.683901 .795609 3 0 3-.795609 3-1.55874 2.683901-2.12132 2.12132-2.683901 1.55874-3 .795609-3 0-3-.795609-2.683901-1.55874-2.12132-2.12132-1.55874-2.683901-.795609-3 0-3Z"/>
</g>
</g>
<g clip-path="url(#clip_52)">
<g>
<path transform="matrix(1,0,0,-1,458.00764,235.21804)" d="M0-3C.795609-3 1.55874-2.683901 2.12132-2.12132 2.683901-1.55874 3-.795609 3 0 3 .795609 2.683901 1.55874 2.12132 2.12132 1.55874 2.683901 .795609 3 0 3-.795609 3-1.55874 2.683901-2.12132 2.12132-2.683901 1.55874-3 .795609-3 0-3-.795609-2.683901-1.55874-2.12132-2.12132-1.55874-2.683901-.795609-3 0-3Z" fill="#f0a202" fill-opacity=".55"/>
<path transform="matrix(1,0,0,-1,458.00764,235.21804)" stroke-width="1" stroke-linecap="butt" stroke-linejoin="round" fill="none" stroke="#f0a202" stroke-opacity=".55" d="M0-3C.795609-3 1.55874-2.683901 2.12132-2.12132 2.683901-1.55874 3-.795609 3 0 3 .795609 2.683901 1.55874 2.12132 2.12132 1.55874 2.683901 .795609 3 0 3-.795609 3-1.55874 2.683901-2.12132 2.12132-2.683901 1.55874-3 .795609-3 0-3-.795609-2.683901-1.55874-2.12132-2.12132-1.55874-2.683901-.795609-3 0-3Z"/>
</g>
</g>
<g clip-path="url(#clip_53)">
<g>
<path transform="matrix(1,0,0,-1,480.4931,240.47466)" d="M0-3C.795609-3 1.55874-2.683901 2.12132-2.12132 2.683901-1.55874 3-.795609 3 0 3 .795609 2.683901 1.55874 2.12132 2.12132 1.55874 2.683901 .795609 3 0 3-.795609 3-1.55874 2.683901-2.12132 2.12132-2.683901 1.55874-3 .795609-3 0-3-.795609-2.683901-1.55874-2.12132-2.12132-1.55874-2.683901-.795609-3 0-3Z" fill="#f0a202" fill-opacity=".55"/>
<path transform="matrix(1,0,0,-1,480.4931,240.47466)" stroke-width="1" stroke-linecap="butt" stroke-linejoin="round" fill="none" stroke="#f0a202" stroke-opacity=".55" d="M0-3C.795609-3 1.55874-2.683901 2.12132-2.12132 2.683901-1.55874 3-.795609 3 0 3 .795609 2.683901 1.55874 2.12132 2.12132 1.55874 2.683901 .795609 3 0 3-.795609 3-1.55874 2.683901-2.12132 2.12132-2.683901 1.55874-3 .795609-3 0-3-.795609-2.683901-1.55874-2.12132-2.12132-1.55874-2.683901-.795609-3 0-3Z"/>
</g>
</g>
<g clip-path="url(#clip_54)">
<g>
<path transform="matrix(1,0,0,-1,518.4373,235.21804)" d="M0-3C.795609-3 1.55874-2.683901 2.12132-2.12132 2.683901-1.55874 3-.795609 3 0 3 .795609 2.683901 1.55874 2.12132 2.12132 1.55874 2.683901 .795609 3 0 3-.795609 3-1.55874 2.683901-2.12132 2.12132-2.683901 1.55874-3 .795609-3 0-3-.795609-2.683901-1.55874-2.12132-2.12132-1.55874-2.683901-.795609-3 0-3Z" fill="#f0a202" fill-opacity=".55"/>
<path transform="matrix(1,0,0,-1,518.4373,235.21804)" stroke-width="1" stroke-linecap="butt" stroke-linejoin="round" fill="none" stroke="#f0a202" stroke-opacity=".55" d="M0-3C.795609-3 1.55874-2.683901 2.12132-2.12132 2.683901-1.55874 3-.795609 3 0 3 .795609 2.683901 1.55874 2.12132 2.12132 1.55874 2.683901 .795609 3 0 3-.795609 3-1.55874 2.683901-2.12132 2.12132-2.683901 1.55874-3 .795609-3 0-3-.795609-2.683901-1.55874-2.12132-2.12132-1.55874-2.683901-.795609-3 0-3Z"/>
</g>
</g>
<g clip-path="url(#clip_55)">
<g>
<path transform="matrix(1,0,0,-1,558.5676,224.7048)" d="M0-3C.795609-3 1.55874-2.683901 2.12132-2.12132 2.683901-1.55874 3-.795609 3 0 3 .795609 2.683901 1.55874 2.12132 2.12132 1.55874 2.683901 .795609 3 0 3-.795609 3-1.55874 2.683901-2.12132 2.12132-2.683901 1.55874-3 .795609-3 0-3-.795609-2.683901-1.55874-2.12132-2.12132-1.55874-2.683901-.795609-3 0-3Z" fill="#f0a202" fill-opacity=".55"/>
<path transform="matrix(1,0,0,-1,558.5676,224.7048)" stroke-width="1" stroke-linecap="butt" stroke-linejoin="round" fill="none" stroke="#f0a202" stroke-opacity=".55" d="M0-3C.795609-3 1.55874-2.683901 2.12132-2.12132 2.683901-1.55874 3-.795609 3 0 3 .795609 2.683901 1.55874 2.12132 2.12132 1.55874 2.683901 .795609 3 0 3-.795609 3-1.55874 2.683901-2.12132 2.12132-2.683901 1.55874-3 .795609-3 0-3-.795609-2.683901-1.55874-2.12132-2.12132-1.55874-2.683901-.795609-3 0-3Z"/>
</g>
</g>
<g clip-path="url(#clip_56)">
<g>
<path transform="matrix(1,0,0,-1,621.0272,88.03273)" d="M0-3C.795609-3 1.55874-2.683901 2.12132-2.12132 2.683901-1.55874 3-.795609 3 0 3 .795609 2.683901 1.55874 2.12132 2.12132 1.55874 2.683901 .795609 3 0 3-.795609 3-1.55874 2.683901-2.12132 2.12132-2.683901 1.55874-3 .795609-3 0-3-.795609-2.683901-1.55874-2.12132-2.12132-1.55874-2.683901-.795609-3 0-3Z" fill="#f0a202" fill-opacity=".55"/>
<path transform="matrix(1,0,0,-1,621.0272,88.03273)" stroke-width="1" stroke-linecap="butt" stroke-linejoin="round" fill="none" stroke="#f0a202" stroke-opacity=".55" d="M0-3C.795609-3 1.55874-2.683901 2.12132-2.12132 2.683901-1.55874 3-.795609 3 0 3 .795609 2.683901 1.55874 2.12132 2.12132 1.55874 2.683901 .795609 3 0 3-.795609 3-1.55874 2.683901-2.12132 2.12132-2.683901 1.55874-3 .795609-3 0-3-.795609-2.683901-1.55874-2.12132-2.12132-1.55874-2.683901-.795609-3 0-3Z"/>
</g>
</g>
<g clip-path="url(#clip_57)">
<g>
<path transform="matrix(1,0,0,-1,699.2579,51.236406)" d="M0-3C.795609-3 1.55874-2.683901 2.12132-2.12132 2.683901-1.55874 3-.795609 3 0 3 .795609 2.683901 1.55874 2.12132 2.12132 1.55874 2.683901 .795609 3 0 3-.795609 3-1.55874 2.683901-2.12132 2.12132-2.683901 1.55874-3 .795609-3 0-3-.795609-2.683901-1.55874-2.12132-2.12132-1.55874-2.683901-.795609-3 0-3Z" fill="#f0a202" fill-opacity=".55"/>
<path transform="matrix(1,0,0,-1,699.2579,51.236406)" stroke-width="1" stroke-linecap="butt" stroke-linejoin="round" fill="none" stroke="#f0a202" stroke-opacity=".55" d="M0-3C.795609-3 1.55874-2.683901 2.12132-2.12132 2.683901-1.55874 3-.795609 3 0 3 .795609 2.683901 1.55874 2.12132 2.12132 1.55874 2.683901 .795609 3 0 3-.795609 3-1.55874 2.683901-2.12132 2.12132-2.683901 1.55874-3 .795609-3 0-3-.795609-2.683901-1.55874-2.12132-2.12132-1.55874-2.683901-.795609-3 0-3Z"/>
</g>
</g>
<g clip-path="url(#clip_58)">
<g>
<path transform="matrix(1,0,0,-1,737.82669,277.271)" d="M0-3C.795609-3 1.55874-2.683901 2.12132-2.12132 2.683901-1.55874 3-.795609 3 0 3 .795609 2.683901 1.55874 2.12132 2.12132 1.55874 2.683901 .795609 3 0 3-.795609 3-1.55874 2.683901-2.12132 2.12132-2.683901 1.55874-3 .795609-3 0-3-.795609-2.683901-1.55874-2.12132-2.12132-1.55874-2.683901-.795609-3 0-3Z" fill="#f0a202" fill-opacity=".55"/>
<path transform="matrix(1,0,0,-1,737.82669,277.271)" stroke-width="1" stroke-linecap="butt" stroke-linejoin="round" fill="none" stroke="#f0a202" stroke-opacity=".55" d="M0-3C.795609-3 1.55874-2.683901 2.12132-2.12132 2.683901-1.55874 3-.795609 3 0 3 .795609 2.683901 1.55874 2.12132 2.12132 1.55874 2.683901 .795609 3 0 3-.795609 3-1.55874 2.683901-2.12132 2.12132-2.683901 1.55874-3 .795609-3 0-3-.795609-2.683901-1.55874-2.12132-2.12132-1.55874-2.683901-.795609-3 0-3Z"/>
</g>
</g>
<g clip-path="url(#clip_59)">
<g>
<path transform="matrix(1,0,0,-1,737.82669,266.75776)" d="M0-3C.795609-3 1.55874-2.683901 2.12132-2.12132 2.683901-1.55874 3-.795609 3 0 3 .795609 2.683901 1.55874 2.12132 2.12132 1.55874 2.683901 .795609 3 0 3-.795609 3-1.55874 2.683901-2.12132 2.12132-2.683901 1.55874-3 .795609-3 0-3-.795609-2.683901-1.55874-2.12132-2.12132-1.55874-2.683901-.795609-3 0-3Z" fill="#f0a202" fill-opacity=".55"/>
<path transform="matrix(1,0,0,-1,737.82669,266.75776)" stroke-width="1" stroke-linecap="butt" stroke-linejoin="round" fill="none" stroke="#f0a202" stroke-opacity=".55" d="M0-3C.795609-3 1.55874-2.683901 2.12132-2.12132 2.683901-1.55874 3-.795609 3 0 3 .795609 2.683901 1.55874 2.12132 2.12132 1.55874 2.683901 .795609 3 0 3-.795609 3-1.55874 2.683901-2.12132 2.12132-2.683901 1.55874-3 .795609-3 0-3-.795609-2.683901-1.55874-2.12132-2.12132-1.55874-2.683901-.795609-3 0-3Z"/>
</g>
</g>
<g clip-path="url(#clip_60)">
<g>
<path transform="matrix(1,0,0,-1,737.82669,35.466554)" d="M0-3C.795609-3 1.55874-2.683901 2.12132-2.12132 2.683901-1.55874 3-.795609 3 0 3 .795609 2.683901 1.55874 2.12132 2.12132 1.55874 2.683901 .795609 3 0 3-.795609 3-1.55874 2.683901-2.12132 2.12132-2.683901 1.55874-3 .795609-3 0-3-.795609-2.683901-1.55874-2.12132-2.12132-1.55874-2.683901-.795609-3 0-3Z" fill="#f0a202" fill-opacity=".55"/>
<path transform="matrix(1,0,0,-1,737.82669,35.466554)" stroke-width="1" stroke-linecap="butt" stroke-linejoin="round" fill="none" stroke="#f0a202" stroke-opacity=".55" d="M0-3C.795609-3 1.55874-2.683901 2.12132-2.12132 2.683901-1.55874 3-.795609 3 0 3 .795609 2.683901 1.55874 2.12132 2.12132 1.55874 2.683901 .795609 3 0 3-.795609 3-1.55874 2.683901-2.12132 2.12132-2.683901 1.55874-3 .795609-3 0-3-.795609-2.683901-1.55874-2.12132-2.12132-1.55874-2.683901-.795609-3 0-3Z"/>
</g>
</g>
<g clip-path="url(#clip_61)">
<g>
<path transform="matrix(1,0,0,-1,737.82669,261.50114)" d="M0-3C.795609-3 1.55874-2.683901 2.12132-2.12132 2.683901-1.55874 3-.795609 3 0 3 .795609 2.683901 1.55874 2.12132 2.12132 1.55874 2.683901 .795609 3 0 3-.795609 3-1.55874 2.683901-2.12132 2.12132-2.683901 1.55874-3 .795609-3 0-3-.795609-2.683901-1.55874-2.12132-2.12132-1.55874-2.683901-.795609-3 0-3Z" fill="#f0a202" fill-opacity=".55"/>
<path transform="matrix(1,0,0,-1,737.82669,261.50114)" stroke-width="1" stroke-linecap="butt" stroke-linejoin="round" fill="none" stroke="#f0a202" stroke-opacity=".55" d="M0-3C.795609-3 1.55874-2.683901 2.12132-2.12132 2.683901-1.55874 3-.795609 3 0 3 .795609 2.683901 1.55874 2.12132 2.12132 1.55874 2.683901 .795609 3 0 3-.795609 3-1.55874 2.683901-2.12132 2.12132-2.683901 1.55874-3 .795609-3 0-3-.795609-2.683901-1.55874-2.12132-2.12132-1.55874-2.683901-.795609-3 0-3Z"/>
</g>
</g>
<g clip-path="url(#clip_62)">
<g>
<path transform="matrix(1,0,0,-1,737.82669,82.77612)" d="M0-3C.795609-3 1.55874-2.683901 2.12132-2.12132 2.683901-1.55874 3-.795609 3 0 3 .795609 2.683901 1.55874 2.12132 2.12132 1.55874 2.683901 .795609 3 0 3-.795609 3-1.55874 2.683901-2.12132 2.12132-2.683901 1.55874-3 .795609-3 0-3-.795609-2.683901-1.55874-2.12132-2.12132-1.55874-2.683901-.795609-3 0-3Z" fill="#f0a202" fill-opacity=".55"/>
<path transform="matrix(1,0,0,-1,737.82669,82.77612)" stroke-width="1" stroke-linecap="butt" stroke-linejoin="round" fill="none" stroke="#f0a202" stroke-opacity=".55" d="M0-3C.795609-3 1.55874-2.683901 2.12132-2.12132 2.683901-1.55874 3-.795609 3 0 3 .795609 2.683901 1.55874 2.12132 2.12132 1.55874 2.683901 .795609 3 0 3-.795609 3-1.55874 2.683901-2.12132 2.12132-2.683901 1.55874-3 .795609-3 0-3-.795609-2.683901-1.55874-2.12132-2.12132-1.55874-2.683901-.795609-3 0-3Z"/>
</g>
</g>
<g clip-path="url(#clip_63)">
<g>
<path transform="matrix(1,0,0,-1,737.9828,287.78425)" d="M0-3C.795609-3 1.55874-2.683901 2.12132-2.12132 2.683901-1.55874 3-.795609 3 0 3 .795609 2.683901 1.55874 2.12132 2.12132 1.55874 2.683901 .795609 3 0 3-.795609 3-1.55874 2.683901-2.12132 2.12132-2.683901 1.55874-3 .795609-3 0-3-.795609-2.683901-1.55874-2.12132-2.12132-1.55874-2.683901-.795609-3 0-3Z" fill="#f0a202" fill-opacity=".55"/>
<path transform="matrix(1,0,0,-1,737.9828,287.78425)" stroke-width="1" stroke-linecap="butt" stroke-linejoin="round" fill="none" stroke="#f0a202" stroke-opacity=".55" d="M0-3C.795609-3 1.55874-2.683901 2.12132-2.12132 2.683901-1.55874 3-.795609 3 0 3 .795609 2.683901 1.55874 2.12132 2.12132 1.55874 2.683901 .795609 3 0 3-.795609 3-1.55874 2.683901-2.12132 2.12132-2.683901 1.55874-3 .795609-3 0-3-.795609-2.683901-1.55874-2.12132-2.12132-1.55874-2.683901-.795609-3 0-3Z"/>
</g>
</g>
<g clip-path="url(#clip_64)">
<g>
<path transform="matrix(1,0,0,-1,738.1389,240.47467)" d="M0-3C.795609-3 1.55874-2.683901 2.12132-2.12132 2.683901-1.55874 3-.795609 3 0 3 .795609 2.683901 1.55874 2.12132 2.12132 1.55874 2.683901 .795609 3 0 3-.795609 3-1.55874 2.683901-2.12132 2.12132-2.683901 1.55874-3 .795609-3 0-3-.795609-2.683901-1.55874-2.12132-2.12132-1.55874-2.683901-.795609-3 0-3Z" fill="#f0a202" fill-opacity=".55"/>
<path transform="matrix(1,0,0,-1,738.1389,240.47467)" stroke-width="1" stroke-linecap="butt" stroke-linejoin="round" fill="none" stroke="#f0a202" stroke-opacity=".55" d="M0-3C.795609-3 1.55874-2.683901 2.12132-2.12132 2.683901-1.55874 3-.795609 3 0 3 .795609 2.683901 1.55874 2.12132 2.12132 1.55874 2.683901 .795609 3 0 3-.795609 3-1.55874 2.683901-2.12132 2.12132-2.683901 1.55874-3 .795609-3 0-3-.795609-2.683901-1.55874-2.12132-2.12132-1.55874-2.683901-.795609-3 0-3Z"/>
</g>
</g>
</g>
<g clip-path="url(#clip_65)">
<g clip-path="url(#clip_66)">
<path transform="matrix(1,0,0,-1,433.0238,266.75773)" stroke-width="2.2" stroke-linecap="butt" stroke-linejoin="round" fill="none" stroke="#d62728" d="M0-6.708204C1.779036-6.708204 3.485448-6.001385 4.743416-4.743416 6.001385-3.485448 6.708204-1.779036 6.708204 0 6.708204 1.779036 6.001385 3.485448 4.743416 4.743416 3.485448 6.001385 1.779036 6.708204 0 6.708204-1.779036 6.708204-3.485448 6.001385-4.743416 4.743416-6.001385 3.485448-6.708204 1.779036-6.708204 0-6.708204-1.779036-6.001385-3.485448-4.743416-4.743416-3.485448-6.001385-1.779036-6.708204 0-6.708204Z"/>
</g>
<g clip-path="url(#clip_67)">
<path transform="matrix(1,0,0,-1,699.25796,51.23639)" stroke-width="2.2" stroke-linecap="butt" stroke-linejoin="round" fill="none" stroke="#d62728" d="M0-6.708204C1.779036-6.708204 3.485448-6.001385 4.743416-4.743416 6.001385-3.485448 6.708204-1.779036 6.708204 0 6.708204 1.779036 6.001385 3.485448 4.743416 4.743416 3.485448 6.001385 1.779036 6.708204 0 6.708204-1.779036 6.708204-3.485448 6.001385-4.743416 4.743416-6.001385 3.485448-6.708204 1.779036-6.708204 0-6.708204-1.779036-6.001385-3.485448-4.743416-4.743416-3.485448-6.001385-1.779036-6.708204 0-6.708204Z"/>
</g>
<g clip-path="url(#clip_68)">
<path transform="matrix(1,0,0,-1,737.9829,298.29743)" stroke-width="2.2" stroke-linecap="butt" stroke-linejoin="round" fill="none" stroke="#d62728" d="M0-6.708204C1.779036-6.708204 3.485448-6.001385 4.743416-4.743416 6.001385-3.485448 6.708204-1.779036 6.708204 0 6.708204 1.779036 6.001385 3.485448 4.743416 4.743416 3.485448 6.001385 1.779036 6.708204 0 6.708204-1.779036 6.708204-3.485448 6.001385-4.743416 4.743416-6.001385 3.485448-6.708204 1.779036-6.708204 0-6.708204-1.779036-6.001385-3.485448-4.743416-4.743416-3.485448-6.001385-1.779036-6.708204 0-6.708204Z"/>
</g>
</g>
<path transform="matrix(1,0,0,-1,0,353.9995)" d="M418.03349 42.560529V39.060529"/>
<path transform="matrix(1,0,0,-1,0,353.9995)" stroke-width=".8" stroke-linecap="butt" stroke-linejoin="round" fill="none" stroke="#000000" d="M418.03349 42.560529V39.060529"/>
<text xml:space="preserve" transform="matrix(1 0 -0 1 414.8538 326.03276)" font-size="10" font-family="DejaVuSans"><tspan y="0" x="0">0</tspan></text>
<path transform="matrix(1,0,0,-1,0,353.9995)" d="M457.07075 42.560529V39.060529"/>
<path transform="matrix(1,0,0,-1,0,353.9995)" stroke-width=".8" stroke-linecap="butt" stroke-linejoin="round" fill="none" stroke="#000000" d="M457.07075 42.560529V39.060529"/>
<text xml:space="preserve" transform="matrix(1 0 -0 1 447.53169 326.03276)" font-size="10" font-family="DejaVuSans"><tspan y="0" x="0 6.3600008 12.720001">250</tspan></text>
<path transform="matrix(1,0,0,-1,0,353.9995)" d="M496.10804 42.560529V39.060529"/>
<path transform="matrix(1,0,0,-1,0,353.9995)" stroke-width=".8" stroke-linecap="butt" stroke-linejoin="round" fill="none" stroke="#000000" d="M496.10804 42.560529V39.060529"/>
<text xml:space="preserve" transform="matrix(1 0 -0 1 486.56898 326.03276)" font-size="10" font-family="DejaVuSans"><tspan y="0" x="0 6.3600008 12.720001">500</tspan></text>
<path transform="matrix(1,0,0,-1,0,353.9995)" d="M535.14529 42.560529V39.060529"/>
<path transform="matrix(1,0,0,-1,0,353.9995)" stroke-width=".8" stroke-linecap="butt" stroke-linejoin="round" fill="none" stroke="#000000" d="M535.14529 42.560529V39.060529"/>
<text xml:space="preserve" transform="matrix(1 0 -0 1 525.6062 326.03276)" font-size="10" font-family="DejaVuSans"><tspan y="0" x="0 6.3600008 12.720001">750</tspan></text>
<path transform="matrix(1,0,0,-1,0,353.9995)" d="M574.18258 42.560529V39.060529"/>
<path transform="matrix(1,0,0,-1,0,353.9995)" stroke-width=".8" stroke-linecap="butt" stroke-linejoin="round" fill="none" stroke="#000000" d="M574.18258 42.560529V39.060529"/>
<text xml:space="preserve" transform="matrix(1 0 -0 1 561.4638 326.03276)" font-size="10" font-family="DejaVuSans"><tspan y="0" x="0 6.3600008 12.720001 19.080002">1000</tspan></text>
<path transform="matrix(1,0,0,-1,0,353.9995)" d="M613.2198 42.560529V39.060529"/>
<path transform="matrix(1,0,0,-1,0,353.9995)" stroke-width=".8" stroke-linecap="butt" stroke-linejoin="round" fill="none" stroke="#000000" d="M613.2198 42.560529V39.060529"/>
<text xml:space="preserve" transform="matrix(1 0 -0 1 600.50106 326.03276)" font-size="10" font-family="DejaVuSans"><tspan y="0" x="0 6.3600008 12.720001 19.080002">1250</tspan></text>
<path transform="matrix(1,0,0,-1,0,353.9995)" d="M652.2571 42.560529V39.060529"/>
<path transform="matrix(1,0,0,-1,0,353.9995)" stroke-width=".8" stroke-linecap="butt" stroke-linejoin="round" fill="none" stroke="#000000" d="M652.2571 42.560529V39.060529"/>
<text xml:space="preserve" transform="matrix(1 0 -0 1 639.5383 326.03276)" font-size="10" font-family="DejaVuSans"><tspan y="0" x="0 6.3600008 12.720001 19.080002">1500</tspan></text>
<path transform="matrix(1,0,0,-1,0,353.9995)" d="M691.2943 42.560529V39.060529"/>
<path transform="matrix(1,0,0,-1,0,353.9995)" stroke-width=".8" stroke-linecap="butt" stroke-linejoin="round" fill="none" stroke="#000000" d="M691.2943 42.560529V39.060529"/>
<text xml:space="preserve" transform="matrix(1 0 -0 1 678.57559 326.03276)" font-size="10" font-family="DejaVuSans"><tspan y="0" x="0 6.3600008 12.720001 19.080002">1750</tspan></text>
<path transform="matrix(1,0,0,-1,0,353.9995)" d="M730.3316 42.560529V39.060529"/>
<path transform="matrix(1,0,0,-1,0,353.9995)" stroke-width=".8" stroke-linecap="butt" stroke-linejoin="round" fill="none" stroke="#000000" d="M730.3316 42.560529V39.060529"/>
<text xml:space="preserve" transform="matrix(1 0 -0 1 717.61288 326.03276)" font-size="10" font-family="DejaVuSans"><tspan y="0" x="0 6.3600008 12.720001 19.080002">2000</tspan></text>
<text xml:space="preserve" transform="matrix(1 0 -0 1 548.41738 339.70463)" font-size="10" font-family="DejaVuSans"><tspan y="0" x="0 6.98 13.1 19.44 23.36 29.338126 35.258127 39.178125 42.358125 45.138124 51.288125 57.628126 63.978128 67.898128">Context length</tspan></text>
<path transform="matrix(1,0,0,-1,0,353.9995)" d="M417.76805 55.702074H414.26805"/>
<path transform="matrix(1,0,0,-1,0,353.9995)" stroke-width=".8" stroke-linecap="butt" stroke-linejoin="round" fill="none" stroke="#000000" d="M417.76805 55.702074H414.26805"/>
<text xml:space="preserve" transform="matrix(1 0 -0 1 404.40867 302.0943)" font-size="10" font-family="DejaVuSans"><tspan y="0" x="0">0</tspan></text>
<path transform="matrix(1,0,0,-1,0,353.9995)" d="M417.76805 108.26826H414.26805"/>
<path transform="matrix(1,0,0,-1,0,353.9995)" stroke-width=".8" stroke-linecap="butt" stroke-linejoin="round" fill="none" stroke="#000000" d="M417.76805 108.26826H414.26805"/>
<text xml:space="preserve" transform="matrix(1 0 -0 1 398.0493 249.52814)" font-size="10" font-family="DejaVuSans"><tspan y="0" x="0 6.3600008">10</tspan></text>
<path transform="matrix(1,0,0,-1,0,353.9995)" d="M417.76805 160.83443H414.26805"/>
<path transform="matrix(1,0,0,-1,0,353.9995)" stroke-width=".8" stroke-linecap="butt" stroke-linejoin="round" fill="none" stroke="#000000" d="M417.76805 160.83443H414.26805"/>
<text xml:space="preserve" transform="matrix(1 0 -0 1 398.0493 196.96196)" font-size="10" font-family="DejaVuSans"><tspan y="0" x="0 6.3600008">20</tspan></text>
<path transform="matrix(1,0,0,-1,0,353.9995)" d="M417.76805 213.40062H414.26805"/>
<path transform="matrix(1,0,0,-1,0,353.9995)" stroke-width=".8" stroke-linecap="butt" stroke-linejoin="round" fill="none" stroke="#000000" d="M417.76805 213.40062H414.26805"/>
<text xml:space="preserve" transform="matrix(1 0 -0 1 398.0493 144.39577)" font-size="10" font-family="DejaVuSans"><tspan y="0" x="0 6.3600008">30</tspan></text>
<path transform="matrix(1,0,0,-1,0,353.9995)" d="M417.76805 265.9668H414.26805"/>
<path transform="matrix(1,0,0,-1,0,353.9995)" stroke-width=".8" stroke-linecap="butt" stroke-linejoin="round" fill="none" stroke="#000000" d="M417.76805 265.9668H414.26805"/>
<text xml:space="preserve" transform="matrix(1 0 -0 1 398.0493 91.82959)" font-size="10" font-family="DejaVuSans"><tspan y="0" x="0 6.3600008">40</tspan></text>
<path transform="matrix(1,0,0,-1,0,353.9995)" d="M417.76805 318.533H414.26805"/>
<path transform="matrix(1,0,0,-1,0,353.9995)" stroke-width=".8" stroke-linecap="butt" stroke-linejoin="round" fill="none" stroke="#000000" d="M417.76805 318.533H414.26805"/>
<text xml:space="preserve" transform="matrix(1 0 -0 1 398.0493 39.263429)" font-size="10" font-family="DejaVuSans"><tspan y="0" x="0 6.3600008">50</tspan></text>
<text xml:space="preserve" transform="matrix(0 -1 1 0 391.97117 209.9523)" font-size="10" font-family="DejaVuSans"><tspan y="0" x="0 6.84 13.18 18.39 26.57 32.72 36.83 40.010004 48.190004 54.31 58.248128 64.59813 67.77813 74.11813 76.89813 80.81813">Answer word hits</tspan></text>
<path transform="matrix(1,0,0,-1,0,353.9995)" stroke-width=".8" stroke-linecap="square" stroke-miterlimit="10" stroke-linejoin="miter" fill="none" stroke="#000000" d="M417.76805 42.560529V331.67454"/>
<path transform="matrix(1,0,0,-1,0,353.9995)" stroke-width=".8" stroke-linecap="square" stroke-miterlimit="10" stroke-linejoin="miter" fill="none" stroke="#000000" d="M753.39486 42.560529V331.67454"/>
<path transform="matrix(1,0,0,-1,0,353.9995)" stroke-width=".8" stroke-linecap="square" stroke-miterlimit="10" stroke-linejoin="miter" fill="none" stroke="#000000" d="M417.76805 42.560529H753.39486"/>
<path transform="matrix(1,0,0,-1,0,353.9995)" stroke-width=".8" stroke-linecap="square" stroke-miterlimit="10" stroke-linejoin="miter" fill="none" stroke="#000000" d="M417.76805 331.67454H753.39486"/>
<text fill="#7a1f1f" xml:space="preserve" transform="matrix(1 0 -0 1 441.0238 258.75773)" font-size="9" font-family="DejaVuSans"><tspan y="0" x="0 5.7240006 8.586 11.448001 16.398 19.926 25.254002 29.754002 35.271005 40.221006 44.721006 50.445005 56.169004">1. ctx_ac_001</tspan></text>
<text fill="#7a1f1f" xml:space="preserve" transform="matrix(1 0 -0 1 707.25796 43.23639)" font-size="9" font-family="DejaVuSans"><tspan y="0" x="0 5.7240006 8.586 11.448001 16.398 19.926 25.254002 29.754002 35.478 41.202 46.926">2. ctx_0039</tspan></text>
<text fill="#7a1f1f" xml:space="preserve" transform="matrix(1 0 -0 1 745.9829 290.29743)" font-size="9" font-family="DejaVuSans"><tspan y="0" x="0 5.7240006 8.586 11.448001 16.398 19.926 25.254002 29.754002 35.478 41.202 46.926">3. ctx_0088</tspan></text>
<text xml:space="preserve" transform="matrix(1 0 -0 1 506.30799 16.324982)" font-size="12" font-family="DejaVuSans"><tspan y="0" x="0 7.620001 15.000001 18.336003 25.716004 32.316 37.020006 44.400007 52.020006 55.836008 65.076007 68.412 75.51601 82.896 87.828 94.08 101.46 105.276 113.652 120.996 128.604 133.308 140.48488 147.58889 152.29288">Selected Diverse Contexts</tspan></text>
<g>
<path transform="matrix(1,0,0,-1,0,353.9995)" d="M423.36805 278.2745H482.7493C483.81596 278.2745 484.34928 278.80787 484.34928 279.8745V326.07453C484.34928 327.14118 483.81596 327.67454 482.7493 327.67454H423.36805C422.30137 327.67454 421.76805 327.14118 421.76805 326.07453V279.8745C421.76805 278.80787 422.30137 278.2745 423.36805 278.2745Z" fill="#ffffff" fill-opacity=".8"/>
<path transform="matrix(1,0,0,-1,0,353.9995)" stroke-width="1" stroke-linecap="butt" stroke-miterlimit="10" stroke-linejoin="miter" fill="none" stroke="#cccccc" stroke-opacity=".8" d="M423.36805 278.2745H482.7493C483.81596 278.2745 484.34928 278.80787 484.34928 279.8745V326.07453C484.34928 327.14118 483.81596 327.67454 482.7493 327.67454H423.36805C422.30137 327.67454 421.76805 327.14118 421.76805 326.07453V279.8745C421.76805 278.80787 422.30137 278.2745 423.36805 278.2745Z"/>
</g>
<g>
<path transform="matrix(1,0,0,-1,0,353.9995)" d="M432.96806 317.4964C433.76365 317.4964 434.52677 317.8125 435.08937 318.37507 435.65196 318.93766 435.96806 319.70079 435.96806 320.4964 435.96806 321.292 435.65196 322.05516 435.08937 322.6177 434.52677 323.1803 433.76365 323.4964 432.96806 323.4964 432.17243 323.4964 431.4093 323.1803 430.8467 322.6177 430.28416 322.05516 429.96806 321.292 429.96806 320.4964 429.96806 319.70079 430.28416 318.93766 430.8467 318.37507 431.4093 317.8125 432.17243 317.4964 432.96806 317.4964Z" fill="#2b8cbe" fill-opacity=".55"/>
<path transform="matrix(1,0,0,-1,0,353.9995)" stroke-width="1" stroke-linecap="butt" stroke-linejoin="round" fill="none" stroke="#2b8cbe" stroke-opacity=".55" d="M432.96806 317.4964C433.76365 317.4964 434.52677 317.8125 435.08937 318.37507 435.65196 318.93766 435.96806 319.70079 435.96806 320.4964 435.96806 321.292 435.65196 322.05516 435.08937 322.6177 434.52677 323.1803 433.76365 323.4964 432.96806 323.4964 432.17243 323.4964 431.4093 323.1803 430.8467 322.6177 430.28416 322.05516 429.96806 321.292 429.96806 320.4964 429.96806 319.70079 430.28416 318.93766 430.8467 318.37507 431.4093 317.8125 432.17243 317.4964 432.96806 317.4964Z"/>
</g>
<text xml:space="preserve" transform="matrix(1 0 -0 1 447.36805 35.60312)" font-size="8" font-family="DejaVuSans"><tspan y="0" x="0 5.072 7.2960007 12.376001">high</tspan></text>
<g>
<path transform="matrix(1,0,0,-1,0,353.9995)" d="M432.96806 305.7464C433.76365 305.7464 434.52677 306.0625 435.08937 306.62507 435.65196 307.18766 435.96806 307.95079 435.96806 308.7464 435.96806 309.542 435.65196 310.30516 435.08937 310.8677 434.52677 311.4303 433.76365 311.7464 432.96806 311.7464 432.17243 311.7464 431.4093 311.4303 430.8467 310.8677 430.28416 310.30516 429.96806 309.542 429.96806 308.7464 429.96806 307.95079 430.28416 307.18766 430.8467 306.62507 431.4093 306.0625 432.17243 305.7464 432.96806 305.7464Z" fill="#6a994e" fill-opacity=".55"/>
<path transform="matrix(1,0,0,-1,0,353.9995)" stroke-width="1" stroke-linecap="butt" stroke-linejoin="round" fill="none" stroke="#6a994e" stroke-opacity=".55" d="M432.96806 305.7464C433.76365 305.7464 434.52677 306.0625 435.08937 306.62507 435.65196 307.18766 435.96806 307.95079 435.96806 308.7464 435.96806 309.542 435.65196 310.30516 435.08937 310.8677 434.52677 311.4303 433.76365 311.7464 432.96806 311.7464 432.17243 311.7464 431.4093 311.4303 430.8467 310.8677 430.28416 310.30516 429.96806 309.542 429.96806 308.7464 429.96806 307.95079 430.28416 307.18766 430.8467 306.62507 431.4093 306.0625 432.17243 305.7464 432.96806 305.7464Z"/>
</g>
<text xml:space="preserve" transform="matrix(1 0 -0 1 447.36805 47.35312)" font-size="8" font-family="DejaVuSans"><tspan y="0" x="0 2.2240003 7.120001">low</tspan></text>
<g>
<path transform="matrix(1,0,0,-1,0,353.9995)" d="M432.96806 293.9964C433.76365 293.9964 434.52677 294.3125 435.08937 294.87507 435.65196 295.43766 435.96806 296.20079 435.96806 296.9964 435.96806 297.792 435.65196 298.55516 435.08937 299.1177 434.52677 299.6803 433.76365 299.9964 432.96806 299.9964 432.17243 299.9964 431.4093 299.6803 430.8467 299.1177 430.28416 298.55516 429.96806 297.792 429.96806 296.9964 429.96806 296.20079 430.28416 295.43766 430.8467 294.87507 431.4093 294.3125 432.17243 293.9964 432.96806 293.9964Z" fill="#f0a202" fill-opacity=".55"/>
<path transform="matrix(1,0,0,-1,0,353.9995)" stroke-width="1" stroke-linecap="butt" stroke-linejoin="round" fill="none" stroke="#f0a202" stroke-opacity=".55" d="M432.96806 293.9964C433.76365 293.9964 434.52677 294.3125 435.08937 294.87507 435.65196 295.43766 435.96806 296.20079 435.96806 296.9964 435.96806 297.792 435.65196 298.55516 435.08937 299.1177 434.52677 299.6803 433.76365 299.9964 432.96806 299.9964 432.17243 299.9964 431.4093 299.6803 430.8467 299.1177 430.28416 298.55516 429.96806 297.792 429.96806 296.9964 429.96806 296.20079 430.28416 295.43766 430.8467 294.87507 431.4093 294.3125 432.17243 293.9964 432.96806 293.9964Z"/>
</g>
<text xml:space="preserve" transform="matrix(1 0 -0 1 447.36805 59.10312)" font-size="8" font-family="DejaVuSans"><tspan y="0" x="0 7.7920005 12.712 17.792 20.016 25.088002">medium</tspan></text>
<path transform="matrix(1,0,0,-1,0,353.9995)" stroke-width="2.2" stroke-linecap="butt" stroke-linejoin="round" fill="none" stroke="#d62728" d="M432.96806 278.53819C434.74708 278.53819 436.4535 279.245 437.71147 280.503 438.96943 281.76097 439.67625 283.46736 439.67625 285.2464 439.67625 287.02543 438.96943 288.73185 437.71147 289.9898 436.4535 291.24778 434.74708 291.9546 432.96806 291.9546 431.189 291.9546 429.48258 291.24778 428.2246 289.9898 426.96665 288.73185 426.25984 287.02543 426.25984 285.2464 426.25984 283.46736 426.96665 281.76097 428.2246 280.503 429.48258 279.245 431.189 278.53819 432.96806 278.53819Z"/>
<text xml:space="preserve" transform="matrix(1 0 -0 1 447.36805 70.85312)" font-size="8" font-family="DejaVuSans"><tspan y="0" x="0 4.168 9.088 11.312 16.232 20.632 23.768 28.688">selected</tspan></text>
<path transform="matrix(1,0,0,-1,0,353.9995)" d="M852.9946 42.560529H1188.6213V331.67454H852.9946Z" fill="#ffffff"/>
<g clip-path="url(#clip_69)">
<path transform="matrix(1,0,0,-1,0,353.9995)" d="M868.25039 42.560529H908.6333V55.461107H868.25039Z" fill="#2b8cbe"/>
</g>
<g clip-path="url(#clip_70)">
<path transform="matrix(1,0,0,-1,0,353.9995)" d="M980.4251 42.560529H1020.808V284.5807H980.4251Z" fill="#f0a202"/>
</g>
<g clip-path="url(#clip_71)">
<path transform="matrix(1,0,0,-1,0,353.9995)" d="M1092.5999 42.560529H1132.9828V317.9072H1092.5999Z" fill="#6a994e"/>
</g>
<path transform="matrix(1,0,0,-1,0,353.9995)" d="M908.6333 42.560529V39.060529"/>
<path transform="matrix(1,0,0,-1,0,353.9995)" stroke-width=".8" stroke-linecap="butt" stroke-linejoin="round" fill="none" stroke="#000000" d="M908.6333 42.560529V39.060529"/>
<text xml:space="preserve" transform="matrix(.9396926 -.34202016 .34202016 .9396926 855.1595 344.58244)" font-size="10" font-family="DejaVuSans"><tspan y="0" x="0 5.5 9.42 15.34 20.34 26.470002 31.970002 36.97 43.33 49.690004">ctx_ac_001</tspan></text>
<path transform="matrix(1,0,0,-1,0,353.9995)" d="M1020.808 42.560529V39.060529"/>
<path transform="matrix(1,0,0,-1,0,353.9995)" stroke-width=".8" stroke-linecap="butt" stroke-linejoin="round" fill="none" stroke="#000000" d="M1020.808 42.560529V39.060529"/>
<text xml:space="preserve" transform="matrix(.9396926 -.34202016 .34202016 .9396926 976.9808 341.07139)" font-size="10" font-family="DejaVuSans"><tspan y="0" x="0 5.5 9.42 15.34 20.34 26.7 33.06 39.420003">ctx_0039</tspan></text>
<path transform="matrix(1,0,0,-1,0,353.9995)" d="M1132.9828 42.560529V39.060529"/>
<path transform="matrix(1,0,0,-1,0,353.9995)" stroke-width=".8" stroke-linecap="butt" stroke-linejoin="round" fill="none" stroke="#000000" d="M1132.9828 42.560529V39.060529"/>
<text xml:space="preserve" transform="matrix(.9396926 -.34202016 .34202016 .9396926 1089.1555 341.07139)" font-size="10" font-family="DejaVuSans"><tspan y="0" x="0 5.5 9.42 15.34 20.34 26.7 33.06 39.420003">ctx_0088</tspan></text>
<path transform="matrix(1,0,0,-1,0,353.9995)" d="M852.9946 42.560529H849.4946"/>
<path transform="matrix(1,0,0,-1,0,353.9995)" stroke-width=".8" stroke-linecap="butt" stroke-linejoin="round" fill="none" stroke="#000000" d="M852.9946 42.560529H849.4946"/>
<text xml:space="preserve" transform="matrix(1 0 -0 1 839.63528 315.23588)" font-size="10" font-family="DejaVuSans"><tspan y="0" x="0">0</tspan></text>
<path transform="matrix(1,0,0,-1,0,353.9995)" d="M852.9946 76.15578H849.4946"/>
<path transform="matrix(1,0,0,-1,0,353.9995)" stroke-width=".8" stroke-linecap="butt" stroke-linejoin="round" fill="none" stroke="#000000" d="M852.9946 76.15578H849.4946"/>
<text xml:space="preserve" transform="matrix(1 0 -0 1 826.9165 281.64064)" font-size="10" font-family="DejaVuSans"><tspan y="0" x="0 6.3600008 12.720001">250</tspan></text>
<path transform="matrix(1,0,0,-1,0,353.9995)" d="M852.9946 109.75102H849.4946"/>
<path transform="matrix(1,0,0,-1,0,353.9995)" stroke-width=".8" stroke-linecap="butt" stroke-linejoin="round" fill="none" stroke="#000000" d="M852.9946 109.75102H849.4946"/>
<text xml:space="preserve" transform="matrix(1 0 -0 1 826.9165 248.04537)" font-size="10" font-family="DejaVuSans"><tspan y="0" x="0 6.3600008 12.720001">500</tspan></text>
<path transform="matrix(1,0,0,-1,0,353.9995)" d="M852.9946 143.34627H849.4946"/>
<path transform="matrix(1,0,0,-1,0,353.9995)" stroke-width=".8" stroke-linecap="butt" stroke-linejoin="round" fill="none" stroke="#000000" d="M852.9946 143.34627H849.4946"/>
<text xml:space="preserve" transform="matrix(1 0 -0 1 826.9165 214.45012)" font-size="10" font-family="DejaVuSans"><tspan y="0" x="0 6.3600008 12.720001">750</tspan></text>
<path transform="matrix(1,0,0,-1,0,353.9995)" d="M852.9946 176.94153H849.4946"/>
<path transform="matrix(1,0,0,-1,0,353.9995)" stroke-width=".8" stroke-linecap="butt" stroke-linejoin="round" fill="none" stroke="#000000" d="M852.9946 176.94153H849.4946"/>
<text xml:space="preserve" transform="matrix(1 0 -0 1 820.5571 180.85486)" font-size="10" font-family="DejaVuSans"><tspan y="0" x="0 6.3600008 12.720001 19.080002">1000</tspan></text>
<path transform="matrix(1,0,0,-1,0,353.9995)" d="M852.9946 210.53678H849.4946"/>
<path transform="matrix(1,0,0,-1,0,353.9995)" stroke-width=".8" stroke-linecap="butt" stroke-linejoin="round" fill="none" stroke="#000000" d="M852.9946 210.53678H849.4946"/>
<text xml:space="preserve" transform="matrix(1 0 -0 1 820.5571 147.25962)" font-size="10" font-family="DejaVuSans"><tspan y="0" x="0 6.3600008 12.720001 19.080002">1250</tspan></text>
<path transform="matrix(1,0,0,-1,0,353.9995)" d="M852.9946 244.13202H849.4946"/>
<path transform="matrix(1,0,0,-1,0,353.9995)" stroke-width=".8" stroke-linecap="butt" stroke-linejoin="round" fill="none" stroke="#000000" d="M852.9946 244.13202H849.4946"/>
<text xml:space="preserve" transform="matrix(1 0 -0 1 820.5571 113.66437)" font-size="10" font-family="DejaVuSans"><tspan y="0" x="0 6.3600008 12.720001 19.080002">1500</tspan></text>
<path transform="matrix(1,0,0,-1,0,353.9995)" d="M852.9946 277.72727H849.4946"/>
<path transform="matrix(1,0,0,-1,0,353.9995)" stroke-width=".8" stroke-linecap="butt" stroke-linejoin="round" fill="none" stroke="#000000" d="M852.9946 277.72727H849.4946"/>
<text xml:space="preserve" transform="matrix(1 0 -0 1 820.5571 80.06912)" font-size="10" font-family="DejaVuSans"><tspan y="0" x="0 6.3600008 12.720001 19.080002">1750</tspan></text>
<path transform="matrix(1,0,0,-1,0,353.9995)" d="M852.9946 311.3225H849.4946"/>
<path transform="matrix(1,0,0,-1,0,353.9995)" stroke-width=".8" stroke-linecap="butt" stroke-linejoin="round" fill="none" stroke="#000000" d="M852.9946 311.3225H849.4946"/>
<text xml:space="preserve" transform="matrix(1 0 -0 1 820.5571 46.473878)" font-size="10" font-family="DejaVuSans"><tspan y="0" x="0 6.3600008 12.720001 19.080002">2000</tspan></text>
<text xml:space="preserve" transform="matrix(0 -1 1 0 814.479 184.16324)" font-size="10" font-family="DejaVuSans"><tspan y="0" x="0 5.3981258 11.548126 17.888127 24.238127 28.158127">Length</tspan></text>
<path transform="matrix(1,0,0,-1,0,353.9995)" stroke-width=".8" stroke-linecap="square" stroke-miterlimit="10" stroke-linejoin="miter" fill="none" stroke="#000000" d="M852.9946 42.560529V331.67454"/>
<path transform="matrix(1,0,0,-1,0,353.9995)" stroke-width=".8" stroke-linecap="square" stroke-miterlimit="10" stroke-linejoin="miter" fill="none" stroke="#000000" d="M1188.6213 42.560529V331.67454"/>
<path transform="matrix(1,0,0,-1,0,353.9995)" stroke-width=".8" stroke-linecap="square" stroke-miterlimit="10" stroke-linejoin="miter" fill="none" stroke="#000000" d="M852.9946 42.560529H1188.6213"/>
<path transform="matrix(1,0,0,-1,0,353.9995)" stroke-width=".8" stroke-linecap="square" stroke-miterlimit="10" stroke-linejoin="miter" fill="none" stroke="#000000" d="M852.9946 331.67454H1188.6213"/>
<text xml:space="preserve" transform="matrix(1 0 -0 1 919.53457 16.324982)" font-size="12" font-family="DejaVuSans"><tspan y="0" x="0 7.332 14.94 19.622 27.001999 34.382 38.714 47.09 54.434003 62.042 66.746 73.922878 81.02687 85.73087 89.546878 97.922878 105.26688 116.95488 124.57488 131.93088 136.86289 140.19889 146.45088 153.79488 161.40288 165.21887 168.75887 176.36687 183.98686 191.59487 196.29886">Three-Context Comparison Inputs</tspan></text>
<g>
<path transform="matrix(1,0,0,-1,0,353.9995)" d="M1095.9058 301.7745H1183.0214C1184.088 301.7745 1184.6213 302.30787 1184.6213 303.3745V326.07453C1184.6213 327.14118 1184.088 327.67454 1183.0214 327.67454H1095.9058C1094.8391 327.67454 1094.3058 327.14118 1094.3058 326.07453V303.3745C1094.3058 302.30787 1094.8391 301.7745 1095.9058 301.7745Z" fill="#ffffff" fill-opacity=".8"/>
<path transform="matrix(1,0,0,-1,0,353.9995)" stroke-width="1" stroke-linecap="butt" stroke-miterlimit="10" stroke-linejoin="miter" fill="none" stroke="#cccccc" stroke-opacity=".8" d="M1095.9058 301.7745H1183.0214C1184.088 301.7745 1184.6213 302.30787 1184.6213 303.3745V326.07453C1184.6213 327.14118 1184.088 327.67454 1183.0214 327.67454H1095.9058C1094.8391 327.67454 1094.3058 327.14118 1094.3058 326.07453V303.3745C1094.3058 302.30787 1094.8391 301.7745 1095.9058 301.7745Z"/>
</g>
<path transform="matrix(1,0,0,-1,0,353.9995)" d="M1097.5057 318.3964H1113.5057V323.9964H1097.5057Z" fill="#2b8cbe"/>
<text xml:space="preserve" transform="matrix(1 0 -0 1 1119.9058 35.60312)" font-size="8" font-family="DejaVuSans"><tspan y="0" x="0 2.2240003 7.144 12.216 17.296 20.432">length</tspan></text>
<path transform="matrix(1,0,0,-1,0,353.9995)" d="M1097.5057 306.6464H1113.5057V312.2464H1097.5057Z" fill="#444444" fill-opacity=".45"/>
<text xml:space="preserve" transform="matrix(1 0 -0 1 1119.9058 47.35312)" font-size="8" font-family="DejaVuSans"><tspan y="0" x="0 4.9040005 9.976 14.144 20.688 25.608 28.896 31.44 36.336004 41.072004 45.992006 49.280008 51.504007 56.408006">answer overlap</tspan></text>
<g clip-path="url(#clip_72)">
<path transform="matrix(1,0,0,-1,0,353.9995)" d="M908.6333 42.560529H949.0162V317.9072H908.6333Z" fill="#444444" fill-opacity=".45"/>
</g>
<g clip-path="url(#clip_73)">
<path transform="matrix(1,0,0,-1,0,353.9995)" d="M1020.808 42.560529H1061.1909V180.23386H1020.808Z" fill="#444444" fill-opacity=".45"/>
</g>
<g clip-path="url(#clip_74)">
<path transform="matrix(1,0,0,-1,0,353.9995)" d="M1132.9828 42.560529H1173.3656V111.397197H1132.9828Z" fill="#444444" fill-opacity=".45"/>
</g>
<path transform="matrix(1,0,0,-1,0,353.9995)" d="M1188.6213 42.560529H1192.1213"/>
<path transform="matrix(1,0,0,-1,0,353.9995)" stroke-width=".8" stroke-linecap="butt" stroke-linejoin="round" fill="none" stroke="#000000" d="M1188.6213 42.560529H1192.1213"/>
<text xml:space="preserve" transform="matrix(1 0 -0 1 1195.6213 315.23588)" font-size="10" font-family="DejaVuSans"><tspan y="0" x="0 6.3600008 9.540001">0.0</tspan></text>
<path transform="matrix(1,0,0,-1,0,353.9995)" d="M1188.6213 97.62986H1192.1213"/>
<path transform="matrix(1,0,0,-1,0,353.9995)" stroke-width=".8" stroke-linecap="butt" stroke-linejoin="round" fill="none" stroke="#000000" d="M1188.6213 97.62986H1192.1213"/>
<text xml:space="preserve" transform="matrix(1 0 -0 1 1195.6213 260.16654)" font-size="10" font-family="DejaVuSans"><tspan y="0" x="0 6.3600008 9.540001">0.2</tspan></text>
<path transform="matrix(1,0,0,-1,0,353.9995)" d="M1188.6213 152.69919H1192.1213"/>
<path transform="matrix(1,0,0,-1,0,353.9995)" stroke-width=".8" stroke-linecap="butt" stroke-linejoin="round" fill="none" stroke="#000000" d="M1188.6213 152.69919H1192.1213"/>
<text xml:space="preserve" transform="matrix(1 0 -0 1 1195.6213 205.0972)" font-size="10" font-family="DejaVuSans"><tspan y="0" x="0 6.3600008 9.540001">0.4</tspan></text>
<path transform="matrix(1,0,0,-1,0,353.9995)" d="M1188.6213 207.76853H1192.1213"/>
<path transform="matrix(1,0,0,-1,0,353.9995)" stroke-width=".8" stroke-linecap="butt" stroke-linejoin="round" fill="none" stroke="#000000" d="M1188.6213 207.76853H1192.1213"/>
<text xml:space="preserve" transform="matrix(1 0 -0 1 1195.6213 150.02787)" font-size="10" font-family="DejaVuSans"><tspan y="0" x="0 6.3600008 9.540001">0.6</tspan></text>
<path transform="matrix(1,0,0,-1,0,353.9995)" d="M1188.6213 262.83787H1192.1213"/>
<path transform="matrix(1,0,0,-1,0,353.9995)" stroke-width=".8" stroke-linecap="butt" stroke-linejoin="round" fill="none" stroke="#000000" d="M1188.6213 262.83787H1192.1213"/>
<text xml:space="preserve" transform="matrix(1 0 -0 1 1195.6213 94.95853)" font-size="10" font-family="DejaVuSans"><tspan y="0" x="0 6.3600008 9.540001">0.8</tspan></text>
<path transform="matrix(1,0,0,-1,0,353.9995)" d="M1188.6213 317.9072H1192.1213"/>
<path transform="matrix(1,0,0,-1,0,353.9995)" stroke-width=".8" stroke-linecap="butt" stroke-linejoin="round" fill="none" stroke="#000000" d="M1188.6213 317.9072H1192.1213"/>
<text xml:space="preserve" transform="matrix(1 0 -0 1 1195.6213 39.88919)" font-size="10" font-family="DejaVuSans"><tspan y="0" x="0 6.3600008 9.540001">1.0</tspan></text>
<text xml:space="preserve" transform="matrix(0 -1 1 0 1223.1213 218.81168)" font-size="10" font-family="DejaVuSans"><tspan y="0" x="0 6.84 13.18 18.39 26.57 32.72 36.83 40.010004 46.13 52.050004 58.200006 62.310007 65.090007 71.22 77.57 80.75 84.86 90.99 94.909999 97.689998">Answer overlap ratio</tspan></text>
<path transform="matrix(1,0,0,-1,0,353.9995)" stroke-width=".8" stroke-linecap="square" stroke-miterlimit="10" stroke-linejoin="miter" fill="none" stroke="#000000" d="M852.9946 42.560529V331.67454"/>
<path transform="matrix(1,0,0,-1,0,353.9995)" stroke-width=".8" stroke-linecap="square" stroke-miterlimit="10" stroke-linejoin="miter" fill="none" stroke="#000000" d="M1188.6213 42.560529V331.67454"/>
<path transform="matrix(1,0,0,-1,0,353.9995)" stroke-width=".8" stroke-linecap="square" stroke-miterlimit="10" stroke-linejoin="miter" fill="none" stroke="#000000" d="M852.9946 42.560529H1188.6213"/>
<path transform="matrix(1,0,0,-1,0,353.9995)" stroke-width=".8" stroke-linecap="square" stroke-miterlimit="10" stroke-linejoin="miter" fill="none" stroke="#000000" d="M852.9946 331.67454H1188.6213"/>
</svg>
